<?xml version="1.0" encoding="utf-8"?>
<!-- Generator: Adobe Illustrator 27.0.0, SVG Export Plug-In . SVG Version: 6.00 Build 0)  -->
<svg version="1.1" id="Layer_1" xmlns="http://www.w3.org/2000/svg" xmlns:xlink="http://www.w3.org/1999/xlink" x="0px" y="0px"
	 viewBox="0 0 840 80" style="enable-background:new 0 0 840 80;" xml:space="preserve">
<style type="text/css">
	.st0{opacity:0.502;fill-rule:evenodd;clip-rule:evenodd;fill:#C6C6C6;enable-background:new    ;}
	.st1{fill:#E5E5E5;}
</style>
<path class="st0" d="M190.2,57.3h-3.8l3-7.3L183.4,35h4.1l3.7,10.2l3.7-10.2h4.1L190.2,57.3z M175.4,50.9c-1.3,0-2.7-0.5-3.9-1.5
	v1.1h-4V28.2h4V36c1.2-0.9,2.6-1.4,3.9-1.4c4.1,0,7,3.3,7,8.1C182.4,47.5,179.6,50.9,175.4,50.9L175.4,50.9z M174.6,38
	c-1.1,0-2.2,0.5-3.1,1.4v6.6c0.9,0.9,2,1.4,3.1,1.4c2.2,0,3.8-1.9,3.8-4.7S176.8,38,174.6,38L174.6,38z M151.5,49.4
	c-1.2,1-2.6,1.5-3.9,1.5c-4.1,0-7-3.3-7-8.1c0-4.8,2.9-8.1,7-8.1c1.4,0,2.7,0.5,3.9,1.4v-7.8h4v22.3h-4V49.4z M151.5,39.4
	c-0.9-0.9-2-1.4-3.1-1.4c-2.3,0-3.8,1.9-3.8,4.7s1.5,4.7,3.8,4.7c1.1,0,2.2-0.5,3.1-1.4V39.4z M127.9,43.8c0.2,2.4,2.1,4,4.7,4
	c1.4,0,3-0.5,4.6-1.5v3.3c-1.8,0.8-3.5,1.2-5.3,1.2c-4.7,0-8-3.4-8-8.2c0-4.7,3.2-8,7.6-8c4.1,0,6.8,3.2,6.8,7.7
	c0,0.4,0,0.9-0.1,1.5H127.9z M131.5,37.7c-1.9,0-3.4,1.4-3.6,3.6h6.8C134.5,39.1,133.3,37.7,131.5,37.7L131.5,37.7z M117.5,40.1
	v10.3h-4V35h4v1.5c1.1-1.2,2.5-1.9,3.8-1.9c0.4,0,0.9,0,1.3,0.2v3.5c-0.4-0.1-0.9-0.2-1.4-0.2C119.9,38.1,118.5,38.8,117.5,40.1z
	 M99.8,43.8c0.2,2.4,2.1,4,4.7,4c1.4,0,3-0.5,4.6-1.5v3.3c-1.8,0.8-3.5,1.2-5.3,1.2c-4.7,0-8-3.4-8-8.2c0-4.7,3.2-8,7.6-8
	c4.1,0,6.8,3.2,6.8,7.7c0,0.4,0,0.9-0.1,1.5H99.8z M103.4,37.7c-1.9,0-3.4,1.4-3.6,3.6h6.8C106.4,39.1,105.1,37.7,103.4,37.7z
	 M85.9,50.5L82.8,40l-3.1,10.5h-3.6L70.7,35h4l3.1,10.5L81,35h3.6l3.1,10.5L90.8,35h4l-5.3,15.5H85.9z M61.7,50.9
	c-4.7,0-8-3.4-8-8.1c0-4.8,3.3-8.1,8-8.1s8,3.3,8,8.1C69.7,47.5,66.4,50.9,61.7,50.9z M61.7,37.9c-2.3,0-3.9,2-3.9,4.8
	c0,2.8,1.6,4.8,3.9,4.8c2.3,0,3.9-2,3.9-4.8C65.6,39.9,64,37.9,61.7,37.9z M44.3,42.8h-3.6v7.7h-4V29.2h7.5c4.3,0,7.4,2.8,7.4,6.8
	S48.6,42.8,44.3,42.8L44.3,42.8z M43.7,32.4h-3v7.2h3c2.3,0,3.9-1.5,3.9-3.6C47.6,33.8,46,32.4,43.7,32.4z M378.6,44.4h-16.4
	c0.4,3.9,3.2,5.1,6.5,5.1c3.3,0,5.9-0.7,8.2-1.8v6.7c-2.3,1.3-5.3,2.2-9.3,2.2c-8.1,0-13.8-5.1-13.8-15.2c0-8.5,4.8-15.3,12.8-15.3
	c7.9,0,12.1,6.8,12.1,15.3C378.7,42.2,378.6,43.9,378.6,44.4z M366.5,32.8c-2.1,0-4.4,1.6-4.4,5.3h8.6
	C370.8,34.4,368.6,32.8,366.5,32.8z M340.3,56.5c-2.9,0-4.7-1.2-5.9-2.1l0,9.5l-8.4,1.8l0-39h7.4l0.4,2.1c1.2-1.1,3.3-2.6,6.5-2.6
	c5.9,0,11.4,5.3,11.4,15C351.7,51.7,346.3,56.5,340.3,56.5L340.3,56.5z M338.3,33.4c-1.9,0-3.1,0.7-4,1.7l0.1,12.4
	c0.8,0.9,2,1.6,3.9,1.6c3.1,0,5.2-3.4,5.2-7.9C343.5,36.9,341.4,33.4,338.3,33.4L338.3,33.4z M313.9,26.6h8.4v29.3h-8.4V26.6z
	 M313.9,17.2l8.4-1.8v6.8l-8.4,1.8V17.2z M305,36v19.9h-8.4V26.6h7.2l0.5,2.5c2-3.6,5.9-2.9,7-2.5v7.7C310.3,33.9,306.9,33.4,305,36
	L305,36z M287.1,45.6c0,4.9,5.3,3.4,6.3,3v6.8c-1.1,0.6-3.1,1.1-5.9,1.1c-5,0-8.7-3.7-8.7-8.6l0-26.8l8.2-1.7l0,7.3h6.3v7.1h-6.3
	L287.1,45.6z M276.6,47c0,6-4.8,9.4-11.7,9.4c-2.9,0-6-0.6-9.1-1.9v-8c2.8,1.5,6.4,2.7,9.1,2.7c1.9,0,3.2-0.5,3.2-2
	c0-4-12.7-2.5-12.7-11.7c0-5.9,4.5-9.5,11.3-9.5c2.8,0,5.5,0.4,8.3,1.5v7.9c-2.5-1.4-5.8-2.2-8.3-2.2c-1.8,0-2.8,0.5-2.8,1.8
	C263.9,38.8,276.6,37.1,276.6,47z"/>
<path class="st1" d="M483.2,59.1l-5.8-17.7l15.2-10.9h-18.8l-5.8-17.7h18.8l5.8,17.7C495.9,40.7,492.5,52.4,483.2,59.1L483.2,59.1z
	 M451.7,59.1L467.9,70l15.2-10.9l-15.2-10.9L451.7,59.1z M442.3,30.4c-3.6,10.8,0.6,22.3,9.4,28.6v0l5.8-17.7L442.3,30.4l19.8,0
	l5.8-17.7h-19.8L442.3,30.4z"/>
<path class="st1" d="M592.8,26.6c-3,0-5.6,1.4-7.4,4.1c-1.8,2.7-2.8,6.4-2.8,10.7s1,8.1,2.8,10.7c1.8,2.7,4.4,4.1,7.4,4.1
	c3,0,5.6-1.4,7.4-4.1c1.8-2.7,2.8-6.4,2.8-10.7s-1-8.1-2.8-10.7C598.4,28,595.9,26.6,592.8,26.6z M592.8,52.5
	c-1.4,0-2.6-0.8-3.5-2.5c-1.1-2-1.7-5.1-1.7-8.7c0-3.6,0.6-6.6,1.7-8.7c0.9-1.7,2.1-2.5,3.5-2.5s2.6,0.8,3.5,2.5
	c1.1,2,1.7,5.1,1.7,8.7c0,3.6-0.6,6.6-1.7,8.7C595.4,51.7,594.3,52.5,592.8,52.5z M527.1,37.4v12.7c0,3.4,2.8,6.1,6.2,6.1
	c2.9,0,5.2-1.5,6-2.1c0,0,0.1,0,0.1,0s0.1,0.1,0.1,0.1l0.5,1.6h3.7V37.4H539v13.8c0,0.1,0,0.1-0.1,0.2c-0.9,0.5-2.7,1.2-4.4,1.2
	c-1.5,0-2.7-1.2-2.7-2.7V37.4L527.1,37.4z M574.3,55.8h4.7V43c0-3.4-2.8-6.1-6.2-6.1c-2.5,0-4.5,1.1-5.5,1.7c-0.1,0-0.1,0-0.2,0
	c-0.1,0-0.1-0.1-0.1-0.2V26.9h-4.7v28.8h4.7V42c0-0.1,0-0.1,0.1-0.2c0.9-0.5,2.7-1.2,4.4-1.2c0.7,0,1.4,0.3,1.9,0.8s0.8,1.2,0.8,1.9
	L574.3,55.8z M547.1,41h2.9c0.1,0,0.2,0.1,0.2,0.2v10.1c0,2.7,2.2,4.8,4.9,4.8c1,0,1.9-0.1,2.9-0.4v-3.3l-1.6,0.1
	c-0.8,0-1.4-0.6-1.4-1.4v-9.9c0-0.1,0.1-0.2,0.2-0.2h2.9v-3.7h-2.9c-0.1,0-0.2-0.1-0.2-0.2v-6.1h-4.7v6.1c0,0.1-0.1,0.2-0.2,0.2
	h-2.9L547.1,41z M519.6,55.8h4.9L517,30.1c-0.6-2.1-2.5-3.5-4.7-3.5c-2.2,0-4.1,1.4-4.7,3.5l-7.5,25.7h4.9l2.2-7.4
	c0-0.1,0.1-0.1,0.2-0.1h9.9c0.1,0,0.1,0.1,0.2,0.1L519.6,55.8z M516.1,44.6h-7.5c-0.1,0-0.1,0-0.1-0.1c0,0,0-0.1,0-0.1l3.8-13
	c0-0.1,0.1-0.1,0.2-0.1c0.1,0,0.1,0.1,0.2,0.1l3.8,13c0,0.1,0,0.1,0,0.1C516.2,44.5,516.1,44.6,516.1,44.6L516.1,44.6z"/>
<g>
	<g>
		<g>
			<path class="st1" d="M673.6,24.9c-9.8,0-17.6,7.9-17.6,17.6s7.9,17.6,17.6,17.6c9.8,0,17.6-7.9,17.6-17.6S683.3,24.9,673.6,24.9z
				 M673.6,51.4c-4.9,0-8.8-4-8.8-8.8s4-8.8,8.8-8.8c4.9,0,8.8,4,8.8,8.8S678.4,51.4,673.6,51.4z"/>
		</g>
		<path class="st1" d="M704.6,48.4c0-1.4,1.7-2.1,2.7-1.1c4.4,4.5,11.7,12.2,11.8,12.2c0.1,0.1,0.2,0.3,0.6,0.4
			c0.2,0.1,0.5,0.1,0.8,0.1h8c1.4,0,1.9-1.6,1.2-2.5l-13.2-13.5l-0.7-0.7c-1.5-1.8-1.3-2.5,0.4-4.3l10.5-11.7
			c0.7-0.8,0.2-2.5-1.2-2.5H718c-0.3,0-0.5,0-0.7,0.1c-0.4,0.1-0.6,0.3-0.7,0.4c0,0-5.8,6.3-9.4,10.1c-1,1.1-2.7,0.4-2.7-1.1v-20
			c0-1-0.8-1.4-1.5-1.4h-5.9c-1,0-1.5,0.7-1.5,1.3v44.4c0,1,0.8,1.3,1.5,1.3h5.9c0.9,0,1.5-0.7,1.5-1.3v-0.5L704.6,48.4L704.6,48.4z
			"/>
		<path class="st1" d="M752.7,58.5l-0.6-5.9c-0.1-0.8-0.8-1.4-1.6-1.2c-0.5,0.1-0.9,0.1-1.4,0.1c-4.7,0-8.5-3.7-8.8-8.4
			c0-0.1,0-0.3,0-0.5v-7.2c0-0.9,0.7-1.7,1.6-1.7h7.9c0.6,0,1.4-0.5,1.4-1.5v-5.6c0-1.1-0.7-1.6-1.3-1.6h-8c-0.9,0-1.6-0.7-1.7-1.6
			v-8.9c0-0.6-0.4-1.4-1.5-1.4h-5.9c-0.7,0-1.4,0.5-1.4,1.4c0,0,0,28.6,0,28.7c0.2,9.5,8.1,17.2,17.6,17.2c0.8,0,1.6-0.1,2.4-0.2
			C752.3,60,752.8,59.3,752.7,58.5z"/>
	</g>
	<g>
		<path class="st1" d="M795.2,51.1c-5,0-5.8-1.8-5.8-8.5c0,0,0,0,0-0.1V26.4c0-0.6-0.4-1.5-1.5-1.5H782c-0.7,0-1.5,0.6-1.5,1.5v0.7
			c-2.6-1.5-5.5-2.3-8.7-2.3c-9.8,0-17.6,7.9-17.6,17.6s7.9,17.6,17.6,17.6c4.4,0,8.4-1.6,11.5-4.2c1.6,2.5,4.3,4.2,8.5,4.2
			c0.7,0,4.5,0.1,4.5-1.6v-6.3C796.3,51.7,795.8,51.1,795.2,51.1z M771.8,51.4c-4.9,0-8.8-4-8.8-8.8c0-4.9,4-8.8,8.8-8.8
			s8.8,4,8.8,8.8C780.6,47.4,776.7,51.4,771.8,51.4z"/>
	</g>
</g>
</svg>
