<?xml version="1.0" encoding="utf-8"?>
<!-- Generator: Adobe Illustrator 27.0.0, SVG Export Plug-In . SVG Version: 6.00 Build 0)  -->
<svg version="1.1" id="Layer_1" xmlns="http://www.w3.org/2000/svg" xmlns:xlink="http://www.w3.org/1999/xlink" x="0px" y="0px"
	 viewBox="0 0 606 130" style="enable-background:new 0 0 606 130;" xml:space="preserve">
<style type="text/css">
	.st0{opacity:0.2;fill:#110E0B;}
	.st1{fill:#E8E6DF;}
	.st2{fill:#564C45;}
	.st3{fill:none;}
	.st4{fill:#897C71;}
	.st5{font-family:'MajestiBanner-Book';}
	.st6{font-size:7.9548px;}
	.st7{letter-spacing:2;}
	.st8{fill:#FFFBF2;}
	.st9{opacity:0;fill:#E8E6DF;}
	.st10{fill:#EBDBB9;}
	.st11{fill:#4F4F4F;}
	.st12{fill:#FFFFFF;}
	.st13{font-family:'AnaEve-Regular';}
	.st14{font-size:9.4904px;}
	.st15{font-family:'AmnestiaDistressed';}
	.st16{font-size:14px;}
</style>
<g>
	<polygon class="st0" points="588.8,10.8 574.3,11.5 547.5,11.2 537.3,12.4 518.2,11.5 504,12.2 481.4,12.9 469.6,11.7 441.7,11.4 
		445.1,13.5 436,13.9 431.5,13 411.8,11.5 384.6,13.8 367.8,13.8 343.1,12.5 314.3,15.3 305.8,11.3 293.2,12 267.3,11.7 242.1,9.3 
		199.7,12.6 201.9,7.9 169.5,9.9 149.6,13.6 147.9,9.7 122.2,13.6 102.5,10.7 63.2,11 73.4,8 38,9.7 0,6.7 0,120.4 17.9,118.9 
		27.3,118.9 56.5,119.2 66.7,118 85.8,118.9 100,118.2 122.6,117.5 134.4,118.7 162.3,119 152.8,115.3 167.9,116.5 172.5,117.4 
		192.2,118.9 219.4,116.6 236.1,116.6 261.3,117.6 289.7,115.1 298.2,119.1 310.8,118.4 336.7,118.6 356.7,120 404.3,117.8 
		380.5,121.5 429.6,119.5 454.4,116.8 449.7,120.1 481.8,116.8 501.5,119.7 540.8,119.4 530.6,122.4 577.1,119.1 604,123.7 
		604,13.3 	"/>
	<polygon class="st1" points="590.8,4.3 576.2,5 549.3,4.6 539.1,5.9 519.9,5 505.7,5.7 483,6.4 471.2,5.1 443.1,4.9 446.6,7 
		437.5,7.4 432.9,6.5 413.1,5 385.9,7.3 369.1,7.4 344.2,6 315.4,8.9 306.8,4.7 294.1,5.4 268.2,5.2 242.9,2.7 200.4,6.1 202.5,1.3 
		170.1,3.3 150.1,7.1 148.4,3.1 122.6,7.2 102.8,4.1 63.4,4.4 73.6,1.3 38.1,3.1 0,0 0,117.6 18,116 27.4,116 56.7,116.4 
		66.9,115.1 86.1,116 100.3,115.3 123,114.6 134.8,115.9 162.9,116.1 153.3,112.4 168.5,113.6 173.1,114.5 192.9,116 220.1,113.7 
		236.9,113.6 261.8,115 290.6,112.1 299.2,116.3 311.9,115.6 337.8,115.8 357.9,117.2 405.6,114.9 381.8,118.8 431,116.7 
		455.9,113.9 451.2,117.3 483.4,113.8 503.2,116.9 542.6,116.6 532.4,119.7 579.1,116.2 606,121 606,6.8 	"/>
</g>
<g>
	<path class="st2" d="M270.6,51h-0.2V17.5h11.5l0.2,1.2l1.3,3.5l2.3,12.4v-17h7.1v0.6l1.5,4.1v33.2h-10.8l-1.6-4.4h-0.2l-3-14.3
		v18.6h-6.6L270.6,51z M286.2,43.3L281.5,18h-10.6v32.5h5.9l0.1-25.4v-0.2v0.2l5.3,25.4h10.2V18h-6.2V43.3z M271.8,18.7h-0.2v0.4
		l4.6,5.8l0.4-0.1L271.8,18.7z M271.6,19.5v0.7l4.5,5.6v-0.6L271.6,19.5z M271.6,20.5v0.6l4.5,5.7v-0.7L271.6,20.5z M271.6,21.4v0.7
		l4.5,5.5V27L271.6,21.4z M271.6,22.4V23l4.5,5.7V28L271.6,22.4z M271.6,23.3V24l4.4,5.6c0-0.1,0.1-0.2,0.1-0.3c0-0.1,0-0.2,0-0.3
		L271.6,23.3z M276,29.9l-4.4-5.7V25l4.4,5.5V29.9z M271.6,25.2v0.7l4.4,5.6v-0.7L271.6,25.2z M271.6,26.2v0.6l4.4,5.6v-0.6
		L271.6,26.2z M271.6,27.2v0.6l4.4,5.6v-0.6L271.6,27.2z M271.6,28.1v0.6l4.4,5.6v-0.6L271.6,28.1z M271.6,29.1v0.7l4.4,5.6v-0.7
		L271.6,29.1z M271.6,30.1v0.6l4.4,5.6v-0.7L271.6,30.1z M271.6,31v0.7l4.4,5.6v-0.7L271.6,31z M271.6,32v0.7l4.4,5.5v-0.7L271.6,32
		z M271.6,33v0.6l4.4,5.6v-0.6L271.6,33z M271.6,33.9v0.6l4.4,5.6v-0.7L271.6,33.9z M276,40.5l-4.4-5.5v0.6l4.4,5.6V40.5z
		 M271.6,35.8v0.6L276,42v-0.6L271.6,35.8z M271.6,36.8v0.7L276,43v-0.6L271.6,36.8z M271.6,37.8v0.7L276,44v-0.6L271.6,37.8z
		 M271.6,38.7v0.7l4.4,5.5v-0.6L271.6,38.7z M271.6,39.7v0.7l4.4,5.5v-0.7L271.6,39.7z M271.6,40.7v0.6l4.4,5.5v-0.6L271.6,40.7z
		 M271.6,41.6v0.7l4.4,5.5v-0.7L271.6,41.6z M271.6,42.6v0.6l4.4,5.6v-0.7L271.6,42.6z M271.6,43.5v0.6l4.4,5.5v-0.6L271.6,43.5z
		 M271.6,44.4v0.7l3.6,4.5h0.6L271.6,44.4z M271.6,45.4v0.7l2.9,3.6h0.6L271.6,45.4z M271.6,46.5V47l2.1,2.7h0.6L271.6,46.5z
		 M271.6,47.4V48l1.3,1.7h0.5L271.6,47.4z M271.6,48.4V49l0.6,0.7h0.6L271.6,48.4z M271.6,49.3v0.4h0.3L271.6,49.3z M272.6,18.7H272
		l4.9,6.2l0.6,0.1l0.1,0.8l5.9,7.3l-0.2-0.8L272.6,18.7z M273.2,18.7h-0.4l10.5,13.1l-0.1-0.8L273.2,18.7z M274,18.7h-0.4l9.5,11.8
		l-0.2-0.8L274,18.7z M274.8,18.7h-0.4l8.5,10.6l-0.2-0.9L274.8,18.7z M275.6,18.7h-0.6l7.5,9.4l-0.2-0.8L275.6,18.7z M276.4,18.7
		h-0.5l6.5,8.1l-0.2-0.8L276.4,18.7z M277.2,18.7h-0.6l5.5,6.8l-0.1-0.8L277.2,18.7z M277.9,18.7h-0.6l4.5,5.6l-0.2-0.8L277.9,18.7z
		 M277.8,26.2l0.2,1l5.7,7.1l-0.2-0.8L277.8,26.2z M278,27.6l0.2,0.8l5.7,7.2l-0.1-0.8L278,27.6z M278.7,18.7h-0.5l3.5,4.4l-0.2-0.8
		L278.7,18.7z M278.4,28.9l0.1,0.9l5.7,7.1L284,36L278.4,28.9z M278.6,30.2l0.1,0.8l5.7,7.1l-0.1-0.9L278.6,30.2z M278.8,31.4
		l0.2,0.9l5.5,6.9l-0.2-0.8L278.8,31.4z M279.4,18.7h-0.6l2.5,3.1l-0.1-0.8L279.4,18.7z M279.1,32.8l0.2,0.8l5.5,6.9l-0.2-0.8
		L279.1,32.8z M279.4,34.1l0.2,0.8l5.5,6.9l-0.1-0.8L279.4,34.1z M280.2,18.7h-0.6l1.6,1.8l-0.2-0.8L280.2,18.7z M285.2,42.3
		l-5.5-6.9l0.2,0.8l5.5,6.8L285.2,42.3z M280,36.7l0.2,0.9l9.7,12.2h0.5L280,36.7z M280.2,38l0.2,0.8l8.7,10.9h0.5L280.2,38z
		 M280.5,18.7l0.4,0.6l-0.1-0.6H280.5z M280.5,39.3l0.2,0.8l7.6,9.6h0.6L280.5,39.3z M280.8,40.6l0.2,0.8l6.6,8.3h0.5L280.8,40.6z
		 M281,41.9l0.2,0.9l5.6,6.9h0.4L281,41.9z M281.4,43.2l0.1,0.8l4.6,5.7h0.5L281.4,43.2z M281.6,44.4l0.1,0.9l3.6,4.4h0.5
		L281.6,44.4z M281.8,45.8l0.2,0.9l2.5,3h0.5L281.8,45.8z M282.1,47l0.2,0.9l1.5,1.8h0.4L282.1,47z M282.4,48.4l0.1,0.8l0.4,0.4h0.5
		L282.4,48.4z M286.1,43.4l-0.5,0.1l5,6.3h0.5L286.1,43.4z M286.8,43.4h-0.5l5.1,6.3h0.2v-0.4L286.8,43.4z M287.1,18.7h-0.3V19
		l4.8,5.9v-0.6L287.1,18.7z M286.8,19.4v0.6l4.8,5.9v-0.7L286.8,19.4z M286.8,20.2v0.7l4.8,5.9v-0.7L286.8,20.2z M286.8,21.3v0.6
		l4.8,5.9v-0.6L286.8,21.3z M286.8,22.2v0.6l4.8,5.9v-0.6L286.8,22.2z M286.8,23.2v0.7l4.8,5.9V29L286.8,23.2z M286.8,24.1v0.7
		l4.8,5.8V30L286.8,24.1z M286.8,25v0.7l4.8,5.9v-0.7L286.8,25z M286.8,26.1v0.6l4.8,5.9V32L286.8,26.1z M286.8,27v0.6l4.8,5.9v-0.6
		L286.8,27z M286.8,27.9v0.7l4.8,5.9v-0.7L286.8,27.9z M286.8,28.9v0.6l4.8,5.9v-0.6L286.8,28.9z M286.8,29.9v0.6l4.8,5.9v-0.6
		L286.8,29.9z M286.8,30.8v0.7l4.8,5.9v-0.7L286.8,30.8z M286.8,31.8v0.7l4.8,5.9v-0.7L286.8,31.8z M286.8,32.8v0.6l4.8,5.9v-0.7
		L286.8,32.8z M286.8,33.7v0.6l4.8,5.9v-0.7L286.8,33.7z M286.8,34.7v0.6l4.8,5.9v-0.6L286.8,34.7z M286.8,35.6v0.6l4.8,5.9v-0.7
		L286.8,35.6z M286.8,36.6v0.7l4.8,5.9v-0.6L286.8,36.6z M286.8,37.6v0.7l4.8,5.8v-0.6L286.8,37.6z M286.8,38.6v0.6l4.8,5.9v-0.7
		L286.8,38.6z M286.8,39.5v0.6l4.8,5.9v-0.7L286.8,39.5z M286.8,40.5v0.7l4.8,5.9v-0.7L286.8,40.5z M286.8,41.4V42l4.8,5.9v-0.6
		L286.8,41.4z M286.8,42.4V43l4.8,5.9v-0.6L286.8,42.4z M287.9,18.7h-0.5l4.2,5.2v-0.7L287.9,18.7z M288.7,18.7h-0.5l3.4,4.2v-0.6
		L288.7,18.7z M289.5,18.7H289l2.6,3.3v-0.7L289.5,18.7z M290.2,18.7h-0.5l1.9,2.3v-0.6L290.2,18.7z M291,18.7h-0.5l1.1,1.3v-0.6
		L291,18.7z M291.6,19.1v-0.4h-0.3L291.6,19.1z"/>
	<path class="st2" d="M314.6,17.4V18l1.5,4.1v6h-9.3v2.7h7.3v0.6l1.4,4.1v6.3h-8.7v2.7h7.8v0.6l1.5,4.1v6h-15.8l-1.6-4.4h-0.2V17.4
		H314.6z M298.9,17.9v32.6h15.2v-5.4h-9.4v-8h8.7v-5.8h-8.7v-8.1h9.4v-5.4H298.9z M300.1,18.7h-0.4v0.2l4.3,5.4v-0.6L300.1,18.7z
		 M299.7,19.2v0.6l4.3,5.4v-0.6L299.7,19.2z M299.7,20.1v0.7l4.3,5.4v-0.6L299.7,20.1z M299.7,21.1v0.7l4.3,5.4v-0.7L299.7,21.1z
		 M299.7,22.1v0.6l4.3,5.4v-0.6L299.7,22.1z M299.7,23v0.6l4.3,5.4v-0.7L299.7,23z M299.7,24v0.7l4.3,5.4v-0.7L299.7,24z M299.7,25
		v0.6L304,31v-0.6L299.7,25z M299.7,25.9v0.6L304,32v-0.6L299.7,25.9z M299.7,26.9v0.7l6.9,8.6h0.5L299.7,26.9z M299.7,27.8v0.7
		l6.2,7.7h0.5L299.7,27.8z M299.7,28.8v0.7l5.4,6.7h0.5L299.7,28.8z M299.7,29.8v0.6l4.6,5.8h0.6L299.7,29.8z M299.7,30.7v0.6
		l4.3,5.4v-0.6h0.1L299.7,30.7z M299.7,31.7v0.7l4.3,5.4v-0.7L299.7,31.7z M299.7,32.7v0.6l4.3,5.4v-0.6L299.7,32.7z M299.7,33.6
		v0.7l4.3,5.4V39L299.7,33.6z M299.7,34.5v0.7l4.3,5.4V40L299.7,34.5z M299.7,35.5v0.6l4.3,5.4V41L299.7,35.5z M299.7,36.4v0.6
		l4.3,5.5v-0.7L299.7,36.4z M299.7,37.5v0.6l4.3,5.4v-0.7L299.7,37.5z M299.7,38.4V39l4.3,5.4v-0.6L299.7,38.4z M299.7,39.3V40
		l4.3,5.4v-0.6L299.7,39.3z M299.7,40.4V41l6.9,8.6h0.5L299.7,40.4z M299.7,41.3v0.6l6.2,7.7h0.6L299.7,41.3z M299.7,42.3v0.7
		l5.4,6.7h0.6L299.7,42.3z M299.7,43.3v0.6l4.6,5.7h0.6L299.7,43.3z M299.7,44.2v0.7l3.9,4.8h0.5L299.7,44.2z M299.7,45.2v0.6
		l3.1,3.8h0.6L299.7,45.2z M299.7,46.1v0.6l2.3,2.9h0.6L299.7,46.1z M299.7,47v0.7l1.5,1.8h0.5L299.7,47z M299.7,48v0.7l0.8,0.9h0.4
		L299.7,48z M299.7,49v0.6h0.5L299.7,49z M300.9,18.7h-0.6l3.7,4.6v-0.7L300.9,18.7z M301.6,18.7h-0.5l3.1,3.9h0.6L301.6,18.7z
		 M301.8,18.7l3.2,3.9h0.5l-3.2-3.9H301.8z M303.1,18.7h-0.5l3.2,3.9h0.5L303.1,18.7z M303.9,18.7h-0.4l3.2,3.9h0.5L303.9,18.7z
		 M304.6,32h-0.5l3.4,4.1h0.5L304.6,32z M304.6,18.7h-0.5l3.2,3.9h0.5L304.6,18.7z M304.8,45.7h-0.6l3.2,3.9h0.4L304.8,45.7z
		 M305.4,32h-0.5l3.4,4.1h0.5L305.4,32z M305.4,18.7h-0.5l3.2,3.9h0.5L305.4,18.7z M305.5,45.7H305l3.2,3.9h0.4L305.5,45.7z
		 M306.2,32h-0.5l3.4,4.1h0.4L306.2,32z M306.2,18.7h-0.5l3.2,3.9h0.4L306.2,18.7z M306.3,45.7h-0.6l3.2,3.9h0.5L306.3,45.7z
		 M306.9,32h-0.4l3.3,4.1h0.5L306.9,32z M307,18.7h-0.5l3.1,3.9h0.5L307,18.7z M307.1,45.7h-0.4l3.1,3.9h0.6L307.1,45.7z M307.7,32
		h-0.6l3.4,4.1h0.6L307.7,32z M307.8,18.7h-0.6l3.2,3.9h0.5L307.8,18.7z M307.8,45.7h-0.5l3.1,3.9h0.6L307.8,45.7z M308.5,32H308
		l3.4,4.1h0.6L308.5,32z M308.6,18.7H308l3.2,3.9h0.5L308.6,18.7z M308.6,45.7h-0.5l3.1,3.9h0.6L308.6,45.7z M309.2,32h-0.5l3.4,4.1
		h0.5L309.2,32z M309.4,18.7h-0.6l3.2,3.9h0.4L309.4,18.7z M309.4,45.7h-0.4l3.1,3.9h0.5L309.4,45.7z M310,32h-0.5l3.2,4v-0.6
		L310,32z M310.1,18.7h-0.6l3.2,3.9h0.5L310.1,18.7z M310.1,45.7h-0.5l3.1,3.9h0.5L310.1,45.7z M310.8,32h-0.6l2.4,3.1v-0.6
		L310.8,32z M310.8,18.7h-0.5l3,3.6v-0.6L310.8,18.7z M310.9,45.7h-0.5l2.9,3.6v-0.6L310.9,45.7z M311.5,32H311l1.6,2.1v-0.7
		L311.5,32z M311.6,18.7h-0.4l2.1,2.7v-0.6L311.6,18.7z M311.7,45.7h-0.5l2.1,2.6v-0.6L311.7,45.7z M312.3,32h-0.4l0.8,1.1v-0.6
		L312.3,32z M312.3,18.7h-0.4l1.3,1.7v-0.6L312.3,18.7z M312.4,45.7h-0.5l1.3,1.7v-0.6L312.4,45.7z M312.7,32.2V32h-0.1L312.7,32.2z
		 M313.1,18.7h-0.5l0.7,0.8v-0.6L313.1,18.7z M313.2,45.7h-0.6l0.6,0.7L313.2,45.7L313.2,45.7z"/>
	<path class="st2" d="M326.3,22.2l1.8,14l0.8-4.5c0.4-2.4,0.8-4.8,1.2-7.1c0.4-2.4,0.8-4.7,1.2-7h6.2l0.1,1l1.3,3.6l2.3,14.2
		l2.6-18.9h6.9l-0.1,0.4l1.6,4.3l-4.7,33.2h-8.2l-1.6-4.4h-0.2l-2.2-12.9l-1,6l-1.8,11.3h-8.3l-1.6-4.4h-0.2l-4.5-33.5h6.9l0.1,0.9
		L326.3,22.2z M340.9,42.1L337.1,18h-5.4l-4,24.3L324.4,18h-5.9l4.4,32.5h7.7c0.3-1.8,0.6-3.6,0.9-5.5c0.3-1.8,0.6-3.7,1-5.6
		l1.8-11.1l3.7,22.2h7.7l4.5-32.5h-5.9L340.9,42.1z M319.7,18.7h-0.4c0,0,0,0.1,0,0.1c0,0,0,0.1,0,0.1l5.4,6.8l-0.1-0.8L319.7,18.7z
		 M319.4,19.4l0.2,0.8l5.4,6.7l-0.2-0.8L319.4,19.4z M319.6,20.6c0,0.2,0,0.3,0,0.5c0,0.1,0,0.3,0.1,0.4l5.5,6.8l-0.2-0.8
		L319.6,20.6z M319.7,21.9l0.2,0.8l5.4,6.8l-0.1-0.8L319.7,21.9z M319.9,23.2L320,24l5.4,6.8l-0.2-0.8L319.9,23.2z M320.5,18.7h-0.6
		l4.6,5.7l-0.2-0.9L320.5,18.7z M325.4,31.2l-5.4-6.8c0,0.1,0.1,0.3,0.1,0.4c0,0.1,0,0.3,0,0.4l5.4,6.7L325.4,31.2z M320.3,25.7
		c0,0.1,0.1,0.3,0.1,0.4c0,0.1,0,0.3,0,0.4l5.4,6.7l-0.1-0.8L320.3,25.7z M320.4,27c0,0.1,0,0.3,0,0.4c0,0.1,0,0.3,0.1,0.4l5.4,6.7
		l-0.1-0.8L320.4,27z M320.6,28.3l0.1,0.9l5.4,6.7L326,35L320.6,28.3z M321.4,18.7h-0.6l3.6,4.4l-0.1-0.9L321.4,18.7z M320.8,29.6
		l0.2,0.8l5.3,6.7l-0.1-0.8L320.8,29.6z M321,30.8l0.1,0.9l5.4,6.7l-0.2-0.9L321,30.8z M321.2,32.2c0,0.1,0.1,0.3,0.1,0.4
		c0,0.1,0,0.3,0,0.5l5.3,6.6l-0.1-0.8L321.2,32.2z M321.4,33.4c0,0.2,0.1,0.3,0.1,0.5c0,0.1,0,0.3,0,0.4l5.4,6.7l-0.1-0.9
		L321.4,33.4z M326.9,41.4l-5.3-6.7c0,0.1,0,0.3,0,0.4c0,0.1,0,0.3,0.1,0.5l5.3,6.6L326.9,41.4z M322.2,18.7h-0.6l2.5,3.1l-0.1-0.8
		L322.2,18.7z M321.7,36l0.1,0.9l8.6,10.7c0-0.1,0.1-0.2,0.1-0.3c0-0.1,0-0.2,0.1-0.3L321.7,36z M321.9,37.3l0.2,0.9l8.2,10.2
		c0-0.1,0.1-0.2,0.1-0.3c0-0.1,0-0.2,0.1-0.3L321.9,37.3z M322.1,38.6l0.1,0.9l7.9,9.9c0-0.1,0.1-0.2,0.1-0.3c0-0.1,0-0.2,0.1-0.3
		L322.1,38.6z M322.3,39.9l0.1,0.9l7.1,8.8h0.6L322.3,39.9z M322.5,41.2c0,0.1,0.1,0.3,0.1,0.4c0,0.1,0,0.3,0,0.4l6.1,7.6h0.5
		L322.5,41.2z M323,18.7h-0.5l1.5,1.9l-0.1-0.9L323,18.7z M322.6,42.5c0,0.1,0,0.3,0,0.4c0,0.1,0,0.3,0.1,0.5l5,6.2h0.6L322.6,42.5z
		 M322.8,43.8l0.1,0.8l4,5h0.6L322.8,43.8z M323,45l0.2,0.9l2.9,3.7h0.6L323,45z M323.2,46.3c0,0.2,0.1,0.3,0.1,0.4s0,0.2,0,0.4
		l2,2.5h0.6L323.2,46.3z M323.7,18.7h-0.4l0.6,0.6L323.7,18.7z M323.4,47.6c0,0.1,0,0.3,0,0.4c0,0.1,0,0.3,0.1,0.5l0.9,1.1h0.6
		L323.4,47.6z M323.5,48.9c0,0.1,0.1,0.3,0.1,0.4s0,0.2,0.1,0.3h0.4L323.5,48.9z M327.7,42.4h-0.6l3.5,4.3c0-0.1,0.1-0.2,0.1-0.3
		c0-0.1,0-0.2,0-0.3L327.7,42.4z M328.4,42.3c0,0-0.1,0.1-0.1,0.2h-0.4l2.7,3.4c0-0.1,0.1-0.2,0.1-0.3c0-0.1,0-0.2,0.1-0.3
		L328.4,42.3z M328.5,41.3c-0.1,0.3-0.1,0.5-0.1,0.6l2.4,3c0-0.1,0.1-0.2,0.1-0.3s0-0.2,0.1-0.3L328.5,41.3z M328.7,40.5
		c0,0.1-0.1,0.2-0.1,0.3c0,0.1,0,0.2-0.1,0.3l2.4,3c0-0.1,0-0.2,0-0.3c0-0.1,0-0.2,0.1-0.3L328.7,40.5z M328.8,39.6
		c0,0.1,0,0.2,0,0.3c0,0.1,0,0.2-0.1,0.3l2.4,3c0-0.1,0.1-0.2,0.1-0.3c0-0.1,0-0.2,0.1-0.3L328.8,39.6z M329,38.7
		c0,0.1-0.1,0.2-0.1,0.3c0,0.1,0,0.2-0.1,0.3l2.4,3c0-0.1,0.1-0.2,0.1-0.3c0-0.1,0-0.2,0.1-0.3L329,38.7z M329.1,37.8
		c0,0.1-0.1,0.2-0.1,0.3c0,0.1,0,0.2-0.1,0.3l2.4,3c0-0.1,0.1-0.2,0.1-0.3c0-0.1,0-0.2,0.1-0.4L329.1,37.8z M331.6,40l-2.4-3
		c0,0.1-0.1,0.2-0.1,0.3c0,0.1,0,0.2-0.1,0.3l2.4,3c0-0.1,0.1-0.2,0.1-0.3C331.6,40.1,331.6,40,331.6,40z M329.4,36
		c0,0.1,0,0.2,0,0.3c0,0.1,0,0.2-0.1,0.4l2.4,3c0-0.1,0-0.1,0-0.2c0-0.1,0-0.1,0-0.2l0.1-0.3L329.4,36z M329.5,35.3
		c0,0.1,0,0.3-0.1,0.6l2.4,2.9l0.1-0.5L329.5,35.3z M329.7,34.4l-0.2,0.6l2.4,3l0.1-0.6L329.7,34.4z M329.9,33.4
		c0,0.1-0.1,0.3-0.1,0.4c0,0.1,0,0.2,0,0.3l2.3,3l0.1-0.7L329.9,33.4z M330,32.6c-0.1,0.3-0.1,0.4-0.1,0.5l2.4,3l0.1-0.5L330,32.6z
		 M330.2,31.7c-0.1,0.3-0.1,0.5-0.1,0.6l2.4,3l0.1-0.6L330.2,31.7z M330.3,30.8c0,0.1-0.1,0.2-0.1,0.3c0,0.1,0,0.2,0,0.3l2.3,3
		l0.1-0.6L330.3,30.8z M330.5,30c0,0.1-0.1,0.2-0.1,0.3c0,0.1,0,0.2-0.1,0.3l2.4,2.9l0.1-0.5L330.5,30z M330.6,29.1
		c0,0.1,0,0.4-0.1,0.6l2.3,3l0.1-0.6L330.6,29.1z M333.2,31.2l-2.5-2.9c0,0.1,0,0.3-0.1,0.6l2.4,3L333.2,31.2z M330.9,27.4
		c0,0.1,0,0.3-0.1,0.5l2.5,2.9l0.1-0.5L330.9,27.4z M331,26.5c0,0.3-0.1,0.5-0.1,0.6l2.4,3l0.1-0.6L331,26.5z M331.2,25.6
		c-0.1,0.3-0.1,0.4-0.1,0.6l2.4,3l0.1-0.6L331.2,25.6z M331.4,24.8c-0.1,0.2-0.1,0.4-0.1,0.6l2.3,2.9l0.1-0.3h0.3L331.4,24.8z
		 M331.5,23.9c0,0.1-0.1,0.2-0.1,0.3c0,0.1,0,0.2-0.1,0.4l2.7,3.4h0.6L331.5,23.9z M331.6,23c0,0.1-0.1,0.2-0.1,0.3
		c0,0.1,0,0.2-0.1,0.3l7.1,8.8l-0.2-0.8L331.6,23z M331.8,22.1c0,0.1-0.1,0.2-0.1,0.3c0,0.1,0,0.2,0,0.3l6.7,8.3l-0.1-0.8
		L331.8,22.1z M331.9,21.3c0,0.1-0.1,0.2-0.1,0.3c0,0.1,0,0.2-0.1,0.3l6.4,7.9l-0.2-0.9L331.9,21.3z M332.1,20.4
		c0,0.1-0.1,0.2-0.1,0.3c0,0.1,0,0.2-0.1,0.3l6,7.4l-0.2-0.8L332.1,20.4z M332.2,19.5c0,0.1,0,0.4-0.1,0.6l5.7,7.1l-0.2-1
		L332.2,19.5z M332.4,18.7L332.4,18.7c-0.1,0-0.1,0.1-0.1,0.2c0,0.1,0,0.2-0.1,0.3l5.3,6.6l-0.2-0.8L332.4,18.7z M333.2,18.7h-0.6
		l4.6,5.8l-0.1-0.9L333.2,18.7z M334,18.7h-0.6l3.6,4.5l-0.2-1L334,18.7z M334.9,18.7h-0.6l2.5,3.1l-0.1-0.9L334.9,18.7z
		 M335.1,28.3l0.2,0.9l3.6,4.5l-0.1-0.9L335.1,28.3z M335.8,18.7h-0.6l1.4,1.8l-0.2-1L335.8,18.7z M335.3,29.7l0.1,0.8l3.6,4.6
		l-0.2-0.9L335.3,29.7z M335.5,30.9l0.2,1l3.5,4.5l-0.2-0.8L335.5,30.9z M335.7,32.3l0.1,0.8l3.6,4.5l-0.1-0.9L335.7,32.3z
		 M336,33.6l0.2,0.9l3.5,4.5l-0.2-0.8L336,33.6z M336.1,18.7l0.4,0.4l-0.1-0.4H336.1z M336.1,35l0.1,0.9l3.6,4.5l-0.1-0.9L336.1,35z
		 M339.9,40.8l-3.6-4.5l0.1,0.8l3.6,4.5L339.9,40.8z M340.2,42.3L340.2,42.3l-0.1-0.1l-3.6-4.5l0.2,0.9l8.3,10.4
		c0-0.1,0.1-0.2,0.1-0.3c0-0.1,0-0.2,0.1-0.3L340.2,42.3z M336.8,39l0.1,0.9l7.8,9.7h0.2c0,0,0-0.1,0-0.1c0-0.1,0-0.1,0-0.2
		L336.8,39z M337,40.3l0.2,0.9l6.7,8.4h0.6L337,40.3z M337.2,41.6l0.1,1l5.7,7.1h0.6L337.2,41.6z M337.5,43l0.1,0.9l4.5,5.7h0.6
		L337.5,43z M337.6,44.3l0.2,0.9l3.5,4.4h0.6L337.6,44.3z M337.9,45.6l0.1,0.9l2.5,3.1h0.6L337.9,45.6z M338.1,47l0.2,0.8l1.3,1.8
		h0.6L338.1,47z M338.4,48.3l0.1,0.9l0.3,0.4h0.6L338.4,48.3z M341.1,42.3h-0.6l4.6,5.8c0-0.1,0-0.3,0-0.4c0-0.1,0-0.2,0-0.3
		L341.1,42.3z M341.6,41.8l-0.1,0.4h-0.2l3.9,4.9c0-0.1,0-0.2,0-0.3c0-0.1,0-0.2,0.1-0.3L341.6,41.8z M341.7,40.9l-0.1,0.6l3.8,4.8
		c0-0.2,0-0.4,0.1-0.7L341.7,40.9z M341.8,40l-0.1,0.6l3.8,4.8c0.1-0.3,0.1-0.5,0.1-0.6L341.8,40z M341.9,39.1l-0.1,0.6l3.9,4.8
		c0-0.1,0-0.2,0-0.3c0-0.1,0-0.2,0.1-0.3L341.9,39.1z M342.1,38.2l-0.1,0.6l3.8,4.8c0-0.1,0-0.2,0-0.3c0-0.1,0-0.2,0-0.3L342.1,38.2
		z M342.2,37.3l-0.1,0.6l3.8,4.7c0-0.1,0.1-0.2,0.1-0.3c0-0.1,0-0.2,0.1-0.3L342.2,37.3z M342.3,36.4l-0.1,0.6l3.8,4.7
		c0-0.1,0.1-0.2,0.1-0.3c0-0.1,0-0.1,0.1-0.2L342.3,36.4z M342.4,35.5l-0.1,0.6l3.9,4.8c0-0.1,0-0.2,0-0.3c0-0.1,0-0.2,0-0.3
		L342.4,35.5z M342.6,34.5l-0.1,0.7l3.9,4.8c0-0.1,0.1-0.3,0.1-0.4c0-0.1,0-0.2,0.1-0.3L342.6,34.5z M342.7,33.6l-0.1,0.6l3.8,4.8
		c0-0.1,0.1-0.2,0.1-0.3c0-0.1,0-0.2,0.1-0.3L342.7,33.6z M342.8,32.7l-0.1,0.6l3.9,4.8c0-0.1,0-0.2,0-0.3c0-0.1,0-0.2,0-0.4
		L342.8,32.7z M343,31.8l-0.1,0.6l3.9,4.8c0.1-0.3,0.1-0.4,0.1-0.6L343,31.8z M343.1,30.9l-0.1,0.6l3.8,4.8c0-0.1,0.1-0.2,0.1-0.3
		c0-0.1,0-0.2,0.1-0.3L343.1,30.9z M343.2,30.1l-0.1,0.5l3.9,4.8c0-0.1,0-0.3,0.1-0.6L343.2,30.1z M343.3,29.2l-0.1,0.6l3.9,4.8
		c0-0.1,0-0.2,0-0.3c0-0.1,0-0.2,0-0.3L343.3,29.2z M343.5,28.3l-0.1,0.6l3.8,4.8c0-0.1,0.1-0.2,0.1-0.3s0-0.2,0.1-0.2L343.5,28.3z
		 M343.6,27.4l-0.1,0.6l3.9,4.8c0-0.1,0-0.2,0-0.3c0-0.1,0-0.2,0.1-0.4L343.6,27.4z M343.7,26.5l-0.1,0.6l3.8,4.8
		c0-0.3,0.1-0.5,0.1-0.6L343.7,26.5z M343.8,25.5l-0.1,0.6l3.8,4.8c0-0.1,0.1-0.2,0.1-0.3c0-0.1,0-0.2,0.1-0.3L343.8,25.5z
		 M344,24.7l-0.1,0.6l3.9,4.9c0-0.2,0-0.4,0.1-0.7L344,24.7z M344.1,23.7l-0.1,0.6l3.8,4.8c0-0.1,0.1-0.2,0.1-0.3s0-0.2,0-0.3
		L344.1,23.7z M344.2,22.8l-0.1,0.7l3.8,4.8c0-0.1,0.1-0.2,0.1-0.3s0-0.2,0.1-0.3L344.2,22.8z M344.4,21.9l-0.1,0.6l3.9,4.9
		c0-0.1,0-0.2,0-0.3c0-0.1,0-0.2,0.1-0.3L344.4,21.9z M344.4,21l-0.1,0.7l3.9,4.8c0-0.3,0.1-0.5,0.1-0.6L344.4,21z M344.5,20.1
		l-0.1,0.6l3.9,4.8c0-0.1,0.1-0.2,0.1-0.3c0-0.1,0-0.2,0.1-0.3L344.5,20.1z M344.6,19.2l-0.1,0.6l3.9,4.9c0-0.1,0-0.4,0.1-0.6
		L344.6,19.2z M345.1,18.7h-0.3l-0.1,0.2l3.9,4.9c0-0.1,0-0.3,0-0.4c0-0.1,0-0.2,0-0.3L345.1,18.7z M345.9,18.7h-0.6l3.4,4.1
		c0-0.1,0.1-0.2,0.1-0.3c0-0.1,0-0.2,0.1-0.3L345.9,18.7z M346.8,18.7h-0.6l2.7,3.3c0-0.1,0-0.3,0-0.4c0-0.1,0-0.2,0-0.3L346.8,18.7
		z M347.6,18.7h-0.5L349,21c0-0.1,0-0.2,0-0.3c0-0.1,0-0.2,0.1-0.3L347.6,18.7z M348.5,18.7h-0.6l1.2,1.5c0-0.2,0-0.4,0.1-0.7
		L348.5,18.7z M349.2,19.2c0.1-0.3,0.1-0.4,0.1-0.6h-0.6L349.2,19.2z"/>
	<path class="st2" d="M354.9,30.9c-0.8-1.5-1.2-3-1.2-4.6v-1.3c0-5,3.2-7.4,9.5-7.4h0.4c3.1,0,5.9,0.8,8.3,2.4v0.5l1.5,4.1v6.3
		c-2.7-1.8-5.6-2.7-8.6-2.7c-1.2,0-2,0.4-2.4,1.1l5.8,4c2.4,1.7,3.8,3.9,4.3,6.7l1,2.6v-0.1l0.1,0.2c0.4,1.1,0.6,2.4,0.6,3.8v1.8
		c0,4.8-3.1,7.2-9.3,7.2l-0.4-0.1c-3,0-5.8-0.7-8.2-2.2l-1.5-4.3l-0.3-0.2V42c2.9,1.8,5.8,2.7,8.8,2.7c1.4,0,2.2-0.5,2.5-1.6L360,39
		c-1.9-1.3-3.2-3-4-5l-0.2-0.6L354.9,30.9z M361.1,28.7c-0.6-0.4-0.9-1.1-0.9-2.1v-0.6c0-1.9,1-2.9,3-2.9c3.2,0,6,0.8,8.3,2.4v-5.5
		c-1.1-0.7-2.3-1.2-3.6-1.6c-1.3-0.4-2.7-0.6-4.2-0.6h-0.4c-6,0-9,2.3-9,6.9v1.3c0,1.6,0.4,3.1,1.2,4.5c0.8,1.4,1.9,2.5,3.2,3.4
		l6.7,4.8c0.6,0.4,0.9,1.2,0.9,2.1v1.2c0,1.9-1,2.9-3,2.9c-3.1,0-5.9-0.7-8.3-2.2v5.5c2.3,1.3,5,2,8,2l0.3,0.1c6,0,9-2.3,9-6.8v-1.9
		c0-3.7-1.4-6.5-4.3-8.4L361.1,28.7z M354.4,29.5c0,0,0,0.1,0.1,0.3L354.4,29.5z M354.9,23.7c0,0.1,0,0.2,0,0.3c0,0.1,0,0.2,0,0.3
		l16.5,20.6c0-0.1,0.1-0.2,0.1-0.3c0-0.1,0-0.2,0.1-0.3L354.9,23.7z M354.8,24.6v0.3v0.2L365,37.9l0.6,0.4c0.5,0.4,0.9,0.9,1.1,1.7
		l4.5,5.5c0,0,0-0.1,0-0.2c0-0.1,0-0.2,0-0.2L354.8,24.6z M354.8,25.5v0.7l8.4,10.5l1.2,0.9L354.8,25.5z M354.8,26.5
		c0,0.3,0,0.5,0.1,0.7l6.6,8.2l1.2,0.8L354.8,26.5z M355.1,22.9c0,0.1-0.1,0.2-0.1,0.3c0,0.1,0,0.2-0.1,0.3l16.5,20.7
		c0-0.1,0-0.2,0-0.3c0-0.1,0-0.1,0-0.2v-0.2L355.1,22.9z M354.9,27.6c0,0.1,0.1,0.2,0.1,0.4c0,0.1,0,0.3,0.1,0.4l4.5,5.6l1.2,0.9
		L354.9,27.6z M361.4,29.8l-0.7-0.5c-0.6-0.4-0.9-1-1.1-1.8l-4.2-5.3c-0.1,0.1-0.1,0.3-0.2,0.4l16.4,20.4v-0.6L361.4,29.8z
		 M355.3,29c0.1,0.6,0.4,1.1,0.9,1.7l1.2,1.6c0.2,0.2,0.5,0.4,0.7,0.6c0.2,0.2,0.5,0.4,0.8,0.6l0.1,0.1L355.3,29z M359.5,26.6v-0.2
		l-3.9-4.7c-0.1,0-0.1,0.2-0.2,0.4l4,5V26.6z M355.6,47.6v0.2l0.3,0.2L355.6,47.6z M356.1,44.3c-0.1-0.1-0.1-0.1-0.2-0.1
		c-0.1,0-0.1,0-0.2,0v0.3l3.9,4.9c0.1,0,0.4,0,0.6,0.1L356.1,44.3z M355.7,44.8v0.6l3,3.8c0.1,0,0.2,0.1,0.3,0.1
		c0.1,0,0.2,0,0.3,0.1L355.7,44.8z M355.7,45.7v0.6l1.9,2.5c0.3,0.1,0.6,0.2,0.7,0.2L355.7,45.7z M355.7,46.7v0.6l0.8,1
		c0.3,0.2,0.5,0.3,0.8,0.4L355.7,46.7z M355.9,21.1c0,0.1-0.1,0.1-0.1,0.2c0,0-0.1,0.1-0.1,0.2l3.8,4.6v-0.6L355.9,21.1z
		 M356.4,20.6l-0.3,0.3l3.4,4.2c0-0.1,0-0.2,0-0.3s0-0.1,0.1-0.2L356.4,20.6z M357.2,44.8c-0.1-0.1-0.3-0.1-0.4-0.2
		c-0.1,0-0.3-0.1-0.4-0.1l4,5c0.1,0,0.2,0,0.3,0c0.1,0,0.2,0,0.3,0L357.2,44.8z M356.9,20.2c-0.1,0.1-0.1,0.1-0.2,0.2
		c-0.1,0-0.1,0.1-0.1,0.1l3.1,4c0.1-0.2,0.1-0.3,0.2-0.4L356.9,20.2z M357.3,19.9c-0.1,0-0.2,0.1-0.3,0.3l2.9,3.7
		c0.1-0.1,0.1-0.1,0.1-0.2c0-0.1,0.1-0.1,0.1-0.1L357.3,19.9z M357.8,19.6c-0.1,0-0.1,0.1-0.2,0.1c0,0-0.1,0.1-0.1,0.1l2.7,3.5
		c0.1-0.1,0.1-0.1,0.2-0.1c0.1,0,0.1,0,0.1-0.1L357.8,19.6z M358.2,45.2c-0.1-0.1-0.2-0.1-0.4-0.1c-0.1,0-0.2-0.1-0.3-0.1l3.8,4.7
		c0.1,0,0.2,0,0.5,0L358.2,45.2z M358.4,19.4c0,0-0.1,0.1-0.2,0.1c-0.1,0-0.1,0-0.2,0l2.7,3.5c0.1-0.1,0.2-0.2,0.4-0.2L358.4,19.4z
		 M359.2,45.4c-0.1,0-0.2-0.1-0.3-0.1c-0.1,0-0.2,0-0.3-0.1l3.5,4.4c0.1,0,0.2,0,0.3,0c0.1,0,0.2,0,0.3,0L359.2,45.4z M359.1,19.2
		l-0.4,0.2l2.7,3.4c0.2-0.1,0.4-0.1,0.4-0.1L359.1,19.2z M359.7,19.1c-0.1,0-0.2,0.1-0.2,0.1c-0.1,0-0.1,0-0.2,0.1l2.8,3.4
		c0,0,0.1-0.1,0.2-0.1c0.1,0,0.2,0,0.3-0.1L359.7,19.1z M360.2,45.6c-0.2,0-0.4-0.1-0.7-0.2l3.4,4.2h0.3h0.2L360.2,45.6z
		 M360.3,18.9c0,0,0,0.1-0.1,0.1c-0.1,0-0.2,0-0.3,0.1l2.9,3.5h0.4L360.3,18.9z M361,45.7c-0.1,0-0.3,0-0.6-0.1l3.2,4h0.5L361,45.7z
		 M361,18.8c0,0-0.1,0-0.2,0c-0.1,0-0.2,0-0.2,0l2.9,3.6h0.5L361,18.8z M361.8,18.8h-0.5l3,3.7c0.1,0,0.2,0,0.3,0c0.1,0,0.2,0,0.3,0
		L361.8,18.8z M361.8,45.8c-0.1,0-0.3-0.1-0.5-0.1l3.1,3.9c0.1,0,0.2,0,0.3,0c0.1,0,0.1,0,0.2,0L361.8,45.8z M362.5,18.7H362
		l3.1,3.8c0.1,0,0.2,0.1,0.3,0.1c0.1,0,0.2,0,0.3,0.1L362.5,18.7z M362,30.2l9.5,11.9v-0.3c0-0.2,0-0.3-0.1-0.4l-8.2-10.4L362,30.2z
		 M362.7,45.8h-0.6l3,3.8c0.1,0,0.2,0,0.3,0c0.1,0,0.1,0,0.2-0.1L362.7,45.8z M363.2,18.7L363.2,18.7h-0.4l3.1,4
		c0.1,0,0.3,0,0.6,0.1L363.2,18.7z M363.4,45.8c0,0-0.1,0.1-0.2,0.1h-0.3l2.9,3.7c0.1,0,0.1-0.1,0.2-0.1c0.1,0,0.1,0,0.2-0.1
		L363.4,45.8z M364,18.7h-0.4h-0.1l3.3,4.1c0.1,0,0.3,0.1,0.6,0.2L364,18.7z M364.1,45.7c-0.1,0-0.3,0.1-0.5,0.1l2.9,3.6
		c0.1,0,0.2,0,0.4-0.1L364.1,45.7z M365.1,32.5l-1.3-0.9l7.7,9.6c0-0.1,0-0.3,0-0.4c0-0.1,0-0.2,0-0.3L365.1,32.5z M364.8,18.8
		c-0.1,0-0.3-0.1-0.6-0.1l3.5,4.4c0.1,0,0.2,0.1,0.4,0.1c0.1,0,0.2,0,0.3,0.1L364.8,18.8z M364.8,45.6c-0.2,0-0.3,0.1-0.4,0.1
		l2.8,3.6c0,0,0.1-0.1,0.2-0.1c0.1,0,0.1,0,0.2-0.1L364.8,45.6z M365.4,45.3c-0.1,0-0.3,0.1-0.4,0.2l2.7,3.5l0.4-0.1L365.4,45.3z
		 M365.7,18.8c-0.1,0-0.2,0-0.3,0s-0.2,0-0.2,0l3.6,4.6l0.7,0.3L365.7,18.8z M365.8,45c0,0-0.1,0.1-0.3,0.2l2.8,3.6
		c0.1,0,0.1-0.1,0.2-0.1c0,0,0.1-0.1,0.2-0.1L365.8,45z M366.9,33.7l-1.2-0.8l5.7,7.2c0-0.2-0.1-0.4-0.1-0.5c0-0.1,0-0.3-0.1-0.4
		L366.9,33.7z M366.5,19c-0.1,0-0.2,0-0.2,0c-0.1,0-0.2,0-0.4-0.1l4,5.1c0.1,0,0.2,0.1,0.4,0.2c0.1,0.1,0.3,0.1,0.4,0.2v-0.1
		L366.5,19z M366.2,44.5c-0.1,0.1-0.2,0.2-0.3,0.4l2.9,3.6c0.1,0,0.1-0.1,0.2-0.1c0,0,0.1-0.1,0.2-0.1L366.2,44.5z M366.5,44
		c0,0.1-0.1,0.3-0.2,0.4l3.1,3.8c0,0,0.1-0.1,0.3-0.3L366.5,44z M366.8,43.3c0,0.1-0.1,0.2-0.1,0.3c0,0.1,0,0.2-0.1,0.3l3.2,4
		l0.3-0.3L366.8,43.3z M366.8,42.4c0,0.1,0,0.2,0,0.3c0,0.1,0,0.2-0.1,0.3l3.5,4.3c0.1-0.1,0.2-0.3,0.3-0.3L366.8,42.4z M367.4,19.2
		c-0.3,0-0.5-0.1-0.6-0.1l3.9,4.8v-0.7L367.4,19.2z M366.8,40.5c0,0.1,0,0.2,0,0.3c0,0.1,0,0.2,0,0.3v0.1l4.1,5.2
		c0.1-0.1,0.1-0.3,0.2-0.4L366.8,40.5z M366.8,41.5v0.6l3.8,4.8c0,0,0.1-0.1,0.1-0.1c0-0.1,0.1-0.1,0.1-0.2L366.8,41.5z M368.7,35.2
		c-0.3-0.3-0.7-0.7-1.2-1l3.5,4.4c0-0.2-0.1-0.5-0.3-0.7c-0.1-0.2-0.3-0.5-0.4-0.7L368.7,35.2z M368.5,19.5c-0.1,0-0.4-0.1-0.7-0.2
		l3,3.6v-0.6L368.5,19.5z M369.6,19.9c-0.1-0.1-0.2-0.1-0.4-0.2c-0.1,0-0.3-0.1-0.4-0.2l2,2.4v-0.6L369.6,19.9z M370.7,21v-0.6
		c-0.1-0.1-0.3-0.1-0.4-0.2s-0.2-0.1-0.4-0.2L370.7,21z"/>
	<path class="st2" d="M382.9,18l1.5,4.1v22.6h6.4v0.6l1.5,4.1v6h-14.8l-1.6-4.4h-0.2V17.4h7.2V18z M382.4,17.9h-6.2v32.6h14.1v-5.3
		h-7.9V17.9z M377.1,19v0.6l4.5,5.8v-0.6L377.1,19z M377.1,19.9v0.7l4.5,5.7v-0.6L377.1,19.9z M377.1,20.9v0.6l4.5,5.7v-0.6
		L377.1,20.9z M377.1,21.9v0.6l4.5,5.8v-0.6L377.1,21.9z M377.1,22.8v0.7l4.5,5.7v-0.7L377.1,22.8z M377.1,23.8v0.7l4.5,5.7v-0.7
		L377.1,23.8z M377.1,24.7v0.6l4.5,5.8v-0.7L377.1,24.7z M377.1,25.7v0.6l4.5,5.7v-0.6L377.1,25.7z M377.1,26.7v0.6l4.5,5.8v-0.7
		L377.1,26.7z M377.1,27.6v0.7l4.5,5.7v-0.6L377.1,27.6z M377.1,28.6v0.6l4.5,5.7v-0.6L377.1,28.6z M377.1,29.5v0.7l4.5,5.7v-0.6
		L377.1,29.5z M377.1,30.5v0.7l4.5,5.7v-0.7L377.1,30.5z M377.1,31.4v0.7l4.5,5.7v-0.7L377.1,31.4z M377.1,32.5v0.6l4.5,5.7v-0.6
		L377.1,32.5z M377.1,33.4V34l4.5,5.7v-0.6L377.1,33.4z M377.1,34.4V35l4.5,5.8v-0.7L377.1,34.4z M377.1,35.3v0.6l4.5,5.7v-0.6
		L377.1,35.3z M377.1,36.3v0.7l4.5,5.7V42L377.1,36.3z M377.1,37.2v0.7l4.5,5.8V43L377.1,37.2z M377.1,38.2v0.6l4.5,5.7v-0.6
		L377.1,38.2z M377.1,39.2v0.6l4.5,5.8v-0.7L377.1,39.2z M377.1,40.1v0.7l7.1,8.9h0.6L377.1,40.1z M377.1,41.1v0.6l6.4,8h0.5
		L377.1,41.1z M377.1,42v0.6l5.6,7.1h0.6L377.1,42z M377.1,43v0.7l4.8,6h0.5L377.1,43z M377.1,44v0.6l4.2,5.1h0.4L377.1,44z
		 M377.1,44.9v0.7l3.3,4.1h0.5L377.1,44.9z M377.1,46v0.6l2.5,3.1h0.5L377.1,46z M377.1,46.8v0.6l1.7,2.2h0.5L377.1,46.8z
		 M377.1,47.8v0.7l1,1.2h0.5L377.1,47.8z M377.1,48.8v0.6l0.2,0.3h0.6L377.1,48.8z M377.6,18.7h-0.5l4.5,5.7v-0.7L377.6,18.7z
		 M378.4,18.7h-0.5l3.7,4.7v-0.7L378.4,18.7z M379.1,18.7h-0.5l3,3.7v-0.6L379.1,18.7z M380,18.7h-0.6l2.2,2.7v-0.6L380,18.7z
		 M380.8,18.7h-0.6l1.4,1.8v-0.7L380.8,18.7z M381.5,18.7H381l0.6,0.8V19L381.5,18.7z M382.3,45.8h-0.5l3.1,3.9h0.6L382.3,45.8z
		 M383.1,45.8h-0.5l3.1,3.9h0.6L383.1,45.8z M383.9,45.8h-0.6l3.2,3.9h0.5L383.9,45.8z M384.7,45.8h-0.6l3.2,3.9h0.5L384.7,45.8z
		 M385.5,45.8h-0.6l3.2,3.9h0.4L385.5,45.8z M386.3,45.8h-0.6l3.2,3.9h0.4L386.3,45.8z M387,45.8h-0.5l3,3.8V49L387,45.8z
		 M387.8,45.8h-0.6l2.3,2.8V48L387.8,45.8z M388.6,45.8H388l1.5,1.8V47L388.6,45.8z M389.3,45.8h-0.4l0.7,0.9v-0.6L389.3,45.8z"/>
	<path class="st2" d="M411,17.4V18l1.5,4.1v6h-9.3v2.7h7.3v0.6l1.4,4.1v6.3h-8.7v2.7h7.8v0.6l1.5,4.1v6h-15.8l-1.6-4.4h-0.2V17.4
		H411z M395.4,17.9v32.6h15.2v-5.4h-9.4v-8h8.7v-5.8h-8.7v-8.1h9.4v-5.4H395.4z M396.6,18.7h-0.4v0.2l4.3,5.4v-0.6L396.6,18.7z
		 M396.2,19.2v0.6l4.3,5.4v-0.6L396.2,19.2z M396.2,20.1v0.7l4.3,5.4v-0.6L396.2,20.1z M396.2,21.1v0.7l4.3,5.4v-0.7L396.2,21.1z
		 M396.2,22.1v0.6l4.3,5.4v-0.6L396.2,22.1z M396.2,23v0.6l4.3,5.4v-0.7L396.2,23z M396.2,24v0.7l4.3,5.4v-0.7L396.2,24z M396.2,25
		v0.6l4.3,5.4v-0.6L396.2,25z M396.2,25.9v0.6l4.3,5.4v-0.6L396.2,25.9z M396.2,26.9v0.7l6.9,8.6h0.5L396.2,26.9z M396.2,27.8v0.7
		l6.2,7.7h0.5L396.2,27.8z M396.2,28.8v0.7l5.4,6.7h0.5L396.2,28.8z M396.2,29.8v0.6l4.6,5.8h0.6L396.2,29.8z M396.2,30.7v0.6
		l4.3,5.4v-0.6h0.1L396.2,30.7z M396.2,31.7v0.7l4.3,5.4v-0.7L396.2,31.7z M396.2,32.7v0.6l4.3,5.4v-0.6L396.2,32.7z M396.2,33.6
		v0.7l4.3,5.4V39L396.2,33.6z M396.2,34.5v0.7l4.3,5.4V40L396.2,34.5z M396.2,35.5v0.6l4.3,5.4V41L396.2,35.5z M396.2,36.4v0.6
		l4.3,5.5v-0.7L396.2,36.4z M396.2,37.5v0.6l4.3,5.4v-0.7L396.2,37.5z M396.2,38.4V39l4.3,5.4v-0.6L396.2,38.4z M396.2,39.3V40
		l4.3,5.4v-0.6L396.2,39.3z M396.2,40.4V41l6.9,8.6h0.5L396.2,40.4z M396.2,41.3v0.6l6.2,7.7h0.6L396.2,41.3z M396.2,42.3v0.7
		l5.4,6.7h0.6L396.2,42.3z M396.2,43.3v0.6l4.6,5.7h0.6L396.2,43.3z M396.2,44.2v0.7l3.9,4.8h0.5L396.2,44.2z M396.2,45.2v0.6
		l3.1,3.8h0.6L396.2,45.2z M396.2,46.1v0.6l2.3,2.9h0.6L396.2,46.1z M396.2,47v0.7l1.5,1.8h0.5L396.2,47z M396.2,48v0.7l0.8,0.9h0.4
		L396.2,48z M396.2,49v0.6h0.5L396.2,49z M397.4,18.7h-0.6l3.7,4.6v-0.7L397.4,18.7z M398.1,18.7h-0.5l3.1,3.9h0.6L398.1,18.7z
		 M398.3,18.7l3.2,3.9h0.5l-3.2-3.9H398.3z M399.6,18.7h-0.5l3.2,3.9h0.5L399.6,18.7z M400.4,18.7h-0.4l3.2,3.9h0.5L400.4,18.7z
		 M401.1,32h-0.5l3.4,4.1h0.5L401.1,32z M401.1,18.7h-0.5l3.2,3.9h0.5L401.1,18.7z M401.2,45.7h-0.6l3.2,3.9h0.4L401.2,45.7z
		 M401.9,32h-0.5l3.4,4.1h0.5L401.9,32z M401.9,18.7h-0.5l3.2,3.9h0.5L401.9,18.7z M402,45.7h-0.6l3.2,3.9h0.4L402,45.7z M402.6,32
		h-0.5l3.4,4.1h0.4L402.6,32z M402.7,18.7h-0.5l3.2,3.9h0.4L402.7,18.7z M402.8,45.7h-0.6l3.2,3.9h0.5L402.8,45.7z M403.4,32h-0.4
		l3.3,4.1h0.5L403.4,32z M403.5,18.7H403l3.1,3.9h0.5L403.5,18.7z M403.5,45.7h-0.4l3.1,3.9h0.6L403.5,45.7z M404.2,32h-0.6l3.4,4.1
		h0.6L404.2,32z M404.3,18.7h-0.6l3.2,3.9h0.5L404.3,18.7z M404.3,45.7h-0.5l3.1,3.9h0.6L404.3,45.7z M404.9,32h-0.5l3.4,4.1h0.6
		L404.9,32z M405.1,18.7h-0.6l3.2,3.9h0.5L405.1,18.7z M405.1,45.7h-0.5l3.1,3.9h0.6L405.1,45.7z M405.7,32h-0.5l3.4,4.1h0.5
		L405.7,32z M405.8,18.7h-0.6l3.2,3.9h0.4L405.8,18.7z M405.8,45.7h-0.4l3.1,3.9h0.5L405.8,45.7z M406.5,32H406l3.2,4v-0.6L406.5,32
		z M406.6,18.7H406l3.2,3.9h0.5L406.6,18.7z M406.6,45.7h-0.5l3.1,3.9h0.5L406.6,45.7z M407.3,32h-0.6l2.4,3.1v-0.6L407.3,32z
		 M407.3,18.7h-0.5l3,3.6v-0.6L407.3,18.7z M407.4,45.7h-0.5l2.9,3.6v-0.6L407.4,45.7z M408,32h-0.5l1.6,2.1v-0.7L408,32z
		 M408.1,18.7h-0.4l2.1,2.7v-0.6L408.1,18.7z M408.2,45.7h-0.5l2.1,2.6v-0.6L408.2,45.7z M408.8,32h-0.4l0.8,1.1v-0.6L408.8,32z
		 M408.8,18.7h-0.4l1.3,1.7v-0.6L408.8,18.7z M408.9,45.7h-0.5l1.3,1.7v-0.6L408.9,45.7z M409.1,32.2V32H409L409.1,32.2z
		 M409.6,18.7h-0.5l0.7,0.8v-0.6L409.6,18.7z M409.7,45.7h-0.6l0.6,0.7L409.7,45.7L409.7,45.7z"/>
	<path class="st2" d="M433,17.4V18l1.5,4.1v6.4h-5.7v26.9h-6.6l-1.6-4.4h-0.2V28.5h-4.1l-1.5-4.4h-0.2v-6.7H433z M415.1,17.9v5.7
		h5.8v26.9h5.9V23.6h5.7v-5.7H415.1z M416,18.7v0.6l2.8,3.5h0.5L416,18.7z M416,19.7v0.6l2,2.6h0.6L416,19.7z M416,20.6v0.7l1.2,1.6
		h0.5L416,20.6z M416,21.6v0.6l0.4,0.7h0.5L416,21.6z M416,22.5v0.3h0.2L416,22.5z M416.6,18.6h-0.5l3.4,4.3h0.6L416.6,18.6z
		 M417.4,18.6h-0.6l3.5,4.3h0.5L417.4,18.6z M418.2,18.6h-0.6l3.5,4.3h0.5L418.2,18.6z M418.9,18.6h-0.5l7.7,9.7v-0.7L418.9,18.6z
		 M419.7,18.6h-0.6l7,8.7v-0.7L419.7,18.6z M420.5,18.6H420l6.2,7.7v-0.6L420.5,18.6z M421.2,18.6h-0.4l5.4,6.8v-0.6L421.2,18.6z
		 M422,18.6h-0.4l4.6,5.8v-0.6L422,18.6z M421.6,22.9v0.6l4.5,5.7v-0.7L421.6,22.9z M421.6,23.9v0.7l4.5,5.6v-0.6L421.6,23.9z
		 M421.6,24.8v0.7l4.5,5.6v-0.6L421.6,24.8z M421.6,25.8v0.7l4.5,5.6v-0.6L421.6,25.8z M421.6,26.8v0.7l4.5,5.6v-0.7L421.6,26.8z
		 M421.6,27.8v0.6l4.5,5.6v-0.6L421.6,27.8z M421.6,28.7v0.7l4.5,5.6v-0.7L421.6,28.7z M421.6,29.7v0.6l4.5,5.6v-0.6L421.6,29.7z
		 M421.6,30.6v0.6l4.5,5.7v-0.7L421.6,30.6z M421.6,31.6v0.7l4.5,5.5v-0.6L421.6,31.6z M421.6,32.6v0.6l4.5,5.6v-0.6L421.6,32.6z
		 M421.6,33.5v0.7l4.5,5.5v-0.6L421.6,33.5z M421.6,34.5v0.6l4.5,5.6v-0.7L421.6,34.5z M421.6,35.5V36l4.5,5.7v-0.6L421.6,35.5z
		 M421.6,36.4V37l4.5,5.6V42L421.6,36.4z M421.6,37.4V38l4.5,5.7V43L421.6,37.4z M421.6,38.3V39l4.5,5.6V44L421.6,38.3z M421.6,39.3
		V40l4.5,5.6v-0.7L421.6,39.3z M421.6,40.2v0.7l4.5,5.6v-0.6L421.6,40.2z M421.6,41.2v0.6l4.5,5.5v-0.6L421.6,41.2z M421.6,42.2v0.6
		l4.5,5.7v-0.7L421.6,42.2z M421.6,43.2v0.6l4.5,5.7v-0.7L421.6,43.2z M421.6,44v0.7l3.9,4.9h0.5L421.6,44z M421.6,45.1v0.7l3.1,3.9
		h0.5L421.6,45.1z M421.6,46v0.7l2.4,2.9h0.4L421.6,46z M421.6,47v0.7l1.6,2h0.5L421.6,47z M421.6,48v0.6l0.8,1h0.5L421.6,48z
		 M421.6,48.9v0.6v0.1h0.6L421.6,48.9z M422.7,18.6h-0.5l3.9,4.9v-0.6h0.1L422.7,18.6z M423.5,18.6H423l3.4,4.3h0.6L423.5,18.6z
		 M424.3,18.6h-0.6l3.4,4.3h0.6L424.3,18.6z M425,18.6h-0.6l3.5,4.3h0.6L425,18.6z M425.8,18.6h-0.6l3.5,4.3h0.5L425.8,18.6z
		 M426.6,18.6H426l3.5,4.3h0.4L426.6,18.6z M427.3,18.6h-0.4l3.4,4.3h0.4L427.3,18.6z M428.1,18.6h-0.5l3.4,4.3h0.4L428.1,18.6z
		 M428.9,18.6h-0.5l3.4,4.3h0.1v-0.6L428.9,18.6z M429.7,18.6h-0.5l2.7,3.4v-0.7L429.7,18.6z M430.4,18.6h-0.5l2,2.4v-0.7
		L430.4,18.6z M431.2,18.6h-0.5l1.2,1.5v-0.7L431.2,18.6z M431.8,19.1v-0.5h-0.4L431.8,19.1z"/>
	<path class="st2" d="M454.7,17.4V18l1.5,4.1v6.4h-5.7v26.9h-6.6l-1.6-4.4h-0.2V28.5H438l-1.5-4.4h-0.2v-6.7H454.7z M436.8,17.9v5.7
		h5.8v26.9h5.9V23.6h5.7v-5.7H436.8z M437.6,18.7v0.6l2.8,3.5h0.5L437.6,18.7z M437.6,19.7v0.6l2,2.6h0.6L437.6,19.7z M437.6,20.6
		v0.7l1.2,1.6h0.5L437.6,20.6z M437.6,21.6v0.6l0.4,0.7h0.5L437.6,21.6z M437.6,22.5v0.3h0.2L437.6,22.5z M438.3,18.6h-0.5l3.4,4.3
		h0.6L438.3,18.6z M439,18.6h-0.6l3.5,4.3h0.5L439,18.6z M439.8,18.6h-0.6l3.5,4.3h0.5L439.8,18.6z M440.6,18.6h-0.5l7.7,9.7v-0.7
		L440.6,18.6z M441.3,18.6h-0.6l7,8.7v-0.7L441.3,18.6z M442.1,18.6h-0.5l6.2,7.7v-0.6L442.1,18.6z M442.9,18.6h-0.4l5.4,6.8v-0.6
		L442.9,18.6z M443.6,18.6h-0.4l4.6,5.8v-0.6L443.6,18.6z M443.2,22.9v0.6l4.5,5.7v-0.7L443.2,22.9z M443.2,23.9v0.7l4.5,5.6v-0.6
		L443.2,23.9z M443.2,24.8v0.7l4.5,5.6v-0.6L443.2,24.8z M443.2,25.8v0.7l4.5,5.6v-0.6L443.2,25.8z M443.2,26.8v0.7l4.5,5.6v-0.7
		L443.2,26.8z M443.2,27.8v0.6l4.5,5.6v-0.6L443.2,27.8z M443.2,28.7v0.7l4.5,5.6v-0.7L443.2,28.7z M443.2,29.7v0.6l4.5,5.6v-0.6
		L443.2,29.7z M443.2,30.6v0.6l4.5,5.7v-0.7L443.2,30.6z M443.2,31.6v0.7l4.5,5.5v-0.6L443.2,31.6z M443.2,32.6v0.6l4.5,5.6v-0.6
		L443.2,32.6z M443.2,33.5v0.7l4.5,5.5v-0.6L443.2,33.5z M443.2,34.5v0.6l4.5,5.6v-0.7L443.2,34.5z M443.2,35.5V36l4.5,5.7v-0.6
		L443.2,35.5z M443.2,36.4V37l4.5,5.6V42L443.2,36.4z M443.2,37.4V38l4.5,5.7V43L443.2,37.4z M443.2,38.3V39l4.5,5.6V44L443.2,38.3z
		 M443.2,39.3V40l4.5,5.6v-0.7L443.2,39.3z M443.2,40.2v0.7l4.5,5.6v-0.6L443.2,40.2z M443.2,41.2v0.6l4.5,5.5v-0.6L443.2,41.2z
		 M443.2,42.2v0.6l4.5,5.7v-0.7L443.2,42.2z M443.2,43.2v0.6l4.5,5.7v-0.7L443.2,43.2z M443.2,44v0.7l3.9,4.9h0.5L443.2,44z
		 M443.2,45.1v0.7l3.1,3.9h0.5L443.2,45.1z M443.2,46v0.7l2.4,2.9h0.4L443.2,46z M443.2,47v0.7l1.6,2h0.5L443.2,47z M443.2,48v0.6
		l0.8,1h0.5L443.2,48z M443.2,48.9v0.6v0.1h0.6L443.2,48.9z M444.4,18.6h-0.5l3.9,4.9v-0.6h0.1L444.4,18.6z M445.2,18.6h-0.5
		l3.4,4.3h0.6L445.2,18.6z M446,18.6h-0.6l3.4,4.3h0.6L446,18.6z M446.7,18.6h-0.6l3.5,4.3h0.6L446.7,18.6z M447.5,18.6h-0.6
		l3.5,4.3h0.5L447.5,18.6z M448.2,18.6h-0.6l3.5,4.3h0.4L448.2,18.6z M449,18.6h-0.4l3.4,4.3h0.4L449,18.6z M449.8,18.6h-0.5
		l3.4,4.3h0.4L449.8,18.6z M450.6,18.6h-0.5l3.4,4.3h0.1v-0.6L450.6,18.6z M451.3,18.6h-0.5l2.7,3.4v-0.7L451.3,18.6z M452,18.6
		h-0.5l2,2.4v-0.7L452,18.6z M452.8,18.6h-0.5l1.2,1.5v-0.7L452.8,18.6z M453.5,19.1v-0.5h-0.4L453.5,19.1z"/>
	<path class="st2" d="M474.5,17.4V18l1.5,4.1v6h-9.3v2.7h7.3v0.6l1.4,4.1v6.3h-8.7v2.7h7.8v0.6l1.5,4.1v6h-15.8l-1.6-4.4h-0.2V17.4
		H474.5z M458.9,17.9v32.6h15.2v-5.4h-9.4v-8h8.7v-5.8h-8.7v-8.1h9.4v-5.4H458.9z M460.1,18.7h-0.4v0.2l4.3,5.4v-0.6L460.1,18.7z
		 M459.7,19.2v0.6l4.3,5.4v-0.6L459.7,19.2z M459.7,20.1v0.7l4.3,5.4v-0.6L459.7,20.1z M459.7,21.1v0.7l4.3,5.4v-0.7L459.7,21.1z
		 M459.7,22.1v0.6l4.3,5.4v-0.6L459.7,22.1z M459.7,23v0.6l4.3,5.4v-0.7L459.7,23z M459.7,24v0.7l4.3,5.4v-0.7L459.7,24z M459.7,25
		v0.6L464,31v-0.6L459.7,25z M459.7,25.9v0.6L464,32v-0.6L459.7,25.9z M459.7,26.9v0.7l6.9,8.6h0.5L459.7,26.9z M459.7,27.8v0.7
		l6.2,7.7h0.5L459.7,27.8z M459.7,28.8v0.7l5.4,6.7h0.5L459.7,28.8z M459.7,29.8v0.6l4.6,5.8h0.6L459.7,29.8z M459.7,30.7v0.6
		l4.3,5.4v-0.6h0.1L459.7,30.7z M459.7,31.7v0.7l4.3,5.4v-0.7L459.7,31.7z M459.7,32.7v0.6l4.3,5.4v-0.6L459.7,32.7z M459.7,33.6
		v0.7l4.3,5.4V39L459.7,33.6z M459.7,34.5v0.7l4.3,5.4V40L459.7,34.5z M459.7,35.5v0.6l4.3,5.4V41L459.7,35.5z M459.7,36.4v0.6
		l4.3,5.5v-0.7L459.7,36.4z M459.7,37.5v0.6l4.3,5.4v-0.7L459.7,37.5z M459.7,38.4V39l4.3,5.4v-0.6L459.7,38.4z M459.7,39.3V40
		l4.3,5.4v-0.6L459.7,39.3z M459.7,40.4V41l6.9,8.6h0.5L459.7,40.4z M459.7,41.3v0.6l6.2,7.7h0.6L459.7,41.3z M459.7,42.3v0.7
		l5.4,6.7h0.6L459.7,42.3z M459.7,43.3v0.6l4.6,5.7h0.6L459.7,43.3z M459.7,44.2v0.7l3.9,4.8h0.5L459.7,44.2z M459.7,45.2v0.6
		l3.1,3.8h0.6L459.7,45.2z M459.7,46.1v0.6l2.3,2.9h0.6L459.7,46.1z M459.7,47v0.7l1.5,1.8h0.5L459.7,47z M459.7,48v0.7l0.8,0.9h0.4
		L459.7,48z M459.7,49v0.6h0.5L459.7,49z M460.9,18.7h-0.6l3.7,4.6v-0.7L460.9,18.7z M461.6,18.7h-0.5l3.1,3.9h0.6L461.6,18.7z
		 M461.8,18.7l3.2,3.9h0.5l-3.2-3.9H461.8z M463.1,18.7h-0.5l3.2,3.9h0.5L463.1,18.7z M463.9,18.7h-0.4l3.2,3.9h0.5L463.9,18.7z
		 M464.6,32h-0.5l3.4,4.1h0.5L464.6,32z M464.6,18.7h-0.5l3.2,3.9h0.5L464.6,18.7z M464.7,45.7h-0.6l3.2,3.9h0.4L464.7,45.7z
		 M465.4,32h-0.5l3.4,4.1h0.5L465.4,32z M465.4,18.7h-0.5l3.2,3.9h0.5L465.4,18.7z M465.5,45.7H465l3.2,3.9h0.4L465.5,45.7z
		 M466.1,32h-0.5l3.4,4.1h0.4L466.1,32z M466.2,18.7h-0.5l3.2,3.9h0.4L466.2,18.7z M466.3,45.7h-0.6l3.2,3.9h0.5L466.3,45.7z
		 M466.9,32h-0.4l3.3,4.1h0.5L466.9,32z M467,18.7h-0.5l3.1,3.9h0.5L467,18.7z M467,45.7h-0.4l3.1,3.9h0.6L467,45.7z M467.7,32h-0.6
		l3.4,4.1h0.6L467.7,32z M467.8,18.7h-0.6l3.2,3.9h0.5L467.8,18.7z M467.8,45.7h-0.5l3.1,3.9h0.6L467.8,45.7z M468.4,32h-0.5
		l3.4,4.1h0.6L468.4,32z M468.6,18.7H468l3.2,3.9h0.5L468.6,18.7z M468.6,45.7h-0.5l3.1,3.9h0.6L468.6,45.7z M469.2,32h-0.5l3.4,4.1
		h0.5L469.2,32z M469.3,18.7h-0.6l3.2,3.9h0.4L469.3,18.7z M469.3,45.7h-0.4l3.1,3.9h0.5L469.3,45.7z M470,32h-0.5l3.2,4v-0.6
		L470,32z M470.1,18.7h-0.6l3.2,3.9h0.5L470.1,18.7z M470.1,45.7h-0.5l3.1,3.9h0.5L470.1,45.7z M470.8,32h-0.6l2.4,3.1v-0.6
		L470.8,32z M470.8,18.7h-0.5l3,3.6v-0.6L470.8,18.7z M470.9,45.7h-0.5l2.9,3.6v-0.6L470.9,45.7z M471.5,32H471l1.6,2.1v-0.7
		L471.5,32z M471.6,18.7h-0.4l2.1,2.7v-0.6L471.6,18.7z M471.7,45.7h-0.5l2.1,2.6v-0.6L471.7,45.7z M472.3,32h-0.4l0.8,1.1v-0.6
		L472.3,32z M472.3,18.7h-0.4l1.3,1.7v-0.6L472.3,18.7z M472.4,45.7h-0.5l1.3,1.7v-0.6L472.4,45.7z M472.6,32.2V32h-0.1L472.6,32.2z
		 M473.1,18.7h-0.5l0.7,0.8v-0.6L473.1,18.7z M473.2,45.7h-0.6l0.6,0.7L473.2,45.7L473.2,45.7z"/>
	<path class="st2" d="M487.8,17.4c5.9,0,9.1,1.8,9.5,5.5l1.2,3.2c0.2,0.6,0.3,1.3,0.3,2.1v8.1c0,2.8-1.2,5-3.7,6.5
		c0.3,1,0.6,2,0.9,3c0.3,1,0.6,2,0.9,3l1.9,6.6h-7l-1.6-4.4H490l-2.3-7.3h-0.1l0.1,11.7h-6.6l-1.6-4.4h-0.2V17.4H487.8z M479.8,17.9
		v32.6h5.9V38.7h1.2v0.1l3.4,11.7h6.4c-0.6-2.1-1.2-4.1-1.8-6.2c-0.6-2-1.2-4.1-1.8-6.1v-0.2c2.5-1.3,3.7-3.3,3.7-6.2v-8.1
		c0-3.9-3-5.9-9.1-5.9H479.8z M480.6,19.2v0.6l4.4,5.4v-0.6L480.6,19.2z M480.6,20.2v0.7l4.4,5.4v-0.7L480.6,20.2z M480.6,21.2v0.6
		l4.4,5.4v-0.7L480.6,21.2z M480.6,22.1v0.7l4.4,5.4v-0.6L480.6,22.1z M480.6,23.1v0.6l4.4,5.4v-0.6L480.6,23.1z M480.6,24.1v0.6
		l4.4,5.5v-0.7L480.6,24.1z M480.6,25v0.7l4.4,5.4v-0.6L480.6,25z M480.6,26v0.7L485,32v-0.6L480.6,26z M480.6,26.9v0.7l4.4,5.5
		v-0.7L480.6,26.9z M480.6,27.9v0.6L485,34v-0.7L480.6,27.9z M480.6,28.9v0.6l14.5,18l-0.4-1L480.6,28.9z M480.6,29.8v0.6l6.2,7.8
		h0.6l0.2,1l7.9,9.9l-0.3-1.1L480.6,29.8z M480.6,30.8v0.6l5.4,6.8h0.5L480.6,30.8z M480.6,31.7v0.7l4.6,5.8h0.6L480.6,31.7z
		 M480.6,32.7v0.6l4.4,5.4v-0.6L480.6,32.7z M480.6,33.6v0.7l4.4,5.4v-0.7L480.6,33.6z M480.6,34.6v0.7l4.4,5.4v-0.7L480.6,34.6z
		 M485,41l-4.4-5.4v0.6l4.4,5.4V41z M480.6,36.5v0.6l4.4,5.4V42L480.6,36.5z M480.6,37.5v0.7l4.4,5.4V43L480.6,37.5z M480.6,38.5
		v0.6l4.4,5.4v-0.6L480.6,38.5z M480.6,39.4v0.7l4.4,5.4v-0.7L480.6,39.4z M480.6,40.4v0.7l4.4,5.4v-0.7L480.6,40.4z M480.6,41.4V42
		l4.4,5.4v-0.6L480.6,41.4z M480.6,42.3V43l4.4,5.4v-0.7L480.6,42.3z M480.6,43.3v0.6l4.4,5.4v-0.6L480.6,43.3z M480.6,44.2v0.6
		l4,4.9h0.4v-0.1L480.6,44.2z M480.6,45.2v0.7l3.2,3.9h0.5L480.6,45.2z M480.6,46.2v0.6l2.4,3h0.5L480.6,46.2z M480.6,47.1v0.7
		l1.6,2h0.5L480.6,47.1z M480.6,48.1v0.7l0.9,1h0.5L480.6,48.1z M480.6,49.1v0.6l0.1,0.1h0.6L480.6,49.1z M481,18.8h-0.4V19l4.3,5.4
		v-0.6L481,18.8z M481.8,18.8h-0.5l3.6,4.6v-0.6L481.8,18.8z M482.6,18.8h-0.5l3,3.8h0.5L482.6,18.8z M483.3,18.8h-0.5l3.1,3.8h0.5
		L483.3,18.8z M484.1,18.8h-0.5l3,3.8h0.6L484.1,18.8z M484.8,18.8h-0.4l3,3.8h0.3h0.2L484.8,18.8z M485.6,18.8h-0.5l3,3.8
		c0.1,0,0.3,0.1,0.6,0.1L485.6,18.8z M485.7,34.2h-0.5l9.4,11.8l-0.3-1.1L485.7,34.2z M485.7,33.4V23.2h2c2,0,3,0.6,3,1.8l-0.1,5.5
		c0,1.9-1,2.9-3,2.9H485.7z M486.4,18.8h-0.5l3.1,3.9c0.1,0,0.4,0.1,0.6,0.1L486.4,18.8z M486.5,34.2H486l8.2,10.2l-0.3-1
		L486.5,34.2z M487.2,18.8h-0.5L490,23c0.7,0.3,1.2,0.9,1.3,1.7l4.7,5.8v-0.6L487.2,18.8z M487.3,34.2h-0.6l6.9,8.7l-0.3-1.1
		L487.3,34.2z M487.9,18.8h-0.2h-0.2l8.6,10.8v-0.6L487.9,18.8z M488,34.2h-0.3h-0.2l5.8,7.2l-0.3-1L488,34.2z M487.7,33L487.7,33
		c1.8,0,2.7-0.8,2.7-2.5v-2.5c-0.2,0-0.4-0.1-0.5-0.1c-0.1,0-0.3,0-0.4,0h-1.8V33z M488,40.8l7.2,9h0.4l-0.1-0.2l-8-9.9L488,40.8z
		 M488.2,41.3l0.3,1l6,7.5h0.6L488.2,41.3z M488.8,18.8h-0.6l7.8,9.8v-0.7L488.8,18.8z M488.7,34.2c-0.1,0-0.2,0-0.3,0
		s-0.2,0-0.2,0.1l4.6,5.7l-0.3-1L488.7,34.2z M488.7,42.8l0.3,1.1l4.8,5.9h0.6L488.7,42.8z M492.2,37.6l-2.9-3.6l-0.5,0.2l3.5,4.2
		L492.2,37.6C492.2,37.6,492.2,37.6,492.2,37.6z M489.6,18.8h-0.6l7.1,8.7V27L489.6,18.8z M489.2,44.4l0.3,1l3.5,4.4h0.5L489.2,44.4
		z M489.9,33.8c-0.1,0-0.2,0.1-0.3,0.2l2.9,3.5c0,0,0.2-0.1,0.3-0.2L489.9,33.8z M489.6,46l0.3,1l2.3,2.8h0.6L489.6,46z M490.3,19
		c0,0-0.1,0-0.2,0c-0.1,0-0.2,0-0.3,0l6.3,7.8V26L490.3,19z M490.3,33.4c-0.1,0.1-0.2,0.2-0.3,0.3l2.8,3.5c0.1,0,0.1-0.1,0.2-0.1
		c0,0,0.1,0,0.2-0.1L490.3,33.4z M490.1,47.5l0.2,1.1l1.1,1.2h0.6L490.1,47.5z M490.8,33c0,0-0.1,0.1-0.2,0.2l2.9,3.6
		c0.1,0,0.1-0.1,0.2-0.1c0,0,0.1-0.1,0.2-0.1L490.8,33z M490.6,49l0.2,0.7h0.3L490.6,49z M491.3,19.1c-0.1,0-0.2-0.1-0.3-0.1
		c-0.1,0-0.2,0-0.3-0.1l5.4,6.7V25L491.3,19.1z M491.1,32.3c0,0.1-0.1,0.2-0.1,0.3c0,0.1,0,0.2-0.1,0.2l3,3.7l0.3-0.3L491.1,32.3z
		 M491.3,31.7c0,0.1-0.1,0.2-0.1,0.3c0,0.1,0,0.2-0.1,0.3l3.2,3.9l0.3-0.2L491.3,31.7z M491.3,25v0.1v0.6l4.7,5.8v-0.6L491.3,25z
		 M491.3,26v0.6l4.6,5.8c0,0,0-0.1,0-0.2c0-0.1,0-0.2,0-0.3v-0.2L491.3,26z M491.3,27v0.6l4.5,5.6c0-0.1,0.1-0.1,0.1-0.2
		c0-0.1,0-0.1,0.1-0.2L491.3,27z M491.3,27.9v0.7l4.4,5.3l0.1-0.4L491.3,27.9z M491.3,28.9v0.7l4.1,5c0-0.1,0.1-0.2,0.2-0.4
		L491.3,28.9z M491.3,29.8v0.7l3.8,4.6c0-0.1,0.1-0.1,0.1-0.2c0,0,0.1-0.1,0.1-0.2L491.3,29.8z M491.3,30.8c0,0.1,0,0.4,0,0.6
		l3.4,4.3c0.1-0.2,0.2-0.3,0.3-0.3L491.3,30.8z M492.2,19.4c-0.1,0-0.2-0.1-0.3-0.1c-0.1,0-0.2,0-0.4-0.1l4.5,5.5v-0.6L492.2,19.4z
		 M493.3,19.7c-0.1-0.1-0.2-0.1-0.3-0.2c-0.1,0-0.2-0.1-0.4-0.1l3.5,4.4c0-0.1-0.1-0.3-0.1-0.4c0-0.1,0-0.2-0.1-0.3L493.3,19.7z
		 M493.7,19.9l2.1,2.7C495.6,21.5,494.9,20.6,493.7,19.9z"/>
</g>
<rect x="274.6" y="99.2" class="st3" width="213" height="8.8"/>
<text transform="matrix(1 0 0 1 274.5571 104.501)" class="st4 st5 st6 st7">THE HEART Of BOURBON COUNTRY</text>
<circle class="st4" cx="271.5" cy="102.6" r="1.5"/>
<circle class="st4" cx="484.1" cy="102.6" r="1.5"/>
<path class="st4" d="M388.4,61.8h112.5c6,0,11.9,0.2,17.9,0.5l3,0.2l-3,0.2c-5.9,0.3-11.9,0.5-17.9,0.5H388.4V61.8z M242.1,62.5
	C248.1,62.8,254,63,260,63h119.4v-1.2H260c-6,0-11.9,0.2-17.9,0.5l-3,0.2L242.1,62.5z M276.2,41.4 M383.9,64.9c1,0,1.9-0.6,2.3-1.5
	s0.2-2-0.5-2.7c-0.7-0.7-1.8-0.9-2.7-0.5c-0.9,0.4-1.5,1.3-1.5,2.3C381.4,63.8,382.5,64.9,383.9,64.9L383.9,64.9z"/>
<path class="st8" d="M157.5,18.6"/>
<path class="st9" d="M162.2,24.8"/>
<path class="st1" d="M163.1,25.9"/>
<path class="st1" d="M162.9,24"/>
<path class="st10" d="M337.3-38"/>
<g>
	<g>
		<path class="st4" d="M208.1,108.8c-11.9,0-23.7,0-35.6,0c-22.4,0-44.7,0-67.1,0c-8.8,0-17.6,0-26.3,0c-2.7,0-5.4,0-8.1,0
			c-0.6,0-3.1,0.4-3.5,0c-0.3-0.3-0.1-2.3-0.1-2.8c0-3.1,0-6.2,0-9.3c0-10.3,0-20.5,0-30.8c0-11,0-21.9,0-32.9c0-4.2,0-8.4,0-12.6
			c0-2.3-0.3-4.9,0-7.2c0.1-1.1-0.2-0.7,0.7-0.9c1.5-0.4,3.7,0,5.3,0c7.5,0,15,0,22.5,0c22.1,0,44.2,0,66.3,0
			c14.9,0,29.9-0.1,44.8,0c1.1,0,0.9-0.2,1.2,0.5c0.2,0.5,0,1.7,0,2.3c0,1.4,0,2.7,0,4.1c0,9.2,0,18.3,0,27.5c0,19.5,0,39,0,58.4
			C208.1,106.4,208.1,107.6,208.1,108.8z M69.1,107.1c11.5,0,23,0,34.5,0c21.7,0,43.3,0,65,0c8.6,0,17.1,0,25.7,0c2.7,0,5.4,0,8.2,0
			c0.6,0,3.2,0.4,3.7,0c0.3-0.3,0.1-1.9,0.1-2.4c0-2.9,0-5.8,0-8.7c0-9.8,0-19.7,0-29.5c0-10.8,0-21.5,0-32.3c0-4.1,0-8.1,0-12.2
			c0-2.3,0.3-4.8,0-7.1c-0.2-1.1,0.2-0.7-0.7-0.9c-1.5-0.4-3.6,0-5.1,0c-7.2,0-14.4,0-21.6,0c-21.5,0-42.9,0-64.4,0
			c-14.7,0-29.4,0-44.1,0c-0.8,0-1-0.2-1.3,0.3c-0.2,0.4,0,1.6,0,2c0,1.3,0,2.5,0,3.8c0,8.8,0,17.6,0,26.5c0,18.9,0,37.8,0,56.7
			C69.1,104.7,69.1,105.9,69.1,107.1z"/>
	</g>
	<g>
		<path class="st4" d="M147.6,16.7c-14.9,0-29.8,0-44.8,0c-8.7,0-17.5,0-26.2,0c-0.7,0-4.3-0.5-4.9,0c-0.3,0.3,0,2.6,0,3.1
			c0,18,0,35.9,0,53.9c0,8.4,0,16.8,0,25.2c0,1-0.6,4.4,0,5.3c0.4,0.5,1.6,0.3,2.4,0.3c18.1,0,36.2,0,54.3,0c10.8,0,21.6,0,32.4,0
			c10.1,0,20.3,0,30.4,0c3.5,0,7,0,10.5,0c1.4,0,1.6,0.4,1.9-0.7c0.5-1.8,0-4.5,0-6.4c0-3.8,0-7.6,0-11.4c0-10.3,0-20.5,0-30.8
			c0-9.4,0-18.8,0-28.2c0-2.7,0-5.5,0-8.2c0-0.9,0.3-1.8-0.4-2.1c-0.6-0.3-2.1,0-2.8,0c-1.7,0-3.3,0-5,0c-4.8,0-9.5,0-14.3,0
			c-9.5,0-19,0-28.5,0C151,16.7,149.3,16.7,147.6,16.7z"/>
	</g>
	<g>
		<g>
			<path class="st1" d="M97.2,25.6c-1.5,1.3-1.4,4.6-1.6,6.4c-0.2,1.4-0.4,2.9-0.6,4.4c-0.1,1.3-0.6,2.8-0.5,4
				c0,0.8,0.1,0.7,0.4,1.4c0,0.1,0.9,0.1,0.7,0.6c-0.2,0.4-4.5,1.4-4.9,1.1c0.3-1.7-1.2-3.3-2.3-4.6c-0.2,0.7-0.2,1.7-0.2,2.5
				c0,0.9,0.4,1.5,0.5,2.1c0,0.7-0.2,0.6-1.3,1c-1,0.3-2.2,0.5-3.1,0.8c-0.1-0.2,0.2-1,0.1-1.4c-0.2-0.7-0.9-1.3-1.3-1.9
				c-0.8-1.2-1.7-2.3-2.5-3.4c-1.8-2.5-3.5-5.5-6.3-7c0.5-0.5,4.4-2,5.2-1.8c0.1,0.3-0.3,0.8-0.2,1.2c0.1,0.3,0.4,0.7,0.6,1
				c0.7,1.1,1.5,2.1,2.3,3.1c0.9,1.2,1.8,2.4,2.7,3.7c0.1-1.1-0.2-3.4,0.4-4.4c0.4-0.7,1.5-1.1,2.5-1.2c1.1,0,0.7-0.1,1.4,0.6
				c0.9,0.9,1.5,2.4,2.2,3.4c0-1.7,0.3-3.4,0.5-5.1c0.1-1.2,0.8-3.1,0.5-4.3c-0.3-1.4-1.3-1.4,0.5-1.8c0.8-0.2,1.7-0.3,2.6-0.4
				C95.7,25.7,97.7,25.2,97.2,25.6C97,25.8,97.3,25.5,97.2,25.6z M80,30.8c0.3,2.3,3.5,5.1,4.8,7c-0.1,0-6.7-6.7-4.8-8.1
				c0.1,0,0.1,0.1,0.2,0.1C80.1,30.1,80,30.5,80,30.8C80.1,31.4,80,30.6,80,30.8z M88.9,40.5c-0.1,0.7-0.3,1.6-0.1,2.2
				c0.1,0.4,1,1,1,1.3c0,0.5-4.2,2.2-4.6,1.7c0-0.5,3.6-1.3,4.2-1.5c-0.5-0.6-1-1.1-1.1-1.8c-0.1-0.3,0-2,0.3-2.2
				C88.8,40.2,88.9,40.3,88.9,40.5z M97.9,25.8c-1.2,1.2-1.2,3.9-1.5,5.5c-0.3,1.9-0.5,3.9-0.8,5.8c-0.2,1.2-0.6,2.4-0.2,3.5
				c0.2,0.6,1.4,1.4,1.4,1.8c0,0.8-5.4,1.5-5.4,1.4c0.4-0.7,4.3-1.2,5-1.4c-2.7-1.3-1.1-6-0.7-8.3c0.2-1.5,0.1-8.3,2.3-8.7
				C98,25.6,97.9,25.7,97.9,25.8C97.9,25.8,98,25.7,97.9,25.8z M90.3,34.5c0.3,0.5,1,1.2,0.9,1.8c-0.5,0.1-2.2-3.1-1.8-3.2
				C89.8,33.5,90.1,34,90.3,34.5C90.7,35.2,89.9,33.8,90.3,34.5z"/>
		</g>
		<g>
			<path class="st1" d="M112.6,26c-0.9,0.3-0.8-0.5-1.3-0.6c-0.4-0.1-1.2,0.1-1.6,0.2c-1.1,0.2-5.3,0.2-5.8,1
				c-0.3,0.4,0.4,2.5,0.5,2.9c0.2,1.1,0.1,2,1.5,1.5c0.6-0.2,0.9-1.1,1.2-1.1c0.9-0.2,0.7,0.9,0.8,1.6c0.3,2.3,0,1.6-1.6,1.4
				c-1.8-0.1-1.1,1.3-0.9,2.6c0.1,0.3,0.1,1.8,0.3,1.9c0.1,0.1,0.5-0.1,0.7-0.1c0.6,0.1,1.6-0.2,2.2-0.3c1.1-0.2,2.6-0.2,3.6-0.6
				c0.7-0.3,1.3-1.2,2.1-0.8c-0.1,0.7-0.3,2.9-0.8,3.3c-0.6,0.6-3.4,0.6-4.1,0.7c-2.5,0.3-4.9,0.8-7.4,1.2c-0.1-0.5,0.3-1,0.4-1.5
				c0.2-0.8,0.1-1.6-0.1-2.4c-0.2-1.7-0.5-3.4-0.8-5.1c-0.3-1.5-0.5-3.1-1-4.5c-0.4-1.3-1.2-1.5-1.9-2.6c3.5-0.7,6.9-1.2,10.4-1.8
				c1.1-0.2,1.8-0.5,2.6,0.2C112.1,23.9,112.6,25.6,112.6,26z M114.6,35.9c0.4,0.3-0.5,3.5-0.9,3.8c-0.2,0.2-1.2,0.2-1.5,0.2
				c-1.5,0.2-2.9,0.4-4.3,0.6c-0.8,0.1-4.5,1.3-5,0.7c1-0.6,2.4-0.5,3.5-0.6c1.4-0.2,2.8-0.5,4.3-0.7c0.7-0.1,1.5-0.1,2.1-0.3
				c0.8-0.3,0.6-0.1,1-0.9C114,38.4,114.2,36,114.6,35.9C114.7,36,114.6,35.9,114.6,35.9z M106.2,33.6c-1.3,0.2,0.5,2.7-0.2,3.5
				c-0.5-1.1-0.4-2.4-0.7-3.6c0.2,0,1-0.4,1.2-0.1C106.4,33.5,106.3,33.6,106.2,33.6C106.2,33.6,106.4,33.6,106.2,33.6z M111,25.9
				c0.2,0.9,1.4,0.4,2,0.5c-0.5,0.6-1.5,0.1-1.9,0.1c-0.4-0.1-0.9-0.2-1.6-0.1c-0.8,0.1-1.6,0.2-2.3,0.3c-1,0.2-2.2,0-2.5,0.9
				c-0.2,0.7,0.9,2.7,0.3,3.2c-0.5-1.3-0.3-2.7-0.7-3.9C106.5,26.5,108.8,26.2,111,25.9C111.1,26.2,108.3,26.2,111,25.9z M108.1,30
				c0.2,0.9,0.4,1.8,0.4,2.7c0,0.4,0.2,0.9-0.1,1.2c-0.1,0.1-1,0.2-1,0.1c0-0.2,0.8-0.3,0.8-0.4c0.1-0.5-0.1-1-0.1-1.4
				C108.2,31.9,107.8,30,108.1,30C108.4,30.9,108.1,30,108.1,30z"/>
		</g>
		<g>
			<path class="st1" d="M116.7,22.2c0.9-0.1,1.7-0.2,2.6-0.2c0.1,0.7-0.6,1.9-0.6,2.7c0,1.2,0.2,2.3,0.4,3.4c0.3,2.4,0.7,5,0.7,7.5
				c1.7-0.1,3.4-0.1,5.1-0.2c0.3,0,0.9,0,1.3-0.1c0.4-0.2,0.4-0.4,0.8-0.6c0.8-0.3,0.9-0.6,0.8,0.5c0,0.4-0.8,2.4-1.1,2.6
				c-0.6,0.5-3.2,0.3-3.9,0.4c-2.3,0.2-4.7,0.4-7,0.6c0-0.6,0.5-1.3,0.6-1.9c0.1-0.5-0.1-1.1-0.1-1.6c-0.2-1.4-0.3-2.8-0.4-4.3
				c-0.3-2.9-0.2-5.9-1.7-8.4C114.8,22.2,116,22.3,116.7,22.2C118,22,115.6,22.4,116.7,22.2z M128.4,35.4c-0.3,0.7-0.7,1.7-1.1,2.3
				c-0.6,0.8-0.8,0.8-1.9,0.8c-2.8,0.2-5.7,0.4-8.5,0.6c-0.1-0.4,6.3-0.7,7-0.8c0.7,0,2.3,0.1,2.9-0.2c0.8-0.5,1.1-2.4,1.6-3.1
				C128.4,35.1,128.5,35.2,128.4,35.4C128.4,35.4,128.4,35.2,128.4,35.4z M120,22.3c0,0.1-0.4,1.1-0.4,1.2c-0.1,0.7-0.1,1.5,0,2.2
				c0.1,1.1,0.2,2.1,0.2,3.2c0,0.5,0.9,6,0.5,6.2C119.3,35.1,118.6,22.4,120,22.3C120,22.3,119.9,22.3,120,22.3z"/>
		</g>
		<g>
			<path class="st1" d="M141.7,26.1c-1.1-1.9-4.2-2.2-6.1-1.4c-2.3,1-3.4,3.1-3.1,5.6c0.3,2.4,2.2,3.9,4.6,4.3
				c1.2,0.2,2.4,0.1,3.4-0.5c0.4-0.2,1.1-0.7,1.3-1.2c0.2-0.3,0.1-1.3,0.2-1.5c0.8,0.3,2.5,1.2,3,1.9c0.5,0.8,0.2,0.9-0.8,1.8
				c-2,1.8-4.6,2.8-7.3,2.4c-5.4-0.8-9.7-5.9-7.1-11.3c2.2-4.5,8.2-6.3,12.5-3.8c0.9,0.5,2.2,1.4,2.7,2.3c0.5,1,0.5,0.4-0.2,1.1
				c-0.4,0.4-1.6,1-2.2,1.1C141.3,27.1,142.3,27,141.7,26.1C141.7,26,141.8,26.2,141.7,26.1z M140.7,25.6c-1.7-1.6-4.9-0.8-6.4,0.7
				c-0.6,0.6-1,1.4-1.2,2.2c-0.2,0.8-0.2,1.6,0,2.4c0.1,0.2,0.6,1.1,0.6,1.2c-1.1,0.1-1.1-2.4-1.1-2.9c0.1-1.4,0.6-2.7,1.8-3.5
				c0.6-0.5,6.6-2.2,6.5,0C140.9,25.7,140.8,25.7,140.7,25.6C140.7,25.6,140.8,25.7,140.7,25.6z M140.7,37.8c-1.4,0-3.9,1-5.1-0.1
				c0.6-0.3,1.9,0.2,2.5,0.2c1.2,0,2.4-0.3,3.6-0.8c1.6-0.7,2.6-1.9,3.8-3c0.4-0.2-1.1,1.5-1.4,1.8
				C143.1,36.6,141.9,37.2,140.7,37.8C140.6,37.8,143.3,36.7,140.7,37.8z M144.8,26.3c-0.7,0.3-1.8,1.1-2.5,0.9
				c0.5-0.4,3.3-1.3,3.3-1.4C145.3,26,145.1,26.2,144.8,26.3C144.4,26.5,145.3,26.1,144.8,26.3z"/>
		</g>
		<g>
			<path class="st1" d="M159.7,23c4.5,1.8,6.1,7.5,3.6,11.4c-2.6,4.1-7.6,5.2-11.9,2.9c-4-2.1-6.2-7.2-3.6-11.2
				C150.5,22.1,155.4,21.3,159.7,23C160.9,23.4,158.3,22.4,159.7,23z M160.7,29.1c-1.8-7.1-13-3.2-9.9,3.1
				C153.4,37.9,162.1,35.3,160.7,29.1C160.4,28,160.8,29.4,160.7,29.1z M156.5,25.7c-4.4-0.5-6.3,3.5-4.8,7.1
				c-1.9,0.2-0.7-4.6-0.3-5.2c0.7-1,4.8-3.5,6-2C157.1,25.8,156.8,25.8,156.5,25.7C156,25.7,156.8,25.8,156.5,25.7z M153.8,38.6
				c3.5,0.7,6.8-0.1,9.2-2.9c1.1-1.3,1.7-2.9,1.9-4.6c0.1-1,0.1-2.1-0.3-3.1c-0.1-0.4-0.6-1-0.5-1.3c0.9-0.5,1.1,4.1,1.1,4.5
				c-0.2,1.6-0.9,3.2-1.9,4.5c-2.4,3.1-6.5,4.2-10.2,3C153.3,38.7,153.6,38.6,153.8,38.6C153.9,38.6,153.5,38.5,153.8,38.6z"/>
		</g>
		<g>
			<path class="st1" d="M177.8,31.1c-0.7,0.7-1.5,1.4-2.2,2.1c-0.4,0.4-1.2,1.5-1.7,1.8c-0.9,0.5-0.2,0.6-0.7,0.1
				c-0.2-0.2-0.4-1.5-0.5-1.8c-0.4-1.3-0.9-2.7-1.4-4c-0.5,2.3-1,4.6-1.4,7c-0.1,0.5-0.2,0.9-0.2,1.3c-0.1,0.5-0.1,1.3-0.1,1.8
				c0,0.4,0.4,0.7,0.4,1c-0.5,0.3-4.7-0.7-5.3-1c0-0.1,1-1.3,1.1-1.5c0.2-0.6,0.3-1.2,0.4-1.8c0.3-1.4,0.5-2.7,0.8-4.1
				c0.6-2.9,1.7-5.7,0.6-8.5c0.9-0.4,4,0.6,4.5,1.1c1.2,1.3,1.6,4.4,2.2,6.1c1.5-1.3,2.8-3.6,4.6-4.6c0.1-0.1,0-0.4,0.2-0.4
				c0.3-0.1,1.5,0.3,1.8,0.4c0.7,0.2,2.3,0.3,2.8,0.9c-0.2,0.5-0.9,0.7-1.1,1.2c-0.2,0.4-0.3,0.9-0.4,1.3c-0.3,0.9-0.5,1.8-0.7,2.8
				c-0.5,2-1,3.9-1.5,5.9c-0.2,0.9-0.5,1.8-0.6,2.6c0,0.4,0.4,1.6,0.2,1.8c-1.4,0.4-3.4-0.9-4.8-1.1c0.1-0.3,0.9-1.1,1.1-1.5
				c0.5-1.1,0.7-2.4,0.9-3.6C177.1,34.7,177.4,32.9,177.8,31.1C177.7,31.3,177.8,31.1,177.8,31.1z M171.4,31.1
				c0.6,0.5-0.8,5.1-1,5.8c-0.1,0.5-0.2,1.1-0.2,1.6c0,0.6,0.8,2.3,0.6,2.8c-1-0.1-5.4-0.3-5.7-1.1c0.8-0.6,4.3,0.7,5.3,0.8
				c-0.6-1.7-0.7-3-0.3-4.7C170.3,35.8,171.1,31.1,171.4,31.1C171.5,31.2,171.4,31.1,171.4,31.1z M173,25.5c0.2,0.7,1.9,3.9,1.6,4.7
				c-0.8,0.1-1.8-5.3-1.8-5.3C172.9,25.1,173,25.3,173,25.5C173.7,27.5,172.9,25.2,173,25.5z M177.3,32.2c0.2,0.5-3.3,4.3-3.9,3.9
				C173.4,35.5,177,32.2,177.3,32.2C177.4,32.4,177.2,32.2,177.3,32.2z M175.2,42.5c0.2-0.5,4.6,0.5,4.9,1.1
				C178.4,43.3,176.8,42.9,175.2,42.5C175.2,42.3,177.1,43,175.2,42.5z M183.7,27.9c-1.8,1.5-2.1,6-2.6,8.2
				c-0.3,1.4-0.9,2.8-1.1,4.2c-0.1,0.7,0.8,3.1,0.3,3.3c-0.5-0.2-0.7-2.5-0.6-3.1c0.2-2,0.9-4,1.5-5.9c0.3-1,0.6-2.1,0.8-3.1
				c0.2-0.9,0.3-1.8,0.7-2.6c0.1-0.2,0.4-0.9,0.7-1.1C183.3,27.8,184.1,27.5,183.7,27.9C183.6,27.9,183.7,27.8,183.7,27.9z"/>
		</g>
		<g>
			<path class="st1" d="M197.1,34.4c-1-0.2-0.5-0.8-0.9-1.1c-0.4-0.3-1.1-0.4-1.5-0.5c-1.1-0.3-4.9-2.1-5.7-1.7
				c-0.4,0.2-0.7,2.4-0.9,2.9c-0.3,1-0.8,1.9,0.7,2c0.6,0.1,1.3-0.6,1.6-0.5c0.9,0.2,0.2,1.1,0,1.8c-0.7,2.2-0.7,1.4-2.1,0.6
				c-1.6-0.9-1.6,0.7-2,1.9c-0.1,0.3-0.6,1.6-0.5,1.8c0.1,0.1,0.5,0.2,0.6,0.2c0.5,0.4,1.5,0.5,2.2,0.7c1.1,0.3,2.4,0.9,3.5,1.1
				c0.8,0.1,1.7-0.5,2.2,0.2c-0.4,0.5-1.6,2.5-2.2,2.7c-0.8,0.3-3.3-1-4.1-1.2c-2.4-0.8-4.8-1.4-7.2-2.1c0.1-0.4,0.8-0.9,1-1.2
				c0.5-0.7,0.7-1.4,1-2.3c0.5-1.6,1-3.2,1.4-4.9c0.4-1.5,0.9-3,1.1-4.5c0.2-1.4-0.5-1.9-0.5-3.1c3.4,0.9,6.8,1.9,10.2,3
				c1,0.3,1.8,0.4,2.2,1.3C197.7,32.3,197.3,34.1,197.1,34.4z M194.7,44.2c0.2,0.4-2,2.9-2.4,3c-0.3,0.1-1.1-0.4-1.4-0.5
				c-1.4-0.5-2.8-0.9-4.2-1.3c-0.8-0.2-4.6-0.8-4.9-1.5c1.1-0.1,2.4,0.6,3.4,0.9c1.4,0.5,2.8,0.8,4.2,1.2c0.6,0.2,1.4,0.6,2.1,0.6
				c0.8,0.1,0.6,0.2,1.3-0.3C193,46.2,194.3,44.1,194.7,44.2C194.8,44.3,194.7,44.2,194.7,44.2z M188.1,38.5
				c-1.3-0.4-0.7,2.6-1.7,3.1c0-0.8,0.4-2.2,0.8-2.9c0.1-0.1,0.1-0.6,0.2-0.7c0.2-0.1,1.1,0.3,1.1,0.4
				C188.3,38.4,188.2,38.4,188.1,38.5C188,38.5,188.2,38.5,188.1,38.5z M195.8,33.6c-0.2,0.8,1.1,1,1.5,1.3
				c-0.7,0.3-1.4-0.6-1.7-0.8c-0.3-0.2-0.8-0.6-1.4-0.8c-0.8-0.3-1.5-0.5-2.3-0.7c-1-0.3-2-0.9-2.6-0.3c-0.5,0.5-0.4,2.8-1.1,3
				c0.1-1.4,0.8-2.5,1-3.9C191.5,32.2,193.7,32.9,195.8,33.6C195.7,33.9,193.1,32.7,195.8,33.6z M191.4,36c-0.2,0.9-0.5,1.8-0.8,2.6
				c-0.2,0.4-0.3,0.9-0.6,1c-0.1,0.1-1-0.3-1-0.3c0.1-0.2,0.9,0.1,0.9,0c0.3-0.4,0.4-0.9,0.5-1.3C190.6,37.8,191,35.9,191.4,36
				C191.2,36.9,191.4,36,191.4,36z"/>
		</g>
	</g>
</g>
<g>
	<g>
		<g>
			<path class="st11" d="M129.5,103c1.5-0.1,2.9-0.2,4.4-0.3c1.5-0.1,2.9-0.1,4.4-0.1c1.5,0,2.9,0,4.4,0.1c1.5,0,2.9,0.1,4.4,0.2
				c-1.5,0.2-2.9,0.2-4.4,0.3c-1.5,0.1-2.9,0.1-4.4,0.1c-1.5,0-2.9,0-4.4-0.1C132.4,103.2,130.9,103.2,129.5,103z"/>
		</g>
		<g>
			<path class="st11" d="M133.2,101.2c1.5-0.1,3-0.1,4.6-0.1c0.5,0,1.4,0,1.8,0c0.5,0,1.4,0,1.8,0c0.6,0,1.2,0,1.8,0
				c1.7,0,3.3,0.1,5,0.3c-1.7,0.2-3.3,0.2-5,0.3c-0.6,0-1.2,0-1.8,0.1c-0.5,0-1.4,0-1.8,0c-0.5,0-1.4,0-1.8,0c-1.5,0-3,0-4.6-0.1
				c-1.7,0-3.3-0.1-5-0.3C129.9,101.4,131.5,101.3,133.2,101.2z"/>
		</g>
		<g>
			<path class="st11" d="M132.6,99.7c1.6-0.1,3.2-0.1,4.7-0.1c0.4,0,1.7,0,2.2,0s1.7,0,2.2,0c0.7,0,1.4,0,2.2,0
				c1.9,0,3.7,0.1,5.6,0.3c-1.9,0.2-3.7,0.2-5.6,0.3c-0.7,0-1.4,0-2.2,0.1c-0.4,0-1.7,0-2.2,0c-0.4,0-1.7,0-2.2,0
				c-1.6,0-3.2,0-4.7-0.1c-1.9,0-3.7-0.1-5.6-0.3C128.8,99.9,130.7,99.8,132.6,99.7z"/>
		</g>
		<g>
			<path class="st11" d="M132,98.2c1.6-0.1,3.3-0.1,4.9-0.1c0.4,0,2.1,0,2.5,0c0.4,0,2.1,0,2.5,0c0.8,0,1.7,0,2.5,0
				c2.1,0.1,4.2,0.1,6.2,0.3c-2.1,0.2-4.2,0.3-6.2,0.3c-0.8,0-1.7,0-2.5,0.1c-0.4,0-2.1,0-2.5,0c-0.4,0-2.1,0-2.5,0
				c-1.6,0-3.3,0-4.9-0.1c-2.1-0.1-4.2-0.1-6.2-0.3C127.8,98.4,129.9,98.3,132,98.2z"/>
		</g>
		<g>
			<path class="st11" d="M131.4,96.7c1.7-0.1,3.4-0.1,5.1-0.1c0.4,0,2.5,0,2.9,0c0.4,0,2.5,0,2.9,0c1,0,1.9,0,2.9,0.1
				c2.3,0.1,4.6,0.1,6.9,0.3c-2.3,0.2-4.6,0.3-6.9,0.3c-1,0-1.9,0-2.9,0.1c-0.4,0-2.5,0-2.9,0c-0.4,0-2.5,0-2.9,0
				c-1.7,0-3.4,0-5.1-0.1c-2.3-0.1-4.6-0.1-6.9-0.3C126.8,96.8,129.1,96.8,131.4,96.7z"/>
		</g>
		<g>
			<path class="st11" d="M130.7,95.2c1.7-0.1,3.5-0.1,5.2-0.1c0.3,0,2.9,0,3.2,0c0.3,0,2.9,0,3.2,0c1.1,0,2.2,0,3.2,0.1
				c2.5,0.1,5,0.1,7.5,0.3c-2.5,0.2-5,0.3-7.5,0.3c-1.1,0-2.2,0-3.2,0.1c-0.3,0-2.9,0-3.2,0c-0.3,0-2.9,0-3.2,0
				c-1.7,0-3.5,0-5.2-0.1c-2.5-0.1-5-0.1-7.5-0.3C125.8,95.3,128.2,95.2,130.7,95.2z"/>
		</g>
		<g>
			<path class="st11" d="M130.1,93.7c1.8-0.1,3.6-0.1,5.4-0.1c0.3,0,3.3,0,3.6,0c0.3,0,3.3,0,3.6,0c1.2,0,2.4,0,3.6,0.1
				c2.7,0.1,5.4,0.2,8.1,0.3c-2.7,0.2-5.4,0.3-8.1,0.3c-1.2,0-2.4,0-3.6,0.1c-0.3,0-3.3,0-3.6,0c-0.3,0-3.3,0-3.6,0
				c-1.8,0-3.6,0-5.4-0.1c-2.7-0.1-5.4-0.2-8.1-0.3C124.7,93.8,127.4,93.7,130.1,93.7z"/>
		</g>
		<g>
			<path class="st11" d="M129.5,92.2c1.9-0.1,3.7-0.1,5.6-0.1c0.3,0,3.7,0,3.9,0c0.3,0,3.7,0,3.9,0c1.3,0,2.6,0,3.9,0.1
				c2.9,0.1,5.8,0.2,8.7,0.3c-2.9,0.2-5.8,0.3-8.7,0.4c-1.3,0-2.6,0-3.9,0.1c-0.3,0-3.7,0-3.9,0c-0.3,0-3.7,0-3.9,0
				c-1.9,0-3.7,0-5.6-0.1c-2.9-0.1-5.8-0.2-8.7-0.3C123.7,92.3,126.6,92.2,129.5,92.2z"/>
		</g>
		<g>
			<path class="st11" d="M128.9,90.7c1.9-0.1,3.8-0.1,5.8-0.1c0.2,0,4.1,0,4.3,0c0.2,0,4.1,0,4.3,0c1.4,0,2.9,0,4.3,0.1
				c3.1,0.1,6.2,0.2,9.3,0.4c-3.1,0.2-6.2,0.3-9.3,0.4c-1.4,0-2.9,0-4.3,0.1c-0.2,0-4.1,0-4.3,0c-0.2,0-4.1,0-4.3,0
				c-1.9,0-3.8,0-5.8-0.1c-3.1-0.1-6.2-0.2-9.3-0.4C122.7,90.8,125.8,90.7,128.9,90.7z"/>
		</g>
		<g>
			<path class="st11" d="M128.3,89.1c2-0.1,4-0.1,5.9-0.1c0.2,0,4.4,0,4.7,0c0.2,0,4.4,0,4.7,0c1.6,0,3.1,0,4.7,0.1
				c3.3,0.1,6.6,0.2,10,0.4c-3.3,0.2-6.6,0.3-10,0.4c-1.6,0-3.1,0-4.7,0.1c-0.2,0-4.4,0-4.7,0c-0.2,0-4.4,0-4.7,0c-2,0-4,0-5.9-0.1
				c-3.3-0.1-6.6-0.2-10-0.4C121.6,89.3,124.9,89.2,128.3,89.1z"/>
		</g>
		<g>
			<path class="st11" d="M127.6,87.6c2-0.1,4.1-0.1,6.1-0.1c0.2,0,4.8,0,5,0c0.2,0,4.8,0,5,0c1.7,0,3.3,0,5,0.1
				c3.5,0.1,7,0.2,10.6,0.4c-3.5,0.2-7,0.3-10.6,0.4c-1.7,0-3.3,0-5,0.1c-0.2,0-4.8,0-5,0c-0.2,0-4.8,0-5,0c-2,0-4.1,0-6.1-0.1
				c-3.5-0.1-7-0.2-10.6-0.4C120.6,87.8,124.1,87.7,127.6,87.6z"/>
		</g>
		<g>
			<path class="st11" d="M127,86.1c2.1-0.1,4.2-0.1,6.3-0.1c0.2,0,5.2,0,5.4,0c0.2,0,5.2,0,5.4,0c1.8,0,3.6,0,5.4,0.1
				c3.7,0.1,7.5,0.2,11.2,0.4c-3.7,0.2-7.5,0.3-11.2,0.4c-1.8,0-3.6,0.1-5.4,0.1c-0.2,0-5.2,0-5.4,0c-0.2,0-5.2,0-5.4,0
				c-2.1,0-4.2,0-6.3-0.1c-3.7-0.1-7.5-0.2-11.2-0.4C119.6,86.3,123.3,86.2,127,86.1z"/>
		</g>
		<g>
			<path class="st11" d="M126.4,84.6c2.2-0.1,4.3-0.1,6.5-0.1c0.1,0,5.6,0,5.7,0c0.1,0,5.6,0,5.7,0c1.9,0,3.8,0,5.7,0.1
				c3.9,0.1,7.9,0.2,11.8,0.4c-3.9,0.2-7.9,0.3-11.8,0.4c-1.9,0-3.8,0.1-5.7,0.1c-0.1,0-5.6,0-5.7,0c-0.1,0-5.6,0-5.7,0
				c-2.2,0-4.3,0-6.5-0.1c-3.9-0.1-7.9-0.2-11.8-0.4C118.5,84.8,122.5,84.7,126.4,84.6z"/>
		</g>
		<g>
			<path class="st11" d="M125.8,83.1c2.2-0.1,4.4-0.1,6.6-0.1c0.1,0,6,0,6.1,0c0.1,0,6,0,6.1,0c2,0,4.1,0,6.1,0.1
				c4.1,0.1,8.3,0.2,12.4,0.4c-4.1,0.2-8.3,0.3-12.4,0.4c-2,0-4.1,0.1-6.1,0.1c-0.1,0-6,0-6.1,0c-0.1,0-6,0-6.1,0
				c-2.2,0-4.4,0-6.6-0.1c-4.1-0.1-8.3-0.2-12.4-0.4C117.5,83.3,121.6,83.2,125.8,83.1z"/>
		</g>
		<g>
			<path class="st11" d="M125.2,81.6c2.3-0.1,4.5-0.1,6.8-0.1c0.1,0,6.4,0,6.4,0c0.1,0,6.4,0,6.4,0c2.1,0,4.3,0,6.4,0.1
				c4.3,0.1,8.7,0.2,13,0.4c-4.3,0.2-8.7,0.3-13,0.4c-2.1,0-4.3,0.1-6.4,0.1c-0.1,0-6.4,0-6.4,0c-0.1,0-6.4,0-6.4,0
				c-2.3,0-4.5,0-6.8-0.1c-4.3-0.1-8.7-0.2-13-0.4C116.5,81.8,120.8,81.7,125.2,81.6z"/>
		</g>
		<g>
			<path class="st11" d="M124.6,80.1c2.3-0.1,4.6-0.1,7-0.1c0,0,6.8,0,6.8,0c0,0,6.8,0,6.8,0c2.3,0,4.5,0,6.8,0.1
				c4.6,0.1,9.1,0.2,13.7,0.5c-4.6,0.2-9.1,0.3-13.7,0.4c-2.3,0-4.5,0.1-6.8,0.1c0,0-6.8,0-6.8,0c0,0-6.8,0-6.8,0
				c-2.3,0-4.6,0-7-0.1c-4.6-0.1-9.1-0.2-13.7-0.5C115.4,80.3,120,80.2,124.6,80.1z"/>
		</g>
	</g>
	<g>
		<g>
			<path class="st11" d="M124.7,43.4c0.1-0.7,0.1-1.4-0.2-2c-0.3-0.6-0.7-1.2-1.3-1.5c-0.6-0.3-1.3-0.5-1.9-0.4
				c-0.4,0.1-0.7,0.2-1,0.4c-0.3,0.2-0.5,0.5-0.6,0.9c-0.1,0.4-0.1,0.7,0,1.1c0.1,0.2,0.2,0.4,0.3,0.5c0.1,0.1,0.3,0.3,0.5,0.3
				c0.2,0.1,0.4,0.1,0.6,0c0.2,0,0.4-0.2,0.5-0.3c0.1-0.2,0.2-0.3,0.2-0.5c0-0.2-0.1-0.4-0.2-0.6c-0.1-0.1-0.2-0.1-0.3,0
				c-0.1,0.1-0.1,0.2,0,0.3c0.1,0.1,0,0.2,0,0.2c0,0.1-0.1,0.2-0.1,0.3c-0.1,0.1-0.1,0.1-0.2,0.1c-0.1,0-0.2,0-0.3,0
				c-0.2-0.1-0.3-0.2-0.3-0.4c0-0.2,0-0.4,0.1-0.6c0.1-0.2,0.2-0.4,0.4-0.5c0.2-0.1,0.4-0.2,0.6-0.2c0.5,0,1,0.1,1.4,0.3
				c0.4,0.2,0.7,0.6,0.9,1.1c0.2,0.4,0.2,1,0.1,1.4c-0.1,0.5-0.3,0.9-0.6,1.4c-0.3,0.4-0.7,0.6-1.2,0.8c-0.5,0.1-1,0.1-1.6,0.1
				c-0.2,0-0.4,0-0.6,0c-0.4,0-0.8-0.1-1.2-0.1c-0.7,0-1.3,0-1.8,0.2c-0.6,0.1-1.2,0.4-1.7,0.7c-0.3,0.2-0.5,0.3-0.8,0.5
				c-0.3,0.2-0.5,0.4-0.7,0.6c-0.4,0.5-0.7,1-0.9,1.7c-0.3,1.1-0.2,2.4,0.3,3.6c0,0.1,0.1,0.1,0.1,0.1c0,0,0.1,0,0.1,0
				c0.1,0,0.2-0.1,0.1-0.2c-0.3-1.1-0.3-2.3,0-3.2c0.2-0.5,0.5-1,0.8-1.3c0.2-0.2,0.4-0.3,0.6-0.5c0.2-0.2,0.5-0.3,0.7-0.4
				c0.5-0.3,1-0.4,1.5-0.5c0.5-0.1,1-0.1,1.6-0.1c0.4,0,0.7,0,1.1,0.1c0.2,0,0.4,0,0.6,0c0.6,0,1.2,0,1.9-0.1
				c0.4-0.1,0.7-0.2,0.9-0.4c0.3-0.2,0.5-0.4,0.7-0.7C124.3,44.6,124.6,44,124.7,43.4z"/>
		</g>
	</g>
	<g>
		<g>
			<path class="st12" d="M153.9,58.9c0-1.4-1.6-2.3-5.3-2.9c-2.8-0.5-6.5-0.7-10.4-0.7c-3.9,0-7.6,0.3-10.4,0.7
				c-3.7,0.6-5.3,1.5-5.3,2.9c0,1.1-0.5,27.5,0.7,33.7c0.1,1.7,1.7,3,4.9,3.9c2.7,0.8,6.3,1.2,10.1,1.2c3.8,0,7.4-0.4,10.1-1.2
				c3.2-0.9,4.9-2.2,4.9-3.9C154.3,86.5,153.9,60.1,153.9,58.9z"/>
		</g>
	</g>
	<g>
		<g>
			<g>
				<path class="st11" d="M153.1,58.9c0-0.6-0.5-1.5-4.6-2.2c-2.7-0.5-6.4-0.7-10.2-0.7c-3.9,0-7.5,0.2-10.2,0.7
					c-4.6,0.8-4.6,1.8-4.6,2.2c0,1.1-0.5,27.6,0.6,33.6c0,1.3,1.5,2.4,4.4,3.2c2.6,0.8,6.1,1.2,9.8,1.2c3.7,0,7.2-0.4,9.8-1.2
					c2.8-0.8,4.4-1.9,4.4-3.2C153.5,86.5,153.1,60.1,153.1,58.9z"/>
			</g>
		</g>
		<g>
			<g>
				<g>
					<g>
						<g>
							<path class="st1" d="M152.6,58.9c0-1.3-6.4-2.4-14.4-2.4c-7.9,0-14.4,1.1-14.4,2.4c0,0-0.5,27.6,0.6,33.6
								c0,2.2,6.1,3.9,13.7,3.9c7.6,0,13.7-1.8,13.7-3.9C153.1,86.5,152.6,58.9,152.6,58.9z"/>
						</g>
					</g>
				</g>
			</g>
		</g>
		<g>
			<g>
				<g>
					<g>
						<g>
							<path class="st11" d="M149.4,59.7c0.8-0.1,2.1-0.5,2.1-0.6c0-0.1,0.1-0.5-0.7-0.8s-1-0.2-1.2-0.2c-0.2,0-0.4,0.2-0.1,0.5
								c0.3,0.3,0.4,1-0.1,1L149.4,59.7z"/>
						</g>
					</g>
				</g>
			</g>
		</g>
		<g>
			<g>
				<g>
					<g>
						<g>
							<path class="st11" d="M126.9,59.7c-0.8-0.1-2.1-0.5-2.1-0.6c0-0.1-0.1-0.5,0.7-0.8s1-0.2,1.2-0.2c0.2,0,0.4,0.2,0.1,0.5
								c-0.3,0.3-0.4,1,0.1,1L126.9,59.7z"/>
						</g>
					</g>
				</g>
			</g>
		</g>
		<g>
			<g>
				<g>
					<g>
						<g>
							<path class="st11" d="M144.8,76.7c0,0,0.2-1.2,0.7-1.8c0.5-0.6,0.2-1.5-0.4-2c-0.3-1-1.3-1.9-1.3-1.9s-1.6,0.2-5.7,0.2
								c-4.1,0-8-0.3-8-0.3s-1,0.6-1.1,0.8c0,0.2,0,0.4,0,0.4l-1.5,0.8c-0.5,0.5-0.1,1.4-0.4,1.5c-0.3,0.1-1.3,0.4-1.3,0.4
								s-0.8,4.4-0.3,6c0.6,1.6,0.6,4.1,0.6,5.1c0,1,0.8,1.2,0.8,1.2s-0.6,0.9,0.6,1.9c1.2,0.9,5.8,2,10.5,2c1.7,0,4.3-0.2,4.3-0.2
								s-2.8-1.3-3.8-2.4c2.1,1.1,3.6,1.8,5.8,2.1c-2.4-1-4.4-2.1-5.2-2.9c2,1.1,5,2.3,6.5,2.5c-1.8-0.6-4-2.4-4-2.4
								s3.3,1.6,5.6,1.9c-1.3-0.5-2.9-1.6-2.9-1.6s2.6,1.1,4.4,1.2c1.4-0.7,2.2-1.1,2.6-2.5c0.4-1.3,0.7-17.1,0.7-17.1l-0.7-6
								c0,0-0.3,15.4-0.7,17.7l-0.1-8.6l-0.6,6.2l-0.2-7.2l-0.5,6.4c0,0,0-12.2-0.8-16.2c0.3,4,0.2,12.7-0.1,15.6
								c-1.3-0.1-1.9-0.2-2.5-0.3C145.5,77,144.8,76.7,144.8,76.7z"/>
						</g>
					</g>
				</g>
			</g>
		</g>
		<g>
			<g>
				<g>
					<g>
						<g>
							<path class="st11" d="M145.5,73.3c0,0,1.4,0.3,1.5,0.5c0.1,0.1,0.2,0.5,0.4,0.5c0.2,0,0.1-0.3,0-0.4c-0.1-0.1-0.2-0.2,0-0.3
								c0.2,0,1.1,0,1.5,0.4c0.3,0.4,0,1.3,0,1.3s-1.2,0.3-1.4,0.3c-0.2,0-1.2-0.6-1.4-1c0.1,0.5,0.5,1.7,0.5,1.7s-0.7-0.7-0.9-2
								L145.5,73.3z"/>
						</g>
					</g>
				</g>
			</g>
		</g>
		<g>
			<g>
				<g>
					<g>
						<g>
							<path class="st12" d="M149.7,79.4c-0.4-1.1-1.3-1.5-2.5-1.6c-1.2-0.1-2.8-0.6-3.3-0.9c-0.5-0.3-1.4-0.1-1.6,0
								c-1,0.5-1,1.5-1.1,1.9c-0.1,0.4-1,4.5-1.4,5.1c-0.4,0.6-1.2,0.6-1.7-0.2c0.5,1,0.8,1.2,0.8,1.2s0.2-0.5,1.5,0.1s3.3,1,4.6,0
								c-0.6,0.8-1.7,1.4-3.7,1c1.3,0.8,2.4,0.9,2.9,0.9c0.5,0,2.2-1.6,3.1-3.7c-0.2,1.3-1.2,3.4-1.2,3.4s2.6-4.3,3-6.5
								c0.3,0.8-0.1,2.9-0.1,2.9S150.1,80.5,149.7,79.4z M140.1,84.3c-0.1-0.5,1.2-0.1,1.5-0.3C141.1,84.4,140.2,84.8,140.1,84.3z"
								/>
						</g>
					</g>
				</g>
			</g>
		</g>
		<g>
			<g>
				<g>
					<g>
						<g>
							<path class="st11" d="M147.7,78.5c-0.1,0.3-0.4,0.5-0.7,0.4c-0.3-0.1-0.4-0.4-0.3-0.7c0.1-0.3,0.4-0.5,0.7-0.4
								C147.7,77.9,147.8,78.2,147.7,78.5z"/>
						</g>
					</g>
				</g>
			</g>
		</g>
		<g>
			<g>
				<g>
					<g>
						<g>
							<path class="st11" d="M149,70.3c0,0-7.5,0.5-8.2,0.5l2.7-0.8c0,0-4.1,0.7-6,0.3c2.1-0.1,4.8-0.3,6-0.8l-0.6-0.2
								c0,0-7.1,0.3-9.3,0c-0.3,0-0.5-0.1-0.8-0.1l-0.9,0.6l-1.4-0.3c0.1,0,1.2,0.6,2.4,0.9c-0.2,0.1-0.7,0.3-0.7,0.3l-4.1-0.5
								c0,0,2.1-0.1,2.1-0.5c0-0.4-1-0.6-2.3-0.7c0.9-0.2,3-0.1,5,0.1l1.4-0.9c0,0,11.6-0.2,13.9,0.4l0.9,0.2l0-0.4
								c-2.6-0.3-6.5-0.7-10.8-0.7c-7.9,0-14.4,0.8-14.4,1.7c0,0.9,6.4,1.7,14.4,1.7c4.4,0,8.3-0.3,10.9-0.7L149,70.3z"/>
						</g>
					</g>
				</g>
			</g>
		</g>
		<g>
			<g>
				<g>
					<g>
						<g>
							<path class="st11" d="M124.8,61.5c0-0.7,0.6-0.8,0.6-0.3c0,0.5,0.3,8.9,0.3,8.9v0.7c0,0,0.9,0.4,1.8,0.4
								c-0.8,0.1-1.4,0.3-1.5,0.5v3.2c0,0-0.2,4.5-0.2,5.7c0,1.2-0.3,2.1-0.3,3.1c0,1,0.3,1.5,0.3,1.8s-0.1,1.3,0.2,1.9
								c0.3,0.6,1.1,1.6,1.1,2.1c-0.5-0.6-1.2-0.9-1.5-1c-0.3-0.2-0.7-1.2-0.7-1.5c0-0.4-0.5-5.6-0.5-5.6V65.7L124.8,61.5z"/>
						</g>
					</g>
				</g>
			</g>
		</g>
		<g>
			<g>
				<g>
					<g>
						<g>
							<path class="st11" d="M151.6,88.1c-1.3,1.7-5.1,3.6-10.2,3.6c2.1,0.6,6.2,0,7.1-0.6c-0.6,0.8-0.7,1.2-0.5,1.7
								c0.1,0.5,0.3,1.5,0.1,1.8c-0.2,0.3,3.2-1.7,3.2-1.7L151.6,88.1z"/>
						</g>
					</g>
				</g>
			</g>
		</g>
		<g>
			<g>
				<g>
					<g>
						<g>
							<g>
								<path class="st12" d="M138.2,57.6c3.4,0,6.8-0.1,9.4,0.2c2.9,0.4,4,0.7,4,1.4c0,2.6,0.4,27.6-0.6,33.1l0,0.1v0.1
									c0,0.2-0.6,1.1-3.3,1.8c-2.5,0.7-5.9,1.1-9.4,1.1c-3.6,0-6.9-0.4-9.4-1.1c-2.7-0.8-3.3-1.6-3.3-1.8v-0.1l0-0.1
									c-1-5.5-0.7-30.5-0.6-33.1c0-0.8,1.2-1,4.1-1.4C131.5,57.4,134.8,57.6,138.2,57.6L138.2,57.6z M138.2,56.6
									c-7.9,0-14.4,1.1-14.4,2.4c0,0-0.5,27.6,0.6,33.6c0,2.2,6.1,3.9,13.7,3.9c7.6,0,13.7-1.8,13.7-3.9c1.1-6,0.6-33.6,0.6-33.6
									C152.6,57.6,146.2,56.6,138.2,56.6L138.2,56.6z"/>
							</g>
						</g>
					</g>
				</g>
			</g>
		</g>
		<g>
			<g>
				<g>
					<g>
						<g>
							<path class="st11" d="M138.2,96.7c-3.7,0-7.2-0.4-9.8-1.2c-2.8-0.8-4.2-1.8-4.2-3c-1.1-6-0.7-32.5-0.6-33.6
								c0-0.3,0-1.2,4.5-2c2.7-0.5,6.4-0.7,10.2-0.7s7.5,0.2,10.2,0.7c4.5,0.7,4.5,1.7,4.5,2c0,1.2,0.5,27.6-0.6,33.6
								c0,1.2-1.5,2.3-4.2,3C145.4,96.3,141.9,96.7,138.2,96.7z M138.2,56.9c-3.8,0-7.4,0.2-10.1,0.7c-3.9,0.6-4,1.4-4,1.4
								c0,0.3-0.5,27.6,0.6,33.5l0,0.1c0,1.8,5.4,3.6,13.4,3.6c8,0,13.4-1.9,13.4-3.6l0-0.1c1.1-5.9,0.6-33.2,0.6-33.5l0,0
								c0,0,0-0.7-4-1.4C145.6,57.1,142,56.9,138.2,56.9z"/>
						</g>
					</g>
				</g>
			</g>
		</g>
		<g>
			<g>
				<g>
					<g>
						<g>
							<path class="st11" d="M127.1,89.8c-0.6-0.2-1.5-0.7-1.8-0.8c-0.3-0.1-1.1,0.2-1.1,1.5c0,0,0.3,0.3,0.4,0.7
								c0.1,0.4,0.5,1.8,1.1,2.1c0.6,0.3,1,0.1,0.8-0.8c-0.2-0.8-0.2-1.1,0-1.4c0.2-0.2,0.3-0.8,0.2-1C126.6,90,127,89.8,127.1,89.8
								z"/>
						</g>
					</g>
				</g>
			</g>
		</g>
		<g>
			<g>
				<g>
					<g>
						<g>
							<path class="st11" d="M128,90.2c-0.1,0-0.2,0-0.3,0c-0.4-0.1-0.6,0-0.6,0.3c0.1,0.3-0.2,0.7-0.3,1c-0.1,0.3,0.2,1,0.2,1.3
								c0,0.3-0.1,0.4-0.1,0.7c0,0.3,0.7,0.8,2.6,1.2c-1-0.6-1.4-0.8-1.3-1.4c0-0.6,0.6-0.8,0.2-1.6c-0.4-0.8,0-1-0.1-1.4
								C128.2,90.2,128.1,90.2,128,90.2z"/>
						</g>
					</g>
				</g>
			</g>
		</g>
		<g>
			<g>
				<g>
					<g>
						<g>
							<path class="st11" d="M145.2,94.9c0,0-2.8,0.1-3.3,0.1c-0.5,0-1.7-0.5-3.7-0.8c-2-0.3-4.6,0.2-5.6,0.1
								c-0.2-0.1-0.4-0.2-0.7-0.2c0,0,0,0,0-0.1c0-0.2-0.2-0.4-0.4-0.4c-0.2,0-0.4,0.2-0.4,0.4c0,0,0,0,0,0c-0.4,0-0.8,0-1,0
								c0.1-0.1,0.2-0.2,0.2-0.3c0-0.2-0.2-0.4-0.4-0.4c-0.2,0-0.4,0.2-0.4,0.4c0,0.2,0.2,0.4,0.4,0.4c0,0,0.1,0,0.1,0
								c1.8,0.8,4.5,1.6,8.1,1.6C141.9,95.8,145.2,94.9,145.2,94.9z"/>
						</g>
					</g>
				</g>
			</g>
		</g>
		<g>
			<g>
				<g>
					<g>
						<g>
							<path class="st11" d="M144.1,94.4c0.1,0.2,1.8-0.1,2.1-0.2c0.3-0.1,0.6-1.3,0.6-1.3s-0.3,0.4-0.7,0.7
								c0.5-0.5,0.6-1.2,0.6-1.2s-0.5,0.9-1,1.1C145.1,93.6,144,94.1,144.1,94.4z"/>
						</g>
					</g>
				</g>
			</g>
		</g>
		<g>
			<g>
				<g>
					<g>
						<g>
							<path class="st11" d="M127.3,60.5c0.2,0,0.4,0.1,0.7,0.1c0.2,0,0.5,0.1,0.7,0.1c0.5,0.1,0.9,0.1,1.4,0.1
								c0.9,0.1,1.8,0.1,2.7,0.2c0.9,0,1.8,0.1,2.7,0.1c0.9,0,1.8,0,2.7,0c0.9,0,1.8,0,2.7,0c0.9,0,1.8-0.1,2.7-0.1
								c0.9-0.1,1.8-0.1,2.7-0.2c0.5,0,0.9-0.1,1.4-0.1c0.2,0,0.5-0.1,0.7-0.1c0.2,0,0.5-0.1,0.7-0.1c-0.4,0.1-0.9,0.3-1.3,0.4
								c-0.4,0.1-0.9,0.2-1.4,0.3c-0.9,0.1-1.8,0.3-2.7,0.3c-0.9,0.1-1.8,0.1-2.7,0.2c-0.9,0-1.8,0.1-2.8,0.1c-0.9,0-1.8,0-2.8-0.1
								c-0.9,0-1.8-0.1-2.7-0.2c-0.9-0.1-1.8-0.2-2.7-0.3c-0.5-0.1-0.9-0.2-1.4-0.3C128.2,60.7,127.7,60.6,127.3,60.5z"/>
						</g>
					</g>
				</g>
			</g>
		</g>
		<g>
			<g>
				<g>
					<g>
						<g>
							<path class="st11" d="M125.6,59.4c0.3,0,0.5,0.1,0.8,0.1c0.3,0,0.5,0.1,0.8,0.1c0.5,0.1,1,0.1,1.6,0.1
								c1.1,0.1,2.1,0.1,3.2,0.2c1.1,0,2.1,0.1,3.2,0.1c1.1,0,2.1,0,3.2,0c1.1,0,2.1,0,3.2,0c1.1,0,2.1-0.1,3.2-0.1
								c1.1-0.1,2.1-0.1,3.2-0.2c0.5,0,1.1-0.1,1.6-0.1c0.3,0,0.5-0.1,0.8-0.1c0.3,0,0.5-0.1,0.8-0.1c-0.5,0.1-1,0.3-1.5,0.4
								c-0.5,0.1-1,0.2-1.6,0.3c-1,0.1-2.1,0.3-3.2,0.3c-1.1,0.1-2.1,0.1-3.2,0.2c-1.1,0-2.1,0.1-3.2,0.1c-1.1,0-2.1,0-3.2-0.1
								c-1.1,0-2.1-0.1-3.2-0.2c-1.1-0.1-2.1-0.2-3.2-0.3c-0.5-0.1-1-0.2-1.6-0.3C126.6,59.7,126.1,59.6,125.6,59.4z"/>
						</g>
					</g>
				</g>
			</g>
		</g>
		<g>
			<g>
				<g>
					<g>
						<g>
							<path class="st12" d="M128.8,83.7c0,1.1,0.5,3.5,0.5,3.5s1.9,1.7,4.4,2.4c-2.3-1.6-3.4-2.8-3.4-2.8s2.8,2.1,5.3,2.7
								c-2.5-1.3-4.9-3.8-4.9-3.8s3.6,2.8,6.3,3.3c-2.4-1.2-5-3.7-5-3.7s2.9,1.8,4.6,2.1c0,0-2.1-1.1-3.1-2.5c-0.5,0.2-1,0-1,0
								S129.5,83.7,128.8,83.7z"/>
						</g>
					</g>
				</g>
			</g>
		</g>
		<g>
			<g>
				<g>
					<g>
						<g>
							<path class="st12" d="M126.6,80.3c-0.2,0.4-0.3,0.9-0.2,1c0.1,0.1,0.7,0.3,0.9,0.6c0.2,0.3,0.9,1,2.3,0.9
								c-0.1-0.9-0.5-1.8-0.8-2.3c-0.3-0.5-0.2-2.6-0.2-2.6s-0.4,0.6-0.4,1.6c0,0.9,0.6,0.9,0.7,2.2c-0.2-0.7-0.5-1-1-1.2
								c-0.5-0.3-0.9-1.1-0.6-2c0.3-0.9,0.1-2.9,0.1-2.9s0,1.3-0.3,2.2c-0.3,0.9-0.2,2.1,0,2.5c0.2,0.3,0.6,0.7,0.6,1.2
								c-0.2-0.4-0.5-0.5-0.7-0.6C126.8,80.8,126.6,80.3,126.6,80.3z"/>
						</g>
					</g>
				</g>
			</g>
		</g>
		<g>
			<g>
				<g>
					<g>
						<g>
							<path class="st12" d="M133.1,79.6c-0.9-0.2-1.6-0.6-1.8-1.7c-0.2-1-0.6-1.3-0.6-1.3l-0.1-0.5c0,0,0.9,0.7,1.1,0.9
								c0.2,0.2,0.2,0.9,0.8,1.3c0.6,0.4,1.3,0.5,1.8,0.5c-0.6-0.2-1.2-0.5-1.6-1.5s-0.8-1.9-1.3-2.6c-0.5-0.6-1-1.1-1.3-1.2l0-0.3
								c0,0,0.6,0.3,1,0.4c0.4,0.1,1.1,1.5,1.5,2.1c0.4,0.6,1.3,1.3,1.3,1.3s-2.1-3.6-3.3-4.2l-0.2-0.3c0,0,3.5,1.3,4.9,2.8
								c-0.8-1.3-2.8-2.6-2.8-2.6s2.9,0.9,4.2,2c-1-1.1-3.1-2.4-3.1-2.4s3,0.8,4.5,2c-0.7-1-3.2-2.5-3.2-2.5s2.9,0.5,4.5,2.3
								c-0.3-0.6-2.3-2.5-2.3-2.5s2.4,1.1,3.2,1.9c-0.7-1.2-2.4-2.4-2.4-2.4s3.5,0,4,0c0.5,0,2,0.5,2.4,1.5c0.3,0.3,0.7,0.9,0.6,1.3
								c-0.1,0.4-1.2,1.1-1.7,1.2c-0.5,0.1-1,0.8-1,0.8s-2.3-0.8-3.7-0.7c-1.5,0.1-2,1.5-2,2.2c-0.5,0.2-1.2-0.6-1.7-1.3
								c-0.4-0.7-2-1.9-2-1.9s1,1.2,1.3,1.9c0.2,0.7,1.6,2.1,1.6,2.1s-1-0.4-1.5-0.9c0.2,0.7,1,1.2,1,1.2s-1,0.4-1.4,0.6
								c-1.1-0.2-1.7-0.8-1.7-0.8L133.1,79.6z"/>
						</g>
					</g>
				</g>
			</g>
		</g>
		<g>
			<g>
				<g>
					<g>
						<g>
							<path class="st12" d="M130.3,74.1c0.6,0.7,1.1,1.7,1.2,2.2C130.6,75.8,130.3,75.1,130.3,74.1z"/>
						</g>
					</g>
				</g>
			</g>
		</g>
		<g>
			<g>
				<g>
					<g>
						<g>
							<path class="st12" d="M141.8,76.3c-0.1,0-2.6-0.4-3.3-0.4c-0.6,0-1.5,0.9-1.4,3.3c0,0,0.5-1.3,0.9-1.9
								c-0.4,1.1-0.5,2.5-0.4,3.1c0.3-1.5,0.8-2.7,1.2-3.3c-0.4,1.2-0.4,2.8-0.4,2.8s0.5-1.6,1-2.5c-0.1,0.7-0.2,1.5-0.1,2
								c0.2-0.9,0.9-2.1,0.9-2.1l-0.1,1.6c0,0,0.6-0.5,0.6-1.1S141.2,76.6,141.8,76.3z"/>
						</g>
					</g>
				</g>
			</g>
		</g>
		<g>
			<g>
				<g>
					<g>
						<g>
							<path class="st12" d="M136.6,81.9c-1.1,0.5-1.4,1-1.4,1.5c0,0.4,0.6,0.4,0.6,0.1C135.9,83.1,136.1,82.3,136.6,81.9z"/>
						</g>
					</g>
				</g>
			</g>
		</g>
		<g>
			<g>
				<g>
					<g>
						<g>
							<path class="st12" d="M137,84.9c-0.2,0.2-0.6,0.6-1.1,0.6c-0.5,0-0.5-0.4-0.5-0.6c0-0.1,0.3-0.3,0.7-0.2
								C136.4,84.8,136.6,85,137,84.9z"/>
						</g>
					</g>
				</g>
			</g>
		</g>
		<g>
			<g>
				<g>
					<g>
						<g>
							<path class="st12" d="M133.4,83.4c0-0.9,0.6-1.6,1-2c0.3-0.3,1.2-1.1,1.2-1.1s-2.1,0-3.4-0.6s-1.1-1.8-1.1-1.8
								s-0.5-0.5-0.8-1.3c0,0.5-0.1,1.3-0.4,1.7c0-0.8-0.9-3.9-1.2-4.3c0.3,0.1,0.8,0.5,0.8,0.5s-0.2-1.3-0.2-1.6
								c-0.6,0.2-1.2,0.2-1.3,0.3c0,0.1-0.1,1.2,0,1.5c0.1,0.3,0.6,0.1,0.9,0.7c0.3,0.6,0.5,1.9,0.3,3.2c-0.2,1.4-0.1,1.8,0.6,2.9
								c0.3,0.4,0.4,0.8,0.4,1c0.2-0.4,0.3-0.5,0.3-0.5s0-0.6,0.6-1c0.6-0.5,0.8-1.2,0.6-1.6c0.5,0.3,0.7,1.3,0.4,1.7
								c0.4-0.3,0.6-0.8,0.6-0.8s-0.1,1.5-0.6,2.4c-0.5,0.9-1,1-1.4,0.7c-0.1,0-0.4,0.1-0.4,0.1s1.2,0.5,2,0.7
								c0.8,0.2,1.9-0.1,2.1-0.4c0.2-0.3,0.9-2.1,0.9-2.1S133.6,82.5,133.4,83.4z M132.8,83.5c-0.5-0.2-0.2-1.3,0.8-2.2
								C133.1,81.8,133.3,83.7,132.8,83.5z"/>
						</g>
					</g>
				</g>
			</g>
		</g>
		<g>
			<g>
				<g>
					<g>
						<g>
							<g>
								<path class="st12" d="M143.8,83c-0.3,0.3-0.6,0.5-0.8,0.4c-0.1-0.1,0-0.5,0.3-0.8c0.3-0.3,0.6-0.5,0.8-0.4
									C144.2,82.3,144.1,82.7,143.8,83z"/>
							</g>
						</g>
					</g>
				</g>
				<g>
					<g>
						<g>
							<g>
								<path class="st11" d="M143.2,83.6c-0.1,0-0.2,0-0.2-0.1c-0.1-0.1-0.1-0.2-0.1-0.5c0.1-0.2,0.2-0.4,0.3-0.5
									c0.3-0.3,0.7-0.6,0.9-0.4c0.2,0.2,0,0.6-0.3,1l0,0c-0.2,0.2-0.3,0.3-0.5,0.4C143.3,83.6,143.2,83.6,143.2,83.6z M144,82.3
									c-0.1,0-0.3,0.1-0.6,0.4c-0.1,0.1-0.2,0.3-0.3,0.4c0,0.1,0,0.2,0,0.2c0,0,0.1,0,0.2,0c0.1-0.1,0.3-0.2,0.4-0.3
									C144,82.6,144.1,82.4,144,82.3C144,82.3,144,82.3,144,82.3z"/>
							</g>
						</g>
					</g>
				</g>
			</g>
			<g>
				<g>
					<g>
						<g>
							<g>
								<path class="st11" d="M143.9,83.8c-0.2,0.2-0.5,0.3-0.6,0.2c-0.1-0.1-0.1-0.4,0.1-0.6c0.2-0.2,0.5-0.3,0.6-0.2
									C144.1,83.3,144.1,83.6,143.9,83.8z"/>
							</g>
						</g>
					</g>
				</g>
			</g>
		</g>
		<g>
			<g>
				<g>
					<g>
						<g>
							<g>
								<path class="st11" d="M146.6,81.8c-0.4,0.4-0.9,0.6-1.1,0.4s-0.1-0.7,0.2-1.2c0.4-0.4,0.9-0.6,1.1-0.4
									C147.1,80.9,147,81.4,146.6,81.8z"/>
							</g>
						</g>
					</g>
				</g>
			</g>
			<g>
				<g>
					<g>
						<g>
							<g>
								<path class="st12" d="M146.4,80.9c-0.4,0.5-0.9,0.7-1.2,0.4c-0.3-0.2-0.1-0.8,0.3-1.2c0.4-0.5,0.9-0.7,1.2-0.4
									C146.9,79.9,146.8,80.5,146.4,80.9z"/>
							</g>
						</g>
					</g>
				</g>
				<g>
					<g>
						<g>
							<g>
								<path class="st11" d="M145.5,81.6c-0.1,0-0.3,0-0.4-0.1c-0.2-0.1-0.2-0.4-0.1-0.7c0.1-0.3,0.2-0.5,0.4-0.8
									c0.2-0.2,0.5-0.4,0.7-0.5c0.3-0.1,0.5-0.1,0.7,0.1c0.3,0.3,0.2,0.9-0.3,1.4l0,0c-0.2,0.2-0.5,0.4-0.7,0.5
									C145.7,81.5,145.6,81.6,145.5,81.6z M146.4,79.7c-0.1,0-0.1,0-0.2,0c-0.2,0.1-0.4,0.2-0.6,0.4c-0.2,0.2-0.3,0.4-0.4,0.7
									c0,0.2,0,0.3,0.1,0.4c0.1,0.1,0.2,0.1,0.4,0c0.2-0.1,0.4-0.2,0.6-0.4l0,0c0.4-0.4,0.5-0.9,0.3-1.1
									C146.5,79.7,146.5,79.7,146.4,79.7z"/>
							</g>
						</g>
					</g>
				</g>
			</g>
		</g>
		<g>
			<g>
				<g>
					<g>
						<g>
							<path class="st11" d="M144.2,79.4c0,0.2-0.1,0.3-0.2,0.3c-0.1,0-0.2-0.1-0.2-0.3s0.1-0.3,0.2-0.3
								C144.1,79.1,144.2,79.3,144.2,79.4z"/>
						</g>
					</g>
				</g>
			</g>
		</g>
		<g>
			<g>
				<g>
					<g>
						<g>
							<path class="st12" d="M147.5,77.7c-0.1,0.4-0.5,0.6-0.8,0.5c-0.3-0.1-0.4-0.5-0.3-0.9c0.1-0.4,0.5-0.6,0.8-0.5
								C147.5,76.9,147.6,77.3,147.5,77.7z"/>
						</g>
					</g>
				</g>
			</g>
			<g>
				<g>
					<g>
						<g>
							<path class="st11" d="M146.9,78.4c-0.1,0-0.1,0-0.2,0c-0.4-0.1-0.5-0.6-0.4-1c0.1-0.2,0.2-0.4,0.4-0.5
								c0.2-0.1,0.4-0.2,0.6-0.1c0.2,0.1,0.3,0.2,0.4,0.4c0.1,0.2,0.1,0.4,0,0.6C147.5,78.1,147.2,78.4,146.9,78.4z M147,76.9
								c-0.1,0-0.2,0-0.2,0.1c-0.1,0.1-0.2,0.2-0.3,0.4c-0.1,0.3,0,0.7,0.2,0.7c0.2,0.1,0.5-0.1,0.6-0.5l0,0c0.1-0.2,0.1-0.3,0-0.5
								C147.3,77.1,147.2,77,147,76.9C147.1,76.9,147.1,76.9,147,76.9z"/>
						</g>
					</g>
				</g>
			</g>
		</g>
		<g>
			<g>
				<g>
					<g>
						<g>
							<path class="st11" d="M131.9,69.8c0,0,1.6-1.6,2.7-2.3c1-0.8,2.2-1.3,3-1.3c0.9,0,3.3,1.3,3.9,1.7c0.6,0.4,1.3,1.4,1.3,1.4
								s-0.3,0.3-1,0.4c-0.7,0.1-8.2,0.6-8.2,0.6S132.3,70.2,131.9,69.8z"/>
						</g>
					</g>
				</g>
			</g>
		</g>
		<g>
			<g>
				<g>
					<g>
						<g>
							<path class="st12" d="M132.4,69.8c1.4-1.2,2.5-2.2,3.1-2.5c0.6-0.4,1.3-0.7,2.1-0.7c0.8,0,3.6,1.9,3.6,1.9s-2.3-0.5-4-0.5
								c0.6-0.2,1.5-0.3,1.5-0.3s-0.5-0.3-1.6-0.3c-1.1,0-1.6,0.4-2.7,1.3c-1.1,0.9-1.6,1.3-1.6,1.3S132.5,69.9,132.4,69.8z"/>
						</g>
					</g>
				</g>
			</g>
		</g>
		<g>
			<g>
				<g>
					<g>
						<g>
							<path class="st11" d="M144.1,68.2c-0.7,0.1-2.2,0.4,1.6,1.3c0,0-2.1,0.9-2.3,0.9c2,0,4.1-0.6,4.1-0.6l1.5,0l-0.1-1.2
								L144.1,68.2z"/>
						</g>
					</g>
				</g>
			</g>
		</g>
		<g>
			<g>
				<g>
					<g>
						<g>
							<polygon class="st11" points="125.6,68.9 126,62.5 126.4,68.9 							"/>
						</g>
					</g>
				</g>
			</g>
		</g>
	</g>
	<g>
		<g>
			<path class="st12" d="M165.5,51c-0.1-0.7-0.3-1.4-0.7-2l0-0.1c0-0.1-0.1-0.2-0.2-0.2l-0.5-0.4c0,0,0,0,0,0
				c-0.8-0.5-2.3-1.3-4-1.4c-0.3,0-0.8,0-1.9,0.2c-1.9,0.2-5.1,0.7-9.6,1.3c0,0-0.1,0-0.1,0l-5.8,0.8c-0.1,0-0.2,0-0.3,0.1
				c-2.9,0.4-5.5,0.8-6.8,1c-0.2,0-0.4,0-0.7,0c-0.5-0.1-1.2,0-2.1,0.3c-0.1,0.1-0.3,0.1-0.4,0.1l-8.2,1.2c-0.3,0-0.9-0.1-1.4,0
				c-0.4,0-0.8,0.2-1.1,0.3l-0.1,0.1c-0.2,0.1-0.3,0.1-0.5,0.2c-0.6,0.1-3,0.6-3.4,0.6c-0.2,0-1,0-1.6-0.1c-0.4,0-0.9,0.2-1.1,0.5
				l-1.7-0.1c-0.2,0-0.4,0.1-0.5,0.2l-0.1,0.1c0,0-0.3,0.3-0.9,0.4c-0.2,0-0.5,0.1-0.7,0.1l0,0c-0.7,0-1.2,0.5-1.3,1.2
				c0,0.1,0,0.1,0,0.2c0,0.1-0.1,0.2-0.1,0.3c-0.1,0.3-0.3,0.5-0.3,0.5l-0.1,0.1c-0.2,0.1-0.3,0.3-0.3,0.5l0,0.1c0,0,0,0.3,0,0.7
				c0,0.2,0,0.4,0.1,0.5c0,0.1,0.1,0.2,0.1,0.3c0,0.4,0.1,0.7,0.3,1.1c0.2,0.4,0.5,0.6,0.9,0.8c-0.3,0.8,0.1,1.9,0.8,2.4
				c0.6,0.5,1.4,0.6,2.4,0.3c0,0,0,0,0,0c0,0,0,0,0,0c0.2,0,0.4-0.1,0.6-0.1c0,0,0.1,0,0.1,0c0.1,0,0.2,0,0.3,0c0,0,0.1,0,0.1,0
				c0,0,0,0,0,0c-0.1,0.3,0,0.6,0.3,0.7c0.1,0.1,0.3,0.1,0.4,0.1c0.1,0,0.3,0,0.4-0.1l0.7-0.5c0.2-0.1,0.9-0.3,3.5-0.6l0.5-0.1
				c0.3,0,1-0.2,2.1-0.3c3-0.5,9.1-1.5,10.3-1.5c1.3,0,2.5-0.3,3.3-0.5c0.3-0.1,0.6-0.2,0.9-0.2c0.5-0.1,3.2-0.5,5.8-0.9l4.6-0.7
				c0.4-0.1,0.8-0.1,1.4-0.2l2.1-0.3c2.7-0.3,5.6-0.7,7-0.8c2.9-0.3,4.9-1.8,6.4-2.9c0.3-0.2,0.5-0.4,0.7-0.5l0.1-0.1
				c0.1-0.1,0.2-0.2,0.3-0.4l0-0.1C165.5,52.4,165.6,51.7,165.5,51z"/>
		</g>
	</g>
	<g>
		<g>
			<g>
				<path class="st11" d="M165,51.1c-0.1-0.7-0.3-1.3-0.6-1.9l0-0.1c0,0,0,0-0.1-0.1l-0.5-0.3c0,0,0,0,0,0c-0.7-0.5-2.2-1.3-3.8-1.3
					c-0.3,0-0.9,0-1.9,0.2c-1.9,0.2-5.1,0.7-9.6,1.3c0,0-0.1,0-0.1,0l-5.8,0.8c-0.1,0-0.1,0-0.1,0.1c0,0,0,0,0,0
					c-3,0.4-5.6,0.8-7,1.1c-0.3,0-0.5,0-0.8,0c-0.4,0-1.1,0-1.8,0.3c-0.2,0.1-0.3,0.1-0.5,0.1l-8.3,1.2c-0.2,0-0.8-0.1-1.4,0
					c-0.3,0-0.6,0.1-0.9,0.3l-0.1,0.1c-0.2,0.1-0.4,0.2-0.6,0.2c-0.6,0.1-3,0.6-3.4,0.6c-0.2,0-1.1,0-1.7-0.1
					c-0.2,0-0.5,0.1-0.6,0.3c0,0.1-0.1,0.2-0.1,0.2l-2.1-0.1c-0.1,0-0.1,0-0.1,0.1L113,54c0,0-0.4,0.4-1.1,0.5
					c-0.3,0.1-0.5,0.1-0.8,0.1c0,0,0,0,0,0c-0.4,0-0.7,0.3-0.8,0.7c0,0.1,0,0.2-0.1,0.3c0,0.1-0.1,0.3-0.1,0.4
					c-0.2,0.4-0.4,0.6-0.4,0.7l-0.1,0.1c0,0-0.1,0.1-0.1,0.1l0,0.1c0,0,0,0.3,0,0.6c0,0.2,0,0.3,0.1,0.4c0,0.1,0.1,0.2,0.1,0.3
					c0,0.3,0.1,0.6,0.3,0.9c0.2,0.3,0.4,0.5,0.7,0.6c0,0,0,0,0,0c0.1,0.1,0.2,0.2,0.2,0.3c0,0,0,0.1,0,0.1c-0.4,0.6-0.1,1.6,0.5,2
					c0.5,0.4,1.1,0.4,2,0.2l0-0.2l0,0l0.1,0.2c0.2,0,0.5-0.1,0.7-0.1c0,0,0,0,0.1,0c0.1,0,0.2,0,0.3,0c0,0,0,0,0,0
					c0.4,0,0.6,0.1,0.7,0.1l-0.2,0.5c0,0.1,0,0.2,0.1,0.2c0,0,0.1,0,0.1,0c0,0,0.1,0,0.1,0l0.7-0.5c0.4-0.3,2.7-0.6,3.7-0.7l0.5-0.1
					c0.3,0,1-0.2,2.1-0.3c3.2-0.5,9.1-1.5,10.4-1.5c1.2,0,2.4-0.3,3.2-0.5c0.4-0.1,0.7-0.2,0.9-0.2c0.5-0.1,3.2-0.5,5.8-0.9l4.6-0.7
					c0.4-0.1,0.8-0.1,1.4-0.2l0.6-0.1c0.4,0,0.8-0.1,1.2-0.2l0.4-0.1c2.7-0.3,5.6-0.7,7-0.8c2.7-0.2,4.7-1.7,6.2-2.8
					c0.3-0.2,0.5-0.4,0.8-0.5l0.1-0.1c0,0,0.1-0.1,0.1-0.1l0-0.1C165,52.3,165.1,51.7,165,51.1z M114.2,62.2L114.2,62.2L114.2,62.2
					L114.2,62.2z"/>
			</g>
		</g>
		<g>
			<g>
				<g>
					<g>
						<g>
							<g>
								<path class="st12" d="M117.4,57c-0.2,0.6-0.2,1.3-0.3,2c0,0.2,0,0.5-0.1,0.8c-0.1,0.5-0.2,1-0.4,1.4c0,0.1-0.1,0.1,0,0.2
									c-0.3,0.3-0.6,0.5-0.8,0.8c-0.1,0-0.1-0.1-0.1-0.1c-0.1-0.2-0.6-0.3-1.1-0.3c0,0,0,0,0,0c-0.1,0-0.2,0-0.4,0c0,0,0,0,0,0
									c-0.3,0-0.6,0-0.8,0.1c0,0,0,0,0,0c0,0-0.1,0-0.1,0c-0.7,0.2-1.2,0.2-1.6-0.2c-0.4-0.3-0.6-1-0.4-1.4c0,0,0-0.1,0.1-0.1
									c0-0.1,0-0.3-0.1-0.4c0,0,0,0,0,0c-0.1-0.2-0.2-0.4-0.4-0.5c-0.1,0-0.1-0.1-0.2-0.1c-0.2,0-0.3-0.2-0.4-0.4c0,0,0,0,0,0
									c-0.1-0.2-0.2-0.5-0.2-0.8c-0.1-0.1-0.1-0.1-0.1-0.3c0-0.1,0-0.2,0-0.3l0,0c0-0.3,0-0.5,0-0.5c0.2-0.1,0.4-0.5,0.6-0.9l0,0
									c0.1-0.2,0.1-0.3,0.2-0.5c0-0.1,0.1-0.3,0.1-0.4c0-0.1,0.1-0.2,0.3-0.2c1.5,0,2.3-0.7,2.3-0.7l2.6,0.2L117.4,57z"/>
							</g>
						</g>
					</g>
				</g>
				<g>
					<g>
						<g>
							<g>
								<path class="st11" d="M115.8,62.6l-0.2-0.1c-0.1-0.1-0.1-0.1-0.2-0.2c-0.1,0-0.3-0.1-0.9-0.1l0,0l0,0c-0.1,0-0.2,0-0.3,0
									c0,0,0,0,0,0c-0.3,0-0.6,0-0.8,0.1l0,0c0,0,0,0,0,0l0,0c-0.8,0.2-1.4,0.1-1.8-0.2c-0.5-0.4-0.8-1.2-0.5-1.8c0,0,0,0,0,0
									c0-0.1,0-0.1,0-0.2l0,0c-0.1-0.1-0.2-0.3-0.3-0.3c0,0-0.1,0-0.1,0c-0.2-0.1-0.4-0.2-0.6-0.5l0,0c-0.1-0.3-0.2-0.6-0.2-0.9
									c0-0.1-0.1-0.2-0.1-0.3c0-0.1,0-0.2,0-0.4l0,0c0-0.3,0-0.6,0-0.6l0-0.1l0.1-0.1c0.1-0.1,0.3-0.4,0.5-0.8
									c0.1-0.2,0.1-0.3,0.1-0.4c0-0.1,0-0.2,0.1-0.3c0-0.3,0.3-0.5,0.6-0.5c1.4,0,2.1-0.6,2.1-0.7l0.1-0.1l0.1,0l2.7,0.2l1.7,2.8
									l0,0.1c-0.1,0.4-0.2,0.8-0.2,1.3c0,0.2,0,0.4,0,0.6c0,0.1,0,0.2,0,0.4c0,0.1,0,0.3,0,0.4c-0.1,0.5-0.2,1.1-0.5,1.5l0,0.1
									l-0.1,0.1c-0.1,0.1-0.2,0.2-0.3,0.3c-0.2,0.2-0.3,0.3-0.5,0.5L115.8,62.6z M115.5,62.3C115.5,62.3,115.5,62.3,115.5,62.3
									L115.5,62.3z M114.6,61.6c0.7,0,1,0.1,1.2,0.2c0.1-0.1,0.2-0.2,0.3-0.3c0.1-0.1,0.2-0.2,0.3-0.2c0-0.1,0-0.2,0.1-0.3
									c0.2-0.3,0.3-0.8,0.4-1.3c0-0.1,0-0.3,0-0.4c0-0.1,0-0.3,0-0.4c0-0.2,0-0.4,0-0.6c0-0.4,0-0.9,0.2-1.3l-1.4-2.3l-2.3-0.2
									c-0.3,0.2-1.1,0.7-2.4,0.7c0,0.1,0,0.3-0.1,0.4c0,0.2-0.1,0.3-0.2,0.5c-0.2,0.4-0.4,0.7-0.6,0.9c0,0.1,0,0.2,0,0.4l0,0
									c0,0.1,0,0.2,0,0.3c0,0.1,0,0.1,0,0.1l0.1,0.1l0,0.1c0,0.2,0,0.5,0.1,0.7l0,0c0.1,0.1,0.2,0.2,0.3,0.2
									c0.1,0,0.2,0.1,0.2,0.1c0.2,0.1,0.4,0.4,0.5,0.6l0,0c0.1,0.2,0.1,0.4,0.1,0.5c0,0.1-0.1,0.2-0.1,0.2c-0.2,0.2,0,0.8,0.3,1
									c0.3,0.2,0.7,0.3,1.4,0.1l0,0c0,0,0.1,0,0.1,0l0,0c0.2,0,0.6-0.1,0.9-0.1l0,0C114.3,61.6,114.4,61.6,114.6,61.6L114.6,61.6
									L114.6,61.6z"/>
							</g>
						</g>
					</g>
				</g>
			</g>
			<g>
				<g>
					<g>
						<g>
							<g>
								<path class="st11" d="M112,55.2C112.1,55.2,112,55.2,112,55.2C112,55.2,112,55.2,112,55.2l-0.1,0c-0.1,0-0.1,0.1-0.2,0.2
									c-0.1,0.1-0.1,0.2-0.1,0.2c0,0.1,0,0.2,0,0.3c-0.1-0.1-0.1-0.2-0.2-0.3c0-0.1,0-0.2,0-0.3c0-0.1,0-0.2,0.1-0.3l0-0.1
									c0,0,0-0.1,0.1-0.1c0,0,0-0.1,0.1-0.1c0,0,0,0,0.1,0c0,0,0.1,0,0.1,0L112,55.2z"/>
							</g>
						</g>
					</g>
				</g>
			</g>
			<g>
				<g>
					<g>
						<g>
							<g>
								<path class="st11" d="M113.2,54.3c0.1,0.1,0.2,0.2,0.3,0.3c0.1,0.1,0.2,0.2,0.3,0.3c0.2,0.2,0.4,0.4,0.6,0.7
									c-0.2-0.2-0.5-0.3-0.7-0.4c-0.1-0.1-0.2-0.1-0.4-0.2c-0.1-0.1-0.3-0.1-0.4-0.2L113.2,54.3z"/>
							</g>
						</g>
					</g>
				</g>
			</g>
			<g>
				<g>
					<g>
						<g>
							<g>
								<path class="st11" d="M116.5,59.6c-0.2-0.1-0.3-0.2-0.4-0.3c-0.1-0.1-0.2-0.3-0.3-0.4c-0.1-0.1-0.1-0.3-0.2-0.5
									c0-0.1,0-0.2,0-0.2c0-0.1,0-0.2,0.1-0.2c0,0.1,0.1,0.1,0.1,0.2c0,0.1,0.1,0.1,0.1,0.2c0.1,0.1,0.2,0.2,0.3,0.3
									c0.2,0.2,0.4,0.4,0.7,0.4L116.5,59.6z"/>
							</g>
						</g>
					</g>
				</g>
			</g>
			<g>
				<g>
					<g>
						<g>
							<g>
								<path class="st11" d="M115.4,57.4c-0.1,0.1-0.1,0.8,0.6,0.7C116,57.7,115.6,57.3,115.4,57.4z"/>
							</g>
						</g>
					</g>
				</g>
			</g>
			<g>
				<g>
					<g>
						<g>
							<g>
								<path class="st11" d="M115.7,59.6l0.8-0.3l-0.5-0.4c-0.9-0.1-0.9-0.9-0.9-1.2c0-0.3-0.1-1-0.9-1.5c-0.8-0.5-0.9-0.8-0.8-1
									c-0.1,0.4,0.1,0.8,0.6,1.2c0.5,0.3,0.9,1.3,0.6,1.9c-0.3-0.4,0.1-1.1-0.7-1.8c0.2,0.2,0.1,0.9,0.1,0.9
									c-0.2-0.7-0.9-0.9-1.4-0.9c-0.4-0.3-0.7-0.6-0.5-1c-0.2,0.3-0.2,0.7,0.2,1.1l0,0.2c0,0-0.3-0.2-0.7-0.2
									c-0.4,0-0.8-0.5-0.7-0.8l-0.2-0.3l-0.2,0.5l0,0c0,0,0.1,0.7,0.7,0.9c0.6,0.2,0.6,0.1,0.8,0.3c-0.2,0-0.4,0.1-0.5,0.3
									c-0.3-0.3-1.2-0.6-1.6,0l0,0l0,0.3l0.1,0.3c0,0,0.3,0,0.3-0.1c0-0.1-0.1-0.3,0-0.3c0.1,0,0.6,0.2,0.8,0.5
									c-0.2,0-0.5-0.1-0.5-0.1s0.2,0.5,0.9,0.5c0-0.2,0.1-0.4,0.3-0.3c0.2,0,0.3,0.3,0.1,0.4c0.1,0.3,0.5,0.7,0.5,0.7
									s-0.9,0.4-1-0.7c0,0-0.3,0-0.4,0c-0.1,0-0.2,0.5-0.4,0.2l-0.3,0c0,0,0,0,0,0c0,0,0.1,0.3,0.6,0.5c0.5,0.1,1,0.6,1.5,0.5
									c-0.2,0.2-0.8,0.2-1.1,0c0,0,0,0.2,0.1,0.4c0.1,0.4,0.3,0.9,0.8,1.1c-0.3-0.4-0.2-0.7-0.2-0.7s0.5,0.7,1.1,0.8
									c-0.2,0.1-0.5,0.1-0.5,0.1s0.2,0.3,0.8,0.3c0,0,0,0,0,0c0,0,0.4-0.1,0.8-0.1c0,0,0,0,0,0c0.1,0,0.3,0,0.4,0c0,0,0,0,0,0
									c0.5,0,1,0.1,1.1,0.3c0,0,0.1,0.1,0.1,0.1c0.1-0.1,0.2-0.2,0.2-0.2l-0.1-0.3c0,0-0.9-0.2-1-0.3s0.3-0.2,0.1-0.4
									c-0.2-0.1-0.5-0.9,0-0.7c0.5,0.1,0.3,1.1,0.3,1.1s0.5,0,0.6-0.5c0.1-0.5-0.5-1.1-0.5-1.1l0.8,0.5L115.7,59.6z M112.1,58.1
									c-0.1,0-0.1,0-0.2-0.1c0-0.1,0-0.2,0-0.2c0.1,0,0.1,0,0.2,0.1C112.2,58,112.1,58.1,112.1,58.1z M112.7,57.7
									c0.1,0,0.2,0,0.2,0.1c0,0.1,0,0.2,0,0.2c-0.1,0-0.2,0-0.2-0.1C112.6,57.8,112.6,57.7,112.7,57.7z M112.5,60.2
									c0.1,0.2,0.4,0.5,0.7,0.7C112.7,60.9,112.5,60.6,112.5,60.2z M113.4,60.2c0,0,0.5,0.7,0.7,0.9
									C113.4,61,113.4,60.6,113.4,60.2z M114.3,59.8c-0.1,0-0.2-0.1-0.3-0.2c-0.1,0-0.5,0.1-0.7,0.1c-0.4-0.1-0.7-0.6-0.7-0.9
									c0.2,0.3,1.3,0.4,1.4,0.5c0-0.1,0.1-0.1,0.2-0.1c0.1,0,0.3,0.1,0.3,0.3C114.5,59.6,114.4,59.8,114.3,59.8z"/>
							</g>
						</g>
					</g>
				</g>
			</g>
			<g>
				<g>
					<g>
						<g>
							<g>
								<path class="st11" d="M112.7,55.1c0.1,0.2,0,0.4-0.1,0.4c-0.1,0-0.2-0.1-0.3-0.3c-0.1-0.2,0-0.4,0.1-0.4
									C112.5,54.7,112.7,54.9,112.7,55.1z"/>
							</g>
						</g>
					</g>
				</g>
			</g>
			<g>
				<g>
					<g>
						<g>
							<g>
								<path class="st11" d="M112.6,55.9c0,0.1,0,0.1-0.1,0.2c-0.1,0-0.1,0-0.1-0.1c0-0.1,0-0.1,0.1-0.2
									C112.5,55.8,112.6,55.8,112.6,55.9z"/>
							</g>
						</g>
					</g>
				</g>
			</g>
		</g>
		<g>
			<g>
				<g>
					<g>
						<g>
							<g>
								<path class="st4" d="M163.9,49.4l0.5,3.4c-0.3,0.6-1,0.8-1.5,1.2c-1.5,1.1-3.5,1.9-5.2,2c-2.3,0.2-8.2,0.9-10.5,1.3
									c-2.3,0.3-9.5,1.5-10.3,1.6c-0.8,0.1-2.3,0.7-4,0.7c-1.7,0-11.4,1.7-12.6,1.8c-1.2,0.2-3.9,0.5-4.4,0.9
									c0.2-0.7,1.2-1.9,1.2-1.9l-0.2-1.4c-0.1-0.4,0.3-1.9,0.5-2.6c0-0.1-0.1-0.1-0.2-0.2c-0.4-0.5-1.3-1.1-1.3-1.1l0.8-0.1
									c-0.3-0.2-0.6-0.6-0.8-0.8c-0.1-0.1,0-0.2,0.1-0.2c0.5,0.1,1.5,0.1,1.8,0.1c0.4,0,2.9-0.5,3.5-0.6c0.3-0.1,0.5-0.2,0.7-0.3
									c0,0,0,0,0,0c0.3-0.1,0.6-0.3,0.8-0.3c0.6,0,1.3,0,1.4,0c0,0,0,0,0,0l8.3-1.2c0.2,0,0.4-0.1,0.6-0.2
									c0.7-0.3,1.3-0.3,1.6-0.2c0.3,0,0.6,0,0.9,0c3-0.5,17.4-2.6,22.6-3.3c0.9-0.1,1.5-0.2,1.8-0.2c1.5,0,3,0.9,3.6,1.3l0,0
									c0.1,0.1,0.1,0.1,0.2,0.1C163.8,49.3,163.9,49.4,163.9,49.4C163.9,49.4,163.9,49.4,163.9,49.4
									C163.9,49.4,163.9,49.4,163.9,49.4z"/>
							</g>
						</g>
					</g>
				</g>
			</g>
			<g>
				<g>
					<g>
						<g>
							<g>
								<path class="st11" d="M163.9,49.4c0.2,0.3,0.4,0.9,0.6,1.6c0.1,0.8,0,1.4-0.1,1.8c-0.4,0.5-1.1,1.1-2.3,1.7
									c-1,0.5-2,1.1-3,1.3c0,0,0,0,0,0c-0.5,0.1-0.9,0.2-1.4,0.2c-0.4,0-0.8,0.1-1.3,0.1c-1.6,0.2-3.9,0.4-5.8,0.7
									c0,0-0.1,0-0.1,0c-0.5,0.1-0.9,0.1-1.4,0.2c-0.8,0.1-1.4,0.2-1.9,0.3c-0.6,0.1-1.7,0.3-2.9,0.4c-0.4,0.1-0.9,0.1-1.4,0.2
									l0,0c-2.7,0.4-5.6,0.9-6.1,0.9c-0.1,0-0.3,0-0.4,0.1c-0.9,0.2-2.1,0.6-3.6,0.6c-0.2,0-0.6,0-1.1,0.1l0,0
									c-0.7,0.1-1.7,0.2-2.8,0.4c-0.2,0-0.5,0.1-0.7,0.1c-2.4,0.4-5,0.8-6.6,1c0,0,0,0,0,0c-0.6,0.1-1.1,0.2-1.3,0.2
									c-1.2,0.2-3.9,0.5-4.4,0.9c0.2-0.7,1.2-1.9,1.2-1.9l-0.2-1.4c-0.1-0.4,0.3-1.9,0.5-2.6c0-0.1-0.1-0.1-0.2-0.2
									c0,0,1-0.6,2.5-1.5c1.5-0.9,2.2-1.6,2.2-1.6c0,0,0,0,0,0c0.3-0.1,0.6-0.3,0.8-0.3c0.6,0,1.3,0,1.4,0c-0.3,0-1.4,0.2-2.6,1.1
									c-1.4,1-1.9,1.4-2.2,1.6c-0.3,0.1-1.5,0.7-1.8,2.1c0.3-0.5,0.7-0.7,0.7-0.7s-0.3,0.8-0.3,1.4l4.3-0.6c0,0,0.3-1.3,5.8-3.7
									c-2.3,1.4-3.2,2.3-3.2,2.3s-0.8-0.2-2.1,2c0.7-0.6,1.2-1.3,1.5-0.8c0,0,5.8-0.9,6.5-1c0.6-0.1,0.8,0,1.2-0.2
									c0.4-0.2,2.5-1.4,3.5-2.3c1-0.9,1.9-1.9,2.4-2.1c-1,1-1.8,1.8-2.3,2.3c-0.5,0.5-2.4,2-2.4,2s3.3-0.6,3.5-0.6
									c0.2,0,0.6,0.3,1.2-0.2c0.6-0.5,3.2-3.1,3.3-3.2l-2.4,3.1l12.3-1.7c0,0,1.4-2.4,5.6-3.7c-2.3,1-3.1,1.5-4.5,3.3
									c-0.7,0.5-1.3,1.4-1.3,1.5c0.1-0.1,1.3-1.2,1.7-1.4l7.6-1.2c0,0-1.9-0.5-4-0.2c2.5-0.7,6.4-0.4,6.5-0.4
									c-0.1,0-2.4-1-4.8-0.7c2.2-0.7,5.7-0.7,5.7-0.7l0-0.3c0,0-2.1,0.6-4.1-0.2c1.5,0.2,2.3,0.3,3.8-0.3c0,0-2.3-1-2.4-1
									c-0.9-0.4-1.5-0.1-2.6-0.3l0,0c0.9-0.1,1.5-0.2,1.8-0.2c1.5,0,3,0.9,3.6,1.3l0,0c0.1,0.1,0.1,0.1,0.2,0.1
									C163.8,49.3,163.9,49.4,163.9,49.4C163.9,49.4,163.9,49.4,163.9,49.4C163.9,49.4,163.9,49.4,163.9,49.4z"/>
							</g>
						</g>
					</g>
				</g>
			</g>
			<g>
				<g>
					<g>
						<g>
							<g>
								<path class="st12" d="M164.2,52.6l0.1,0c-1,1.7-3.4,2.5-5.4,2.9C160.5,55,163,53,164.2,52.6z"/>
							</g>
						</g>
					</g>
				</g>
			</g>
			<g>
				<g>
					<g>
						<g>
							<g>
								<path class="st12" d="M162.2,53.2c-1.5,0.5-3.6,1-5.8,3c-1.6,0.2-3.9,0.4-5.8,0.7l0.6-0.7l3.7-0.4c0,0,0.3,0.2,0.6,0.2
									C155.9,55.9,158.8,53.5,162.2,53.2z"/>
							</g>
						</g>
					</g>
				</g>
			</g>
			<g>
				<g>
					<g>
						<g>
							<g>
								<path class="st12" d="M142.9,58c-2.7,0.4-5.6,0.8-6.1,0.9c-0.1,0-0.3,0-0.4,0.1c0.2-0.1,1-0.8,2.1-1
									c1.2-0.3,3.5-0.5,3.5-0.5L142.9,58z"/>
							</g>
						</g>
					</g>
				</g>
			</g>
			<g>
				<g>
					<g>
						<g>
							<g>
								<path class="st12" d="M137.2,56.4c-0.2,1-2,2.5-2,2.5l-3.6,0.8l0,0c-0.7,0.1-1.7,0.2-2.8,0.4l1.3-0.8l4.9-0.8
									C135.1,58.5,136.6,57.4,137.2,56.4z"/>
							</g>
						</g>
					</g>
				</g>
			</g>
			<g>
				<g>
					<g>
						<g>
							<g>
								<path class="st12" d="M131,57.4c-0.2,0.5-1.2,1.3-1.8,1.8c-0.6,0.5-1,1.1-1,1.1c-2.4,0.4-5,0.8-6.6,1c1.5-0.7,2.5-1,3.2-1.1
									c0.7-0.1,3.5-0.6,3.5-0.6s0.7-0.7,1.3-1C130.2,58.2,130.8,57.7,131,57.4z"/>
							</g>
						</g>
					</g>
				</g>
			</g>
			<g>
				<g>
					<g>
						<g>
							<g>
								<path class="st12" d="M119.3,61.3c0.2-0.1,0.5-0.2,0.7-0.3c0.2-0.1,0.4-0.3,0.6-0.4c0.2-0.2,0.4-0.3,0.6-0.5
									c0.2-0.2,0.3-0.4,0.4-0.6c0,0.3-0.2,0.5-0.3,0.7c-0.1,0.2-0.3,0.4-0.5,0.6c-0.2,0.2-0.4,0.4-0.6,0.5
									c-0.2,0.2-0.4,0.3-0.7,0.5L119.3,61.3z"/>
							</g>
						</g>
					</g>
				</g>
			</g>
			<g>
				<g>
					<g>
						<g>
							<g>
								<path class="st11" d="M115.3,63l0.2-0.8c0.2-0.6,0.9-1.6,1.2-1.9l-0.2-1.3c-0.1-0.5,0.4-2.1,0.5-2.6c0,0,0-0.1-0.1-0.1
									c-0.4-0.5-1.3-1.1-1.3-1.1l-0.6-0.4l0.9-0.1c-0.2-0.2-0.3-0.3-0.4-0.5c-0.1-0.1-0.1-0.3,0-0.5c0.1-0.1,0.2-0.2,0.4-0.2
									c0.5,0.1,1.4,0.1,1.7,0.1c0.4,0,2.9-0.5,3.4-0.6c0.2,0,0.4-0.1,0.6-0.2l0.1-0.1c0.3-0.1,0.6-0.3,0.8-0.3c0.6,0,1.2,0,1.4,0
									l8.3-1.2c0.2,0,0.3-0.1,0.5-0.1c0.7-0.3,1.3-0.3,1.7-0.3c0.3,0,0.6,0,0.9,0c4-0.6,17.5-2.7,22.6-3.3c1-0.1,1.6-0.2,1.8-0.2
									c1.5,0,2.9,0.8,3.7,1.3l0,0l0.1,0.1c0.1,0.1,0.1,0.1,0.2,0.1l0,0c0,0,0.1,0,0.1,0.1l0.1,0.1l0,0.1c0.3,0.6,0.5,1.2,0.6,1.8
									c0.1,0.6,0.1,1.2-0.1,1.8l0,0.1l-0.1,0.1c-0.2,0.2-0.5,0.3-0.8,0.5c-1.4,1.1-3.4,2.5-6.1,2.7c-2.3,0.2-8.2,0.9-10.5,1.3
									c-0.9,0.1-2.6,0.4-4.3,0.7c-2.7,0.4-5.5,0.9-6,0.9c-0.2,0-0.6,0.1-0.9,0.2c-0.8,0.2-1.9,0.5-3.1,0.5c-1.3,0-7.3,1-10.5,1.5
									c-1,0.2-1.8,0.3-2.1,0.3c-0.2,0-0.3,0-0.5,0.1c-1.2,0.2-3.3,0.4-3.8,0.8L115.3,63z M116.5,55.3c0.3,0.2,0.6,0.5,0.8,0.8
									c0.1,0.1,0.1,0.2,0.2,0.3l0.1,0.1l0,0.1c-0.2,0.8-0.6,2.2-0.5,2.5l0.2,1.5l-0.1,0.1c-0.2,0.2-0.6,0.7-0.8,1.2
									c0.8-0.2,2-0.4,3.3-0.6c0.2,0,0.4,0,0.5-0.1c0.3,0,1-0.2,2.1-0.3c3.4-0.6,9.2-1.5,10.6-1.5c1.1,0,2.2-0.3,3-0.5
									c0.4-0.1,0.7-0.2,1-0.2c0.5-0.1,3.3-0.5,6-0.9c1.7-0.3,3.4-0.5,4.3-0.7c2.3-0.3,8.2-1.1,10.5-1.3c2.5-0.2,4.4-1.6,5.8-2.6
									c0.2-0.2,0.5-0.3,0.7-0.5c0.1-0.5,0.1-1,0.1-1.5c-0.1-0.5-0.2-1.1-0.5-1.5l0,0c0,0,0,0-0.1,0l0,0c0,0-0.1-0.1-0.2-0.1l0,0
									c-0.5-0.4-2-1.2-3.5-1.2c-0.2,0-0.6,0-1.8,0.2c-5.1,0.6-18.6,2.6-22.6,3.3c-0.3,0-0.7,0.1-1,0c-0.3,0-0.8,0-1.5,0.2
									c-0.2,0.1-0.5,0.2-0.7,0.2l-8.4,1.2l0,0c-0.2,0-0.7-0.1-1.3,0c-0.2,0-0.4,0.1-0.6,0.2l0,0l0,0l-0.1,0
									c-0.2,0.1-0.5,0.2-0.7,0.3c-0.5,0.1-3.1,0.6-3.5,0.6c-0.3,0-1,0-1.5-0.1c0.2,0.2,0.4,0.4,0.5,0.5l0.7,0.4L116.5,55.3z"/>
							</g>
						</g>
					</g>
				</g>
			</g>
			<g>
				<g>
					<g>
						<g>
							<g>
								<path class="st12" d="M150.5,55.2c0.1,0.6,0.1,1.2,0,1.7c-0.5,0.1-0.9,0.1-1.4,0.2c-0.8,0.1-1.4,0.2-1.9,0.3
									c-0.6,0.1-1.7,0.3-2.9,0.4c-0.4,0.1-0.9,0.1-1.4,0.2c-0.3-0.5-0.4-1.1-0.5-1.7c-0.1-0.5-0.1-1,0-1.5
									c0.1-0.8,0.4-1.6,0.9-2.2l-0.3-2.5l5.2-0.7l0.3,2.4c0.7,0.5,1.2,1.1,1.6,1.9C150.3,54.2,150.4,54.7,150.5,55.2z"/>
							</g>
						</g>
					</g>
				</g>
				<g>
					<g>
						<g>
							<g>
								<path class="st11" d="M142.8,58.3l-0.1-0.2c-0.3-0.6-0.5-1.1-0.6-1.8c-0.1-0.5-0.1-1.1,0-1.6c0.1-0.8,0.4-1.6,0.9-2.2
									l-0.4-2.7l5.8-0.8l0.4,2.6c0.7,0.5,1.2,1.2,1.6,2c0.2,0.5,0.4,1,0.4,1.5c0.1,0.6,0.1,1.2,0,1.8l0,0.2l-0.3,0
									c-0.4,0.1-0.8,0.1-1.2,0.2c-0.8,0.1-1.4,0.2-1.9,0.3c-0.6,0.1-1.7,0.3-2.9,0.4c-0.2,0-0.5,0.1-0.7,0.1L142.8,58.3z
									 M143.3,50.4l0.3,2.3l-0.1,0.1c-0.4,0.6-0.7,1.3-0.8,2c-0.1,0.5-0.1,1,0,1.4c0.1,0.5,0.2,1,0.4,1.4l0.4-0.1
									c0.2,0,0.5-0.1,0.7-0.1c1.2-0.2,2.2-0.3,2.9-0.4c0.5-0.1,1.2-0.2,1.9-0.3c0.4,0,0.8-0.1,1.2-0.1c0.1-0.5,0.1-0.9,0-1.4
									c-0.1-0.5-0.2-0.9-0.4-1.4c-0.3-0.7-0.8-1.4-1.5-1.8l-0.1-0.1l-0.3-2.2L143.3,50.4z"/>
							</g>
						</g>
					</g>
				</g>
			</g>
			<g>
				<g>
					<g>
						<g>
							<g>
								<path class="st11" d="M134.6,51.5c-0.4,0.1-0.8,0.3-1.1,0.5c-0.4,0.2-0.8,0.4-1.1,0.6c-0.7,0.4-1.5,0.8-2.2,1.2
									c-0.7,0.4-1.4,0.9-2.1,1.4c-0.7,0.5-1.4,1-2.1,1.5c0.6-0.5,1.3-1.1,2-1.6c0.7-0.5,1.4-1,2.1-1.5c0.7-0.5,1.4-0.9,2.2-1.3
									c0.4-0.2,0.7-0.4,1.1-0.6c0.4-0.2,0.8-0.4,1.2-0.6L134.6,51.5z"/>
							</g>
						</g>
					</g>
				</g>
			</g>
			<g>
				<g>
					<g>
						<g>
							<g>
								<path class="st11" d="M142.7,50.5c-0.3,0.1-0.7,0.1-1,0.2c-0.3,0.1-0.7,0.2-1,0.3c-0.7,0.2-1.3,0.6-1.9,1
									c-0.2,0.1-0.3,0.2-0.4,0.3c-0.1,0.1-0.3,0.2-0.4,0.3c-0.3,0.2-0.5,0.5-0.8,0.7c-0.3,0.2-0.5,0.5-0.8,0.7
									c-0.3,0.2-0.5,0.5-0.8,0.7c0.5-0.5,1-1.1,1.5-1.6c0.2-0.3,0.5-0.5,0.8-0.8c0.1-0.1,0.3-0.3,0.4-0.4c0.1-0.1,0.3-0.2,0.4-0.4
									c0.6-0.4,1.2-0.8,1.9-1.1c0.7-0.3,1.4-0.5,2.2-0.6L142.7,50.5z"/>
							</g>
						</g>
					</g>
				</g>
			</g>
			<g>
				<g>
					<g>
						<g>
							<g>
								<path class="st11" d="M158.4,48.3c-0.3,0-0.6,0.1-0.9,0.2l-0.2,0.1l-0.2,0.1c-0.1,0-0.3,0.1-0.4,0.2
									c-0.6,0.2-1.1,0.5-1.7,0.7c-0.5,0.3-1.1,0.6-1.6,0.9c-0.5,0.3-1,0.7-1.5,1.1c0.4-0.5,0.9-0.9,1.4-1.3c0.5-0.4,1-0.8,1.5-1.1
									c0.5-0.3,1.1-0.6,1.7-0.9c0.3-0.1,0.6-0.2,0.9-0.3c0.3-0.1,0.6-0.2,1-0.2L158.4,48.3z"/>
							</g>
						</g>
					</g>
				</g>
			</g>
			<g>
				<g>
					<g>
						<g>
							<g>
								<path class="st11" d="M144.1,58.1l-0.1-0.2c-0.3-0.5-0.4-1-0.5-1.5c-0.1-0.7,0-1.3,0.1-1.9c0.2-0.7,0.6-1.2,1-1.6
									c0.4-0.3,0.8-0.5,1.3-0.6c0.4-0.1,0.9,0,1.3,0.2l0,0l0.1,0c0.6,0.2,1.1,0.7,1.4,1.3c0.3,0.5,0.6,1.1,0.7,1.8
									c0.1,0.5,0.1,1,0,1.5l0,0.2l-0.2,0c-0.8,0.1-1.4,0.2-1.9,0.3c-0.6,0.1-1.7,0.3-2.9,0.4L144.1,58.1z M146.1,52.9
									c-0.4,0-0.7,0.2-1,0.4c-0.4,0.3-0.7,0.8-0.9,1.3c-0.2,0.5-0.2,1.1-0.1,1.7c0.1,0.4,0.2,0.8,0.3,1.1c1.1-0.2,2.1-0.3,2.7-0.4
									c0.5-0.1,1.1-0.2,1.7-0.2c0.1-0.4,0.1-0.8,0-1.2c-0.1-0.6-0.3-1.1-0.6-1.6c-0.3-0.5-0.7-0.8-1.2-1l0,0
									C146.8,52.9,146.4,52.9,146.1,52.9z"/>
							</g>
						</g>
					</g>
				</g>
			</g>
			<g>
				<g>
					<g>
						<g>
							<g>
								<path class="st11" d="M146.8,49.6l0.4,3.2l0,0c-0.4-0.2-0.8-0.2-1.2-0.2c-0.4,0.1-0.8,0.2-1.1,0.5l0,0l-0.4-3.2L146.8,49.6z
									"/>
							</g>
						</g>
					</g>
				</g>
				<g>
					<g>
						<g>
							<g>
								<path class="st11" d="M147.5,53l-0.4,0.1l-0.1,0c-0.3-0.1-0.7-0.2-1-0.2c-0.4,0-0.7,0.2-1,0.4l-0.1,0.1l-0.4,0.1l0-0.3
									l-0.5-3.5l2.9-0.4L147.5,53z M144.8,50.2l0.3,2.5c0.5-0.3,1.2-0.4,1.7-0.2l-0.3-2.5L144.8,50.2z"/>
							</g>
						</g>
					</g>
				</g>
			</g>
			<g>
				<g>
					<g>
						<g>
							<g>
								<path class="st11" d="M143.8,55.9c0.2,0.7,0.7,1.1,0.9,1.1c0.2,0,0.3-0.5,1-0.6s1.4,0.2,1.4,0.2s0-0.6,0.5-0.5
									c0.5,0,0.3,0.5,0.3,0.5s0.9,0,0.7-1.2c-0.2-1.2-1.1-1.3-1.3-1.3c-0.2,0-0.7,0.4-1,0.4C145.9,54.5,144.1,53.9,143.8,55.9z"/>
							</g>
						</g>
					</g>
				</g>
			</g>
			<g>
				<g>
					<g>
						<g>
							<g>
								<path class="st12" d="M144.3,51.2l3.1-0.4l0.1,0.6c0,0-1,0-1.6-0.1c-0.5-0.1-1.7,0.2-1.7,0.2L144.3,51.2z"/>
							</g>
						</g>
					</g>
				</g>
			</g>
			<g>
				<g>
					<g>
						<g>
							<g>
								<path class="st11" d="M143.1,55.1c0,0-0.1,0.8,0.1,1.5L143.1,55.1z"/>
							</g>
						</g>
					</g>
				</g>
				<g>
					<g>
						<g>
							<g>
								<path class="st11" d="M143.2,56.8c-0.1,0-0.2-0.1-0.3-0.2c-0.2-0.7-0.1-1.5-0.1-1.6c0-0.1,0.1-0.2,0.3-0.2
									c0.1,0,0.2,0.1,0.2,0.3c0,0-0.1,0.8,0.1,1.4C143.4,56.6,143.3,56.7,143.2,56.8C143.2,56.8,143.2,56.8,143.2,56.8z"/>
							</g>
						</g>
					</g>
				</g>
			</g>
			<g>
				<g>
					<g>
						<g>
							<g>
								<path class="st11" d="M149.5,54.2c0,0,0.3,0.8,0.3,1.4L149.5,54.2z"/>
							</g>
						</g>
					</g>
				</g>
				<g>
					<g>
						<g>
							<g>
								<path class="st11" d="M149.9,55.8C149.9,55.8,149.8,55.8,149.9,55.8c-0.2,0-0.3-0.1-0.3-0.2c0-0.6-0.3-1.4-0.3-1.4
									c0-0.1,0-0.2,0.1-0.3c0.1,0,0.2,0,0.3,0.1c0,0,0.3,0.8,0.3,1.5C150.1,55.7,150,55.8,149.9,55.8z"/>
							</g>
						</g>
					</g>
				</g>
			</g>
			<g>
				<g>
					<g>
						<g>
							<g>
								<path class="st12" d="M162.3,50.7c0.1,0,0.3-0.1,0.4,0c0.1,0,0.3,0.1,0.4,0.1c0.1,0.1,0.2,0.1,0.4,0.2
									c0.1,0.1,0.2,0.2,0.3,0.3c-0.3-0.1-0.5-0.3-0.7-0.4c-0.1-0.1-0.2-0.1-0.4-0.2C162.6,50.8,162.4,50.8,162.3,50.7z"/>
							</g>
						</g>
					</g>
				</g>
			</g>
		</g>
	</g>
</g>
<rect x="106.6" y="69" class="st3" width="10.6" height="7.6"/>
<text transform="matrix(1 0 0 1 106.5942 75.2256)" class="st1 st13 st14">22</text>
<rect x="159.7" y="69" class="st3" width="10.6" height="7.6"/>
<text transform="matrix(1 0 0 1 159.6895 75.2256)" class="st1 st13 st14">23</text>
<rect x="157.9" y="91.1" class="st3" width="46.8" height="12.2"/>
<text transform="matrix(1 0 0 1 157.8652 101.5361)" class="st1 st15 st16">LETtER</text>
<rect x="80.2" y="91.1" class="st3" width="42" height="12.2"/>
<text transform="matrix(1 0 0 1 80.1973 101.5869)" class="st1 st15 st16">NEWS</text>
</svg>
